<?xml version="1.0" encoding="UTF-8"?>
<svg viewBox="-11.4 -11.4 30.8 22.8" height="22.8mm" width="30.8mm" xmlns:svgjs="http://svgjs.com/svgjs" xmlns:xlink="http://www.w3.org/1999/xlink" version="1.1" xmlns="http://www.w3.org/2000/svg" id="SvgjsSvg1081">
  <defs id="SvgjsDefs1082">
  </defs>
  <defs id="SvgjsDefs1082">
  </defs>
  <g id="SvgjsG1083">
    <g transform="matrix(1,0,0,1,0,0)" id="SvgjsG1084">
      <g fill="none" stroke-width="0.04" stroke="blue" id="SvgjsG1085">
      </g>
      <g fill="none" stroke-width="0.1" stroke="black" id="SvgjsG1086">
        <circle cy="0" cx="0" r="2.5" id="SvgjsCircle1087">
        </circle>
        <path d="M9.380882815578495 -2.9505283614437667  L9.242656515503032 -2.8025068367676313 L9.108872696539837 -2.6707538972041336 L8.980534576716398 -2.554532553208356 L8.85971427204834 -2.4539543180880403 L8.744314328156683 -2.365826468064325 L8.639399751381431 -2.292463697669051 L8.54369402286932 -2.231315595245788 L8.45687600749944 -2.1808633216871507 L8.383842579226336 -2.1424171157016825 L8.271458365936901 -2.0915490009015945 L8.209689660912819 -2.069437047581089 L8.075852525980054 -2.0290326392450138 L7.978544469959355 -1.9884893286565453 L7.898797452587425 -1.9440055965707503 L7.836759387366305 -1.8969885043210148 L7.812399448651774 -1.8729736050744172 L7.792474497577415 -1.8488572926555498 L7.776976446589862 -1.8248006092684483 L7.765891998690422 -1.8009941413497383 L7.759201481766417 -1.7776070426992083 L7.756885223705177 -1.7548084671166477 L7.760093538595082 -1.7273991764368943 L7.829221636447054 -1.3805030124520958 L7.882907948731796 -1.03088404504148 L7.889267648431338 -1.0040304285302608 L7.89924179112769 -0.9833989822049832 L7.913527679342846 -0.963710589738759 L7.932085944809072 -0.9451309319678236 L7.954877219258635 -0.9278256897284125 L7.981848813382718 -0.9119785035300443 L8.012953247317833 -0.897743469649648 L8.087330752043965 -0.8747801229703359 L8.177482768221697 -0.8602541744956393 L8.282789059305735 -0.8554372399803656 L8.422373948919276 -0.8632445116917364 L8.487980278669795 -0.8635922136706724 L8.61098481450534 -0.8542294862965337 L8.692763165005752 -0.8430807738403071 L8.791601107233737 -0.8253646547354395 L8.902448956838404 -0.8006375210960381 L9.026127955692345 -0.7675819657008125 L9.164709931302536 -0.7242379806973981 L9.312643662431508 -0.6710483332623878 L9.47299208732607 -0.6057302160678943 L9.64376991405943 -0.5276797119296714 L9.824286491323896 -0.43586115643721435 L9.994179139099293 -0.3406294477560563 A10 10 0 0 1 9.994179139099293 0.3406294477560574 L9.824286491323896 0.43586115643721546 L9.64376991405943 0.5276797119296723 L9.47299208732607 0.6057302160678955 L9.312643662431508 0.6710483332623887 L9.164709931302536 0.7242379806973992 L9.026127955692345 0.7675819657008134 L8.902448956838404 0.8006375210960393 L8.791601107233737 0.8253646547354404 L8.692763165005752 0.8430807738403082 L8.61098481450534 0.8542294862965348 L8.487980278669795 0.8635922136706733 L8.422373948919276 0.8632445116917373 L8.282789059305735 0.8554372399803665 L8.177482768221697 0.8602541744956402 L8.087330752043965 0.8747801229703368 L8.012953247317833 0.8977434696496489 L7.981848813382718 0.9119785035300452 L7.954877219258635 0.9278256897284134 L7.932085944809072 0.9451309319678245 L7.913527679342846 0.9637105897387599 L7.89924179112769 0.9833989822049841 L7.889267648431338 1.0040304285302617 L7.882907948731796 1.030884045041481 L7.829221636447054 1.3805030124520967 L7.760093538595082 1.7273991764368952 L7.756885223705177 1.7548084671166486 L7.759201481766417 1.7776070426992092 L7.765891998690422 1.8009941413497392 L7.776976446589862 1.8248006092684492 L7.792474497577415 1.8488572926555507 L7.812399448651774 1.8729736050744181 L7.836759387366305 1.8969885043210157 L7.898797452587425 1.9440055965707512 L7.978544469959355 1.9884893286565462 L8.075852525980054 2.0290326392450146 L8.209689660912819 2.06943704758109 L8.271458365936901 2.0915490009015953 L8.383842579226336 2.142417115701684 L8.45687600749944 2.1808633216871516 L8.54369402286932 2.231315595245789 L8.639399751381431 2.2924636976690524 L8.744314328156683 2.3658264680643257 L8.85971427204834 2.453954318088041 L8.980534576716398 2.554532553208357 L9.108872696539837 2.6707538972041345 L9.242656515503032 2.8025068367676322 L9.380882815578495 2.9505283614437676 L9.507958520366538 3.098123603098404 A10 10 0 0 1 9.2749542552816 3.7382975600558934 L9.082736225189002 3.7696793862262927 L8.881702334094566 3.794220299645123 L8.694528825907378 3.8091543256562423 L8.521510482474692 3.8156908871230537 L8.364306316128307 3.815076490396505 L8.219257340310303 3.808408686099116 L8.091731431947082 3.7971700386655898 L7.979111347852208 3.7824937462705917 L7.880174793291486 3.7653368854955707 L7.79951519655403 3.747843405162863 L7.680726500547752 3.714571462010591 L7.619195637685011 3.6918060427224084 L7.490698991131656 3.6367287631550416 L7.39009595784435 3.6052383282041967 L7.300412606513905 3.5880544493015787 L7.222666687047794 3.58419433189804 L7.188569411677225 3.5869325452395335 L7.157804346813117 3.59259920068232 L7.130468812963548 3.601065734161793 L7.106675130636592 3.6121776008512345 L7.086516960086288 3.625792576432 L7.070087961566673 3.641768436585447 L7.054927320920618 3.664827436459708 L6.884901960086288 3.974999999999999 L6.7012973209206175 4.27733256354029 L6.688907961566673 4.301991563414552 L6.683286960086288 4.324207423567999 L6.681575130636592 4.348472399148764 L6.683848812963548 4.374634265838205 L6.690184346813117 4.402540799317679 L6.700659411677226 4.432017454760465 L6.715336687047794 4.462915668101958 L6.757552606513905 4.528315550698419 L6.81727595784435 4.597391671795801 L6.8948489911316555 4.668771236844957 L7.006795637685012 4.752513957277589 L7.057276500547752 4.794418537989408 L7.14548519655403 4.880656594837136 L7.200964793291487 4.941763114504428 L7.265291347852208 5.018866253729407 L7.334311431947082 5.109059961334409 L7.407807340310304 5.213881313900882 L7.486106316128307 5.336163509603493 L7.565240482474692 5.471999112876944 L7.646088825907379 5.625105674343756 L7.726742334094567 5.794669700354874 L7.806006225189002 5.981040613773705 L7.874937781554589 6.163197223984496 A10 10 0 0 1 7.437033004530664 6.685071815216924 L7.2456739233860255 6.648818647493985 L7.0483703726718545 6.603121922495571 L6.867377070504992 6.553138206439894 L6.70255737423096 6.500104806396753 L6.555043915214933 6.445760470821398 L6.421022986367662 6.389885112827781 L6.305031675125725 6.335707809310757 L6.20422300077791 6.283398268343203 L6.117121042512508 6.23343779830606 L6.047308937313411 6.189412097088814 L5.947063751009194 6.11751857079588 L5.8970298851943 6.075081279746411 L5.7951200736839965 5.979377125092948 L5.711354508750511 5.915377531880378 L5.632956958023106 5.868556455003145 L5.561219929112199 5.838338460644887 L5.528242446938056 5.829249584506769 L5.497394632200535 5.824052226916647 L5.4688119077627295 5.822658862745831 L5.442652677821027 5.824962683237345 L5.419053597806854 5.830862074941972 L5.3981513231516365 5.840255424410498 L5.37601833856821 5.8567385519483715 L5.110161497007988 6.0900533227958755 L4.834225745727881 6.311356516775273 L4.814149681495452 6.330290986531128 L4.801269396209123 6.349244570649779 L4.7913616922812725 6.37146070899284 L4.784550369391134 6.3968224672222345 L4.7809592272179415 6.4252129109998855 L4.780720958453695 6.456494589791088 L4.783945274457097 6.490549336689431 L4.801247185239969 6.566443818592014 L4.833743352935685 6.651780729041666 L4.88222491081911 6.745387119556397 L4.958778651262175 6.8623675440904846 L4.99188293488414 6.919010441314025 L5.0452768430472 7.03021685781539 L5.076510950090826 7.106613343056448 L5.110587312003531 7.201067571436094 L5.144596910911372 7.309428191968315 L5.177809459629872 7.433065124588066 L5.20956345532076 7.574752628474835 L5.237466734988189 7.729461821426647 L5.26107379861767 7.900986689439406 L5.278868992622465 8.087909877862701 L5.28961007965944 8.290151097324175 L5.292083324583456 8.48489830055445 A10 10 0 0 1 4.702095814515838 8.825527748310506 L4.534676411664457 8.72601225376139 L4.3649009214369645 8.615589589792373 L4.211918288708402 8.506716905507298 L4.075176927443321 8.400510154689034 L3.9551464759817776 8.298990609172233 L3.8483184960624732 8.200647090288879 L3.757852045927034 8.110065713064353 L3.6810137952302053 8.026432226171533 L3.6162522149149274 7.949694116896755 L3.565707971458141 7.8844463441119235 L3.496097343785657 7.782602654984698 L3.4635952976571014 7.725612055782221 L3.4005641484866254 7.600824359536762 L3.3437394152860143 7.512034903537305 L3.2860835668039963 7.441223941562351 L3.229007972860737 7.388292806339079 L3.201127854929024 7.368473093321133 L3.173917992040694 7.353038600728298 L3.1475355754179386 7.341953399190058 L3.122165987061575 7.335171298731599 L3.0979723949185685 7.332643552854761 L3.0751179669358875 7.334321415061389 L3.0486822030039145 7.342240561816754 L2.7190601394390668 7.470556335247971 L2.3840752000268726 7.584137728385266 L2.358733900553542 7.595063891527145 L2.340147883959565 7.608469117641181 L2.3232393208693956 7.625956824587083 L2.3081645388271337 7.647459472014279 L2.295079865376881 7.672909519572197 L2.2841570017137194 7.702223189581187 L2.2755394582541077 7.7353269649659016 L2.26584049456432 7.812562051573895 L2.2671899612088464 7.903866860536924 L2.2807324522960584 8.008409764337962 L2.3126597757185205 8.1445183273275 L2.324394614927708 8.209067571697474 L2.3365336419129252 8.331829212790497 L2.3397549649869336 8.41430111999321 L2.339471022091411 8.514713863588991 L2.3343680762557084 8.62817150697981 L2.3232913417890226 8.755711580892108 L2.304670356833408 8.899714788909439 L2.27797720248544 9.05463735960511 L2.241495626034846 9.223892103644028 L2.194286142831179 9.405628759263204 L2.1352088921924723 9.599347008937752 L2.0709255158358753 9.783195418315326 A10 10 0 0 1 1.4000164737270115 9.901494784040391 L1.27673 9.75072 L1.15496 9.58889 L1.04844 9.43426 L0.95627 9.28769 L0.8782 9.15124 L0.81145 9.02229 L0.75742 8.90623 L0.71382 8.80136 L0.67921 8.7071 L0.65403 8.6285 L0.62345 8.50899 L0.6124 8.44432 L0.59585 8.3055 L0.57282 8.20263 L0.54286 8.11637 L0.50733 8.04711 L0.48791 8.01895 L0.46762 7.99514 L0.44662 7.9757 L0.4251 7.96065 L0.40323 7.95 L0.38118 7.94376 L0.35363 7.94216 L0 7.95 L-0.35363 7.94216 L-0.38118 7.94376 L-0.40323 7.95 L-0.4251 7.96065 L-0.44662 7.9757 L-0.46762 7.99514 L-0.48791 8.01895 L-0.50733 8.04711 L-0.54286 8.11637 L-0.57282 8.20263 L-0.59585 8.3055 L-0.6124 8.44432 L-0.62345 8.50899 L-0.65403 8.6285 L-0.67921 8.7071 L-0.71382 8.80136 L-0.75742 8.90623 L-0.81145 9.02229 L-0.8782 9.15124 L-0.95627 9.28769 L-1.04844 9.43426 L-1.15496 9.58889 L-1.27673 9.75072 L-1.4000164737270115 9.901494784040391 A10 10 0 0 1 -2.0709255158358726 9.783195418315328 L-2.1352088921924697 9.599347008937754 L-2.1942861428311766 9.405628759263202 L-2.241495626034844 9.22389210364403 L-2.2779772024854377 9.05463735960511 L-2.304670356833406 8.899714788909439 L-2.323291341789021 8.755711580892108 L-2.3343680762557066 8.62817150697981 L-2.3394710220914092 8.514713863588993 L-2.339754964986932 8.41430111999321 L-2.3365336419129235 8.331829212790499 L-2.3243946149277064 8.209067571697474 L-2.3126597757185188 8.144518327327502 L-2.2807324522960566 8.008409764337962 L-2.267189961208844 7.903866860536925 L-2.2658404945643182 7.812562051573896 L-2.275539458254106 7.735326964965902 L-2.2841570017137176 7.702223189581188 L-2.2950798653768794 7.6729095195721975 L-2.308164538827132 7.64745947201428 L-2.3232393208693938 7.6259568245870835 L-2.3401478839595633 7.608469117641181 L-2.35873390055354 7.595063891527146 L-2.384075200026871 7.584137728385267 L-2.719060139439065 7.470556335247972 L-3.0486822030039127 7.342240561816755 L-3.0751179669358857 7.33432141506139 L-3.0979723949185667 7.332643552854763 L-3.1221659870615732 7.3351712987316 L-3.147535575417937 7.341953399190059 L-3.173917992040692 7.353038600728299 L-3.2011278549290223 7.368473093321134 L-3.2290079728607353 7.38829280633908 L-3.2860835668039945 7.441223941562352 L-3.343739415286012 7.512034903537306 L-3.4005641484866236 7.600824359536763 L-3.4635952976570996 7.725612055782222 L-3.4960973437856553 7.782602654984699 L-3.565707971458139 7.884446344111925 L-3.6162522149149257 7.949694116896756 L-3.6810137952302036 8.026432226171535 L-3.757852045927032 8.110065713064353 L-3.8483184960624714 8.200647090288879 L-3.955146475981776 8.298990609172233 L-4.075176927443319 8.400510154689037 L-4.211918288708399 8.5067169055073 L-4.364900921436963 8.615589589792375 L-4.534676411664456 8.726012253761391 L-4.702095814515836 8.825527748310508 A10 10 0 0 1 -5.292083324583455 8.484898300554452 L-5.289610079659439 8.290151097324177 L-5.278868992622464 8.087909877862703 L-5.261073798617668 7.9009866894394065 L-5.237466734988188 7.729461821426648 L-5.209563455320759 7.574752628474836 L-5.177809459629871 7.433065124588068 L-5.14459691091137 7.3094281919683155 L-5.110587312003531 7.201067571436096 L-5.076510950090825 7.106613343056449 L-5.0452768430471995 7.030216857815391 L-4.991882934884139 6.919010441314027 L-4.9587786512621745 6.862367544090485 L-4.882224910819109 6.745387119556398 L-4.833743352935684 6.651780729041667 L-4.801247185239968 6.566443818592015 L-4.783945274457096 6.490549336689432 L-4.780720958453694 6.456494589791089 L-4.780959227217941 6.425212910999886 L-4.784550369391133 6.396822467222235 L-4.791361692281271 6.371460708992841 L-4.801269396209122 6.3492445706497795 L-4.814149681495451 6.3302909865311285 L-4.83422574572788 6.311356516775274 L-5.110161497007987 6.090053322795876 L-5.376018338568209 5.856738551948372 L-5.398151323151636 5.840255424410499 L-5.419053597806853 5.830862074941973 L-5.442652677821027 5.824962683237346 L-5.468811907762729 5.822658862745832 L-5.4973946322005345 5.824052226916648 L-5.528242446938055 5.82924958450677 L-5.561219929112198 5.838338460644888 L-5.632956958023105 5.868556455003146 L-5.71135450875051 5.915377531880379 L-5.795120073683996 5.979377125092949 L-5.897029885194299 6.075081279746412 L-5.9470637510091935 6.117518570795882 L-6.04730893731341 6.189412097088816 L-6.117121042512507 6.233437798306061 L-6.204223000777908 6.283398268343205 L-6.305031675125723 6.335707809310758 L-6.421022986367661 6.389885112827783 L-6.555043915214932 6.445760470821399 L-6.702557374230959 6.500104806396754 L-6.8673770705049915 6.553138206439895 L-7.048370372671854 6.603121922495572 L-7.245673923386025 6.648818647493987 L-7.437033004530663 6.685071815216925 A10 10 0 0 1 -7.8749377815545865 6.163197223984498 L-7.806006225189 5.981040613773707 L-7.726742334094564 5.794669700354875 L-7.646088825907379 5.625105674343757 L-7.565240482474692 5.471999112876945 L-7.486106316128306 5.3361635096034945 L-7.407807340310302 5.213881313900884 L-7.334311431947081 5.1090599613344105 L-7.265291347852207 5.018866253729409 L-7.200964793291486 4.94176311450443 L-7.145485196554029 4.880656594837138 L-7.057276500547751 4.79441853798941 L-7.006795637685009 4.752513957277591 L-6.894848991131655 4.668771236844959 L-6.817275957844349 4.597391671795803 L-6.757552606513904 4.528315550698421 L-6.7153366870477935 4.46291566810196 L-6.700659411677225 4.432017454760467 L-6.690184346813116 4.40254079931768 L-6.683848812963547 4.374634265838207 L-6.681575130636591 4.348472399148766 L-6.683286960086287 4.324207423568 L-6.688907961566672 4.301991563414553 L-6.701297320920617 4.277332563540292 L-6.884901960086287 3.975000000000001 L-7.054927320920617 3.66482743645971 L-7.0700879615666725 3.6417684365854486 L-7.086516960086287 3.625792576432002 L-7.106675130636591 3.6121776008512363 L-7.130468812963547 3.6010657341617947 L-7.1578043468131165 3.5925992006823217 L-7.188569411677224 3.5869325452395358 L-7.222666687047793 3.5841943318980416 L-7.300412606513904 3.5880544493015805 L-7.390095957844349 3.6052383282041984 L-7.490698991131655 3.6367287631550433 L-7.61919563768501 3.69180604272241 L-7.680726500547751 3.714571462010593 L-7.7995151965540295 3.7478434051628646 L-7.880174793291485 3.7653368854955724 L-7.979111347852207 3.7824937462705934 L-8.091731431947082 3.797170038665592 L-8.219257340310302 3.808408686099118 L-8.364306316128307 3.815076490396507 L-8.521510482474692 3.8156908871230555 L-8.694528825907378 3.809154325656244 L-8.881702334094564 3.7942202996451253 L-9.082736225189 3.7696793862262945 L-9.274954255281598 3.738297560055895 A10 10 0 0 1 -9.507958520366538 3.098123603098404 L-9.380882815578495 2.9505283614437676 L-9.242656515503032 2.8025068367676322 L-9.108872696539837 2.6707538972041345 L-8.980534576716398 2.554532553208357 L-8.85971427204834 2.453954318088041 L-8.744314328156683 2.3658264680643257 L-8.639399751381431 2.2924636976690524 L-8.54369402286932 2.231315595245789 L-8.45687600749944 2.1808633216871516 L-8.383842579226336 2.142417115701684 L-8.271458365936901 2.0915490009015953 L-8.209689660912819 2.06943704758109 L-8.075852525980054 2.0290326392450146 L-7.978544469959355 1.9884893286565462 L-7.898797452587425 1.9440055965707512 L-7.836759387366305 1.8969885043210157 L-7.812399448651774 1.8729736050744181 L-7.792474497577415 1.8488572926555507 L-7.776976446589862 1.8248006092684492 L-7.765891998690422 1.8009941413497392 L-7.759201481766417 1.7776070426992092 L-7.756885223705177 1.7548084671166486 L-7.760093538595082 1.7273991764368952 L-7.829221636447054 1.3805030124520967 L-7.882907948731796 1.030884045041481 L-7.889267648431338 1.0040304285302617 L-7.89924179112769 0.9833989822049841 L-7.913527679342846 0.9637105897387599 L-7.932085944809072 0.9451309319678245 L-7.954877219258635 0.9278256897284134 L-7.981848813382718 0.9119785035300452 L-8.012953247317833 0.8977434696496489 L-8.087330752043965 0.8747801229703368 L-8.177482768221697 0.8602541744956402 L-8.282789059305735 0.8554372399803665 L-8.422373948919276 0.8632445116917373 L-8.487980278669795 0.8635922136706733 L-8.61098481450534 0.8542294862965348 L-8.692763165005752 0.8430807738403082 L-8.791601107233737 0.8253646547354404 L-8.902448956838404 0.8006375210960393 L-9.026127955692345 0.7675819657008134 L-9.164709931302536 0.7242379806973992 L-9.312643662431508 0.6710483332623887 L-9.47299208732607 0.6057302160678955 L-9.64376991405943 0.5276797119296723 L-9.824286491323896 0.43586115643721546 L-9.994179139099293 0.3406294477560574 A10 10 0 0 1 -9.994179139099293 -0.3406294477560563 L-9.824286491323896 -0.43586115643721435 L-9.64376991405943 -0.5276797119296714 L-9.47299208732607 -0.6057302160678943 L-9.312643662431508 -0.6710483332623878 L-9.164709931302536 -0.7242379806973981 L-9.026127955692345 -0.7675819657008125 L-8.902448956838404 -0.8006375210960381 L-8.791601107233737 -0.8253646547354395 L-8.692763165005752 -0.8430807738403071 L-8.61098481450534 -0.8542294862965337 L-8.487980278669795 -0.8635922136706724 L-8.422373948919276 -0.8632445116917364 L-8.282789059305735 -0.8554372399803656 L-8.177482768221697 -0.8602541744956393 L-8.087330752043965 -0.8747801229703359 L-8.012953247317833 -0.897743469649648 L-7.981848813382718 -0.9119785035300443 L-7.954877219258635 -0.9278256897284125 L-7.932085944809072 -0.9451309319678236 L-7.913527679342846 -0.963710589738759 L-7.89924179112769 -0.9833989822049832 L-7.889267648431338 -1.0040304285302608 L-7.882907948731796 -1.03088404504148 L-7.829221636447054 -1.3805030124520958 L-7.760093538595082 -1.7273991764368943 L-7.756885223705177 -1.7548084671166477 L-7.759201481766417 -1.7776070426992083 L-7.765891998690422 -1.8009941413497383 L-7.776976446589862 -1.8248006092684483 L-7.792474497577415 -1.8488572926555498 L-7.812399448651774 -1.8729736050744172 L-7.836759387366305 -1.8969885043210148 L-7.898797452587425 -1.9440055965707503 L-7.978544469959355 -1.9884893286565453 L-8.075852525980054 -2.0290326392450138 L-8.209689660912819 -2.069437047581089 L-8.271458365936901 -2.0915490009015945 L-8.383842579226336 -2.1424171157016825 L-8.45687600749944 -2.1808633216871507 L-8.54369402286932 -2.231315595245788 L-8.639399751381431 -2.292463697669051 L-8.744314328156683 -2.365826468064325 L-8.85971427204834 -2.4539543180880403 L-8.980534576716398 -2.554532553208356 L-9.108872696539837 -2.6707538972041336 L-9.242656515503032 -2.8025068367676313 L-9.380882815578495 -2.9505283614437667 L-9.507958520366538 -3.0981236030984025 A10 10 0 0 1 -9.274954255281596 -3.7382975600558965 L-9.082736225189 -3.7696793862262954 L-8.881702334094562 -3.7942202996451266 L-8.694528825907376 -3.809154325656245 L-8.52151048247469 -3.815690887123057 L-8.364306316128305 -3.8150764903965078 L-8.219257340310302 -3.808408686099119 L-8.09173143194708 -3.797170038665593 L-7.979111347852206 -3.7824937462705943 L-7.880174793291484 -3.7653368854955733 L-7.799515196554029 -3.747843405162866 L-7.68072650054775 -3.714571462010594 L-7.619195637685009 -3.691806042722411 L-7.490698991131654 -3.6367287631550442 L-7.390095957844348 -3.6052383282041993 L-7.300412606513904 -3.5880544493015814 L-7.222666687047792 -3.5841943318980425 L-7.188569411677223 -3.5869325452395366 L-7.157804346813116 -3.5925992006823226 L-7.130468812963546 -3.6010657341617955 L-7.1066751306365905 -3.612177600851237 L-7.0865169600862865 -3.6257925764320027 L-7.070087961566672 -3.6417684365854495 L-7.0549273209206165 -3.664827436459711 L-6.884901960086286 -3.975000000000002 L-6.701297320920616 -4.277332563540293 L-6.688907961566671 -4.301991563414554 L-6.683286960086286 -4.324207423568001 L-6.68157513063659 -4.348472399148767 L-6.6838488129635465 -4.374634265838208 L-6.6901843468131155 -4.402540799317681 L-6.700659411677224 -4.432017454760468 L-6.715336687047793 -4.462915668101961 L-6.757552606513903 -4.528315550698422 L-6.817275957844348 -4.597391671795803 L-6.894848991131654 -4.668771236844959 L-7.006795637685008 -4.752513957277592 L-7.05727650054775 -4.794418537989411 L-7.145485196554028 -4.880656594837139 L-7.200964793291485 -4.941763114504431 L-7.265291347852206 -5.01886625372941 L-7.33431143194708 -5.109059961334411 L-7.407807340310301 -5.213881313900885 L-7.486106316128304 -5.336163509603495 L-7.565240482474691 -5.471999112876946 L-7.646088825907376 -5.625105674343758 L-7.7267423340945625 -5.794669700354876 L-7.806006225189 -5.9810406137737075 L-7.874937781554585 -6.163197223984499 A10 10 0 0 1 -7.437033004530665 -6.685071815216922 L-7.245673923386026 -6.648818647493984 L-7.048370372671855 -6.6031219224955695 L-6.867377070504993 -6.553138206439892 L-6.70255737423096 -6.500104806396752 L-6.555043915214934 -6.445760470821396 L-6.421022986367662 -6.3898851128277805 L-6.305031675125726 -6.335707809310756 L-6.20422300077791 -6.283398268343202 L-6.117121042512509 -6.233437798306059 L-6.047308937313412 -6.189412097088813 L-5.947063751009195 -6.117518570795879 L-5.897029885194301 -6.07508127974641 L-5.795120073683997 -5.979377125092947 L-5.711354508750512 -5.915377531880377 L-5.632956958023107 -5.868556455003144 L-5.5612199291122 -5.838338460644886 L-5.528242446938057 -5.829249584506768 L-5.497394632200535 -5.8240522269166455 L-5.46881190776273 -5.822658862745829 L-5.442652677821028 -5.824962683237344 L-5.419053597806855 -5.8308620749419715 L-5.398151323151637 -5.840255424410497 L-5.376018338568211 -5.856738551948371 L-5.110161497007989 -6.090053322795875 L-4.834225745727882 -6.311356516775272 L-4.8141496814954525 -6.330290986531127 L-4.801269396209124 -6.349244570649778 L-4.791361692281273 -6.3714607089928395 L-4.784550369391135 -6.3968224672222345 L-4.780959227217943 -6.4252129109998855 L-4.780720958453696 -6.456494589791087 L-4.783945274457098 -6.49054933668943 L-4.80124718523997 -6.566443818592013 L-4.833743352935686 -6.651780729041665 L-4.882224910819111 -6.745387119556396 L-4.958778651262176 -6.862367544090484 L-4.991882934884141 -6.919010441314025 L-5.045276843047201 -7.030216857815389 L-5.076510950090827 -7.1066133430564475 L-5.110587312003533 -7.201067571436093 L-5.144596910911373 -7.309428191968314 L-5.177809459629874 -7.433065124588065 L-5.209563455320761 -7.574752628474833 L-5.237466734988191 -7.729461821426646 L-5.261073798617671 -7.900986689439404 L-5.278868992622466 -8.087909877862701 L-5.2896100796594405 -8.290151097324175 L-5.292083324583459 -8.48489830055445 A10 10 0 0 1 -4.702095814515835 -8.825527748310508 L-4.534676411664455 -8.726012253761391 L-4.364900921436962 -8.615589589792375 L-4.211918288708399 -8.5067169055073 L-4.0751769274433185 -8.400510154689037 L-3.9551464759817754 -8.298990609172234 L-3.848318496062471 -8.200647090288879 L-3.7578520459270317 -8.110065713064353 L-3.681013795230203 -8.026432226171535 L-3.616252214914925 -7.949694116896756 L-3.5657079714581386 -7.884446344111925 L-3.496097343785655 -7.782602654984699 L-3.463595297657099 -7.725612055782222 L-3.400564148486623 -7.600824359536763 L-3.3437394152860116 -7.512034903537306 L-3.286083566803994 -7.441223941562352 L-3.2290079728607353 -7.38829280633908 L-3.2011278549290223 -7.368473093321134 L-3.1739179920406917 -7.353038600728299 L-3.1475355754179364 -7.341953399190059 L-3.122165987061573 -7.3351712987316 L-3.0979723949185662 -7.332643552854763 L-3.0751179669358852 -7.33432141506139 L-3.0486822030039122 -7.342240561816755 L-2.7190601394390645 -7.470556335247972 L-2.3840752000268703 -7.584137728385267 L-2.3587339005535397 -7.595063891527146 L-2.340147883959563 -7.608469117641181 L-2.3232393208693933 -7.6259568245870835 L-2.3081645388271315 -7.64745947201428 L-2.295079865376879 -7.6729095195721975 L-2.2841570017137167 -7.702223189581188 L-2.275539458254105 -7.735326964965902 L-2.265840494564318 -7.812562051573896 L-2.2671899612088438 -7.903866860536925 L-2.280732452296056 -8.008409764337962 L-2.3126597757185183 -8.144518327327502 L-2.324394614927706 -8.209067571697474 L-2.336533641912923 -8.331829212790499 L-2.3397549649869314 -8.41430111999321 L-2.339471022091409 -8.514713863588993 L-2.334368076255706 -8.62817150697981 L-2.3232913417890204 -8.755711580892108 L-2.3046703568334057 -8.899714788909437 L-2.2779772024854372 -9.05463735960511 L-2.241495626034843 -9.22389210364403 L-2.194286142831176 -9.405628759263202 L-2.1352088921924697 -9.599347008937754 L-2.0709255158358717 -9.783195418315328 A10 10 0 0 1 -1.4000164737270127 -9.901494784040391 L-1.276730000000001 -9.75072 L-1.154960000000001 -9.58889 L-1.0484400000000011 -9.43426 L-0.9562700000000011 -9.28769 L-0.8782000000000011 -9.15124 L-0.8114500000000011 -9.02229 L-0.7574200000000011 -8.90623 L-0.7138200000000011 -8.80136 L-0.6792100000000011 -8.7071 L-0.6540300000000011 -8.6285 L-0.623450000000001 -8.50899 L-0.612400000000001 -8.44432 L-0.595850000000001 -8.3055 L-0.572820000000001 -8.20263 L-0.542860000000001 -8.11637 L-0.507330000000001 -8.04711 L-0.487910000000001 -8.01895 L-0.467620000000001 -7.99514 L-0.446620000000001 -7.9757 L-0.425100000000001 -7.96065 L-0.403230000000001 -7.95 L-0.381180000000001 -7.94376 L-0.353630000000001 -7.94216 L-9.735942053221459e-16 -7.95 L0.353629999999999 -7.94216 L0.381179999999999 -7.94376 L0.403229999999999 -7.95 L0.425099999999999 -7.96065 L0.446619999999999 -7.9757 L0.467619999999999 -7.99514 L0.487909999999999 -8.01895 L0.507329999999999 -8.04711 L0.542859999999999 -8.11637 L0.572819999999999 -8.20263 L0.595849999999999 -8.3055 L0.6123999999999991 -8.44432 L0.623449999999999 -8.50899 L0.6540299999999989 -8.6285 L0.6792099999999989 -8.7071 L0.7138199999999989 -8.80136 L0.7574199999999989 -8.90623 L0.8114499999999989 -9.02229 L0.8781999999999989 -9.15124 L0.9562699999999988 -9.28769 L1.048439999999999 -9.43426 L1.1549599999999989 -9.58889 L1.2767299999999988 -9.75072 L1.4000164737270104 -9.901494784040391 A10 10 0 0 1 2.070925515835878 -9.783195418315326 L2.135208892192475 -9.599347008937752 L2.1942861428311815 -9.405628759263204 L2.241495626034849 -9.223892103644028 L2.2779772024854426 -9.05463735960511 L2.3046703568334106 -8.899714788909439 L2.3232913417890253 -8.755711580892108 L2.334368076255711 -8.62817150697981 L2.3394710220914137 -8.514713863588991 L2.3397549649869362 -8.41430111999321 L2.336533641912928 -8.331829212790497 L2.3243946149277104 -8.209067571697474 L2.312659775718523 -8.1445183273275 L2.280732452296061 -8.008409764337962 L2.2671899612088486 -7.903866860536924 L2.2658404945643222 -7.812562051573896 L2.27553945825411 -7.7353269649659016 L2.2841570017137216 -7.702223189581187 L2.2950798653768834 -7.672909519572197 L2.308164538827136 -7.647459472014279 L2.3232393208693978 -7.625956824587083 L2.3401478839595673 -7.608469117641181 L2.3587339005535446 -7.595063891527145 L2.384075200026875 -7.584137728385267 L2.719060139439069 -7.470556335247971 L3.0486822030039167 -7.342240561816753 L3.0751179669358892 -7.334321415061389 L3.0979723949185707 -7.332643552854761 L3.122165987061577 -7.335171298731599 L3.147535575417941 -7.341953399190058 L3.173917992040696 -7.353038600728298 L3.2011278549290263 -7.368473093321133 L3.2290079728607393 -7.388292806339079 L3.2860835668039985 -7.44122394156235 L3.3437394152860165 -7.512034903537305 L3.400564148486628 -7.600824359536762 L3.463595297657104 -7.7256120557822205 L3.4960973437856593 -7.782602654984698 L3.5657079714581434 -7.884446344111923 L3.61625221491493 -7.949694116896755 L3.681013795230208 -8.026432226171533 L3.7578520459270366 -8.110065713064353 L3.848318496062476 -8.200647090288879 L3.9551464759817803 -8.298990609172233 L4.075176927443324 -8.400510154689034 L4.211918288708405 -8.506716905507298 L4.364900921436967 -8.615589589792373 L4.53467641166446 -8.72601225376139 L4.7020958145158405 -8.825527748310506 A10 10 0 0 1 5.292083324583455 -8.48489830055445 L5.289610079659439 -8.290151097324175 L5.278868992622464 -8.087909877862701 L5.2610737986176686 -7.900986689439405 L5.237466734988188 -7.729461821426647 L5.209563455320759 -7.574752628474835 L5.177809459629871 -7.433065124588066 L5.14459691091137 -7.309428191968315 L5.110587312003531 -7.201067571436094 L5.076510950090825 -7.106613343056448 L5.0452768430471995 -7.03021685781539 L4.991882934884139 -6.919010441314025 L4.9587786512621745 -6.8623675440904846 L4.882224910819109 -6.745387119556397 L4.833743352935684 -6.651780729041666 L4.801247185239968 -6.566443818592014 L4.783945274457096 -6.490549336689431 L4.780720958453694 -6.456494589791088 L4.7809592272179415 -6.4252129109998855 L4.784550369391133 -6.3968224672222345 L4.791361692281271 -6.37146070899284 L4.801269396209122 -6.349244570649779 L4.814149681495451 -6.330290986531128 L4.83422574572788 -6.311356516775273 L5.110161497007987 -6.0900533227958755 L5.376018338568209 -5.8567385519483715 L5.398151323151636 -5.840255424410498 L5.419053597806853 -5.830862074941972 L5.442652677821027 -5.824962683237345 L5.468811907762729 -5.822658862745831 L5.497394632200534 -5.824052226916647 L5.528242446938055 -5.829249584506769 L5.561219929112198 -5.838338460644887 L5.632956958023105 -5.868556455003145 L5.71135450875051 -5.915377531880378 L5.795120073683996 -5.979377125092948 L5.897029885194299 -6.075081279746411 L5.9470637510091935 -6.11751857079588 L6.04730893731341 -6.189412097088814 L6.117121042512507 -6.23343779830606 L6.204223000777908 -6.283398268343203 L6.305031675125723 -6.335707809310757 L6.421022986367661 -6.389885112827781 L6.555043915214932 -6.445760470821398 L6.702557374230959 -6.500104806396753 L6.867377070504991 -6.553138206439895 L7.048370372671854 -6.603121922495571 L7.245673923386025 -6.648818647493985 L7.437033004530663 -6.685071815216924 A10 10 0 0 1 7.874937781554585 -6.1631972239845005 L7.806006225188998 -5.98104061377371 L7.7267423340945625 -5.794669700354879 L7.646088825907374 -5.625105674343761 L7.565240482474691 -5.471999112876949 L7.486106316128303 -5.336163509603498 L7.4078073403103 -5.213881313900887 L7.334311431947079 -5.109059961334413 L7.265291347852205 -5.018866253729412 L7.200964793291483 -4.9417631145044325 L7.145485196554027 -4.88065659483714 L7.057276500547749 -4.7944185379894115 L7.006795637685007 -4.752513957277594 L6.894848991131653 -4.668771236844961 L6.817275957844347 -4.597391671795805 L6.757552606513902 -4.528315550698424 L6.715336687047792 -4.462915668101963 L6.700659411677222 -4.432017454760469 L6.690184346813115 -4.402540799317682 L6.683848812963545 -4.37463426583821 L6.681575130636589 -4.348472399148768 L6.683286960086285 -4.324207423568002 L6.68890796156667 -4.301991563414556 L6.701297320920615 -4.277332563540295 L6.884901960086285 -3.9750000000000036 L7.054927320920616 -3.6648274364597127 L7.070087961566671 -3.6417684365854512 L7.086516960086286 -3.6257925764320045 L7.10667513063659 -3.612177600851239 L7.130468812963546 -3.6010657341617978 L7.157804346813115 -3.5925992006823244 L7.188569411677223 -3.5869325452395384 L7.222666687047791 -3.5841943318980443 L7.300412606513903 -3.588054449301583 L7.3900959578443475 -3.605238328204201 L7.490698991131653 -3.636728763155046 L7.619195637685008 -3.691806042722413 L7.680726500547749 -3.714571462010596 L7.799515196554028 -3.7478434051628677 L7.880174793291484 -3.7653368854955755 L7.979111347852205 -3.782493746270596 L8.09173143194708 -3.7971700386655947 L8.2192573403103 -3.808408686099122 L8.364306316128303 -3.8150764903965104 L8.52151048247469 -3.8156908871230595 L8.694528825907375 -3.809154325656248 L8.881702334094564 -3.7942202996451293 L9.082736225188999 -3.769679386226298 L9.274954255281598 -3.7382975600558996 A10 10 0 0 1 9.507958520366538 -3.0981236030984025 Z" id="SvgjsPath1088">
        </path>
      </g>
    </g>
  </g>
</svg>
