0
SECTION
2
HEADER
0
ENDSEC
0
SECTION
2
TABLES
0
TABLE
2
LTYPE
0
LTYPE
72
65
70
64
2
CONTINUOUS
3
______
73
0
40
0
0
ENDTAB
0
TABLE
2
LAYER
0
ENDTAB
0
ENDSEC
0
SECTION
2
ENTITIES
0
CIRCLE
8
0
10
0
20
0
40
2.5
0
CIRCLE
8
0
10
0
20
0
40
2.5
0
LINE
8
layer0
10
9.3808828
20
2.9505284
11
9.2426565
21
2.8025068
0
LINE
8
layer0
10
9.2426565
20
2.8025068
11
9.1088727
21
2.6707539
0
LINE
8
layer0
10
9.1088727
20
2.6707539
11
8.9805346
21
2.5545326
0
LINE
8
layer0
10
8.9805346
20
2.5545326
11
8.8597143
21
2.4539543
0
LINE
8
layer0
10
8.8597143
20
2.4539543
11
8.7443143
21
2.3658265
0
LINE
8
layer0
10
8.7443143
20
2.3658265
11
8.6393998
21
2.2924637
0
LINE
8
layer0
10
8.6393998
20
2.2924637
11
8.543694
21
2.2313156
0
LINE
8
layer0
10
8.543694
20
2.2313156
11
8.456876
21
2.1808633
0
LINE
8
layer0
10
8.456876
20
2.1808633
11
8.3838426
21
2.1424171
0
LINE
8
layer0
10
8.3838426
20
2.1424171
11
8.2714584
21
2.091549
0
LINE
8
layer0
10
8.2714584
20
2.091549
11
8.2096897
21
2.069437
0
LINE
8
layer0
10
8.2096897
20
2.069437
11
8.0758525
21
2.0290326
0
LINE
8
layer0
10
8.0758525
20
2.0290326
11
7.9785445
21
1.9884893
0
LINE
8
layer0
10
7.9785445
20
1.9884893
11
7.8987975
21
1.9440056
0
LINE
8
layer0
10
7.8987975
20
1.9440056
11
7.8367594
21
1.8969885
0
LINE
8
layer0
10
7.8367594
20
1.8969885
11
7.8123994
21
1.8729736
0
LINE
8
layer0
10
7.8123994
20
1.8729736
11
7.7924745
21
1.8488573
0
LINE
8
layer0
10
7.7924745
20
1.8488573
11
7.7769764
21
1.8248006
0
LINE
8
layer0
10
7.7769764
20
1.8248006
11
7.765892
21
1.8009941
0
LINE
8
layer0
10
7.765892
20
1.8009941
11
7.7592015
21
1.777607
0
LINE
8
layer0
10
7.7592015
20
1.777607
11
7.7568852
21
1.7548085
0
LINE
8
layer0
10
7.7568852
20
1.7548085
11
7.7600935
21
1.7273992
0
LINE
8
layer0
10
7.7600935
20
1.7273992
11
7.8292216
21
1.380503
0
LINE
8
layer0
10
7.8292216
20
1.380503
11
7.8829079
21
1.030884
0
LINE
8
layer0
10
7.8829079
20
1.030884
11
7.8892676
21
1.0040304
0
LINE
8
layer0
10
7.8892676
20
1.0040304
11
7.8992418
21
0.983399
0
LINE
8
layer0
10
7.8992418
20
0.983399
11
7.9135277
21
0.9637106
0
LINE
8
layer0
10
7.9135277
20
0.9637106
11
7.9320859
21
0.9451309
0
LINE
8
layer0
10
7.9320859
20
0.9451309
11
7.9548772
21
0.9278257
0
LINE
8
layer0
10
7.9548772
20
0.9278257
11
7.9818488
21
0.9119785
0
LINE
8
layer0
10
7.9818488
20
0.9119785
11
8.0129532
21
0.8977435
0
LINE
8
layer0
10
8.0129532
20
0.8977435
11
8.0873308
21
0.8747801
0
LINE
8
layer0
10
8.0873308
20
0.8747801
11
8.1774828
21
0.8602542
0
LINE
8
layer0
10
8.1774828
20
0.8602542
11
8.2827891
21
0.8554372
0
LINE
8
layer0
10
8.2827891
20
0.8554372
11
8.4223739
21
0.8632445
0
LINE
8
layer0
10
8.4223739
20
0.8632445
11
8.4879803
21
0.8635922
0
LINE
8
layer0
10
8.4879803
20
0.8635922
11
8.6109848
21
0.8542295
0
LINE
8
layer0
10
8.6109848
20
0.8542295
11
8.6927632
21
0.8430808
0
LINE
8
layer0
10
8.6927632
20
0.8430808
11
8.7916011
21
0.8253647
0
LINE
8
layer0
10
8.7916011
20
0.8253647
11
8.902449
21
0.8006375
0
LINE
8
layer0
10
8.902449
20
0.8006375
11
9.026128
21
0.767582
0
LINE
8
layer0
10
9.026128
20
0.767582
11
9.1647099
21
0.724238
0
LINE
8
layer0
10
9.1647099
20
0.724238
11
9.3126437
21
0.6710483
0
LINE
8
layer0
10
9.3126437
20
0.6710483
11
9.4729921
21
0.6057302
0
LINE
8
layer0
10
9.4729921
20
0.6057302
11
9.6437699
21
0.5276797
0
LINE
8
layer0
10
9.6437699
20
0.5276797
11
9.8242865
21
0.4358612
0
LINE
8
layer0
10
9.8242865
20
0.4358612
11
9.9941791
21
0.3406294
0
ARC
8
layer0
10
-0.0000178
20
0
40
10
50
358.0479591
51
361.9520403
0
LINE
8
layer0
10
9.9941791
20
-0.3406294
11
9.8242865
21
-0.4358612
0
LINE
8
layer0
10
9.8242865
20
-0.4358612
11
9.6437699
21
-0.5276797
0
LINE
8
layer0
10
9.6437699
20
-0.5276797
11
9.4729921
21
-0.6057302
0
LINE
8
layer0
10
9.4729921
20
-0.6057302
11
9.3126437
21
-0.6710483
0
LINE
8
layer0
10
9.3126437
20
-0.6710483
11
9.1647099
21
-0.724238
0
LINE
8
layer0
10
9.1647099
20
-0.724238
11
9.026128
21
-0.767582
0
LINE
8
layer0
10
9.026128
20
-0.767582
11
8.902449
21
-0.8006375
0
LINE
8
layer0
10
8.902449
20
-0.8006375
11
8.7916011
21
-0.8253647
0
LINE
8
layer0
10
8.7916011
20
-0.8253647
11
8.6927632
21
-0.8430808
0
LINE
8
layer0
10
8.6927632
20
-0.8430808
11
8.6109848
21
-0.8542295
0
LINE
8
layer0
10
8.6109848
20
-0.8542295
11
8.4879803
21
-0.8635922
0
LINE
8
layer0
10
8.4879803
20
-0.8635922
11
8.4223739
21
-0.8632445
0
LINE
8
layer0
10
8.4223739
20
-0.8632445
11
8.2827891
21
-0.8554372
0
LINE
8
layer0
10
8.2827891
20
-0.8554372
11
8.1774828
21
-0.8602542
0
LINE
8
layer0
10
8.1774828
20
-0.8602542
11
8.0873308
21
-0.8747801
0
LINE
8
layer0
10
8.0873308
20
-0.8747801
11
8.0129532
21
-0.8977435
0
LINE
8
layer0
10
8.0129532
20
-0.8977435
11
7.9818488
21
-0.9119785
0
LINE
8
layer0
10
7.9818488
20
-0.9119785
11
7.9548772
21
-0.9278257
0
LINE
8
layer0
10
7.9548772
20
-0.9278257
11
7.9320859
21
-0.9451309
0
LINE
8
layer0
10
7.9320859
20
-0.9451309
11
7.9135277
21
-0.9637106
0
LINE
8
layer0
10
7.9135277
20
-0.9637106
11
7.8992418
21
-0.983399
0
LINE
8
layer0
10
7.8992418
20
-0.983399
11
7.8892676
21
-1.0040304
0
LINE
8
layer0
10
7.8892676
20
-1.0040304
11
7.8829079
21
-1.030884
0
LINE
8
layer0
10
7.8829079
20
-1.030884
11
7.8292216
21
-1.380503
0
LINE
8
layer0
10
7.8292216
20
-1.380503
11
7.7600935
21
-1.7273992
0
LINE
8
layer0
10
7.7600935
20
-1.7273992
11
7.7568852
21
-1.7548085
0
LINE
8
layer0
10
7.7568852
20
-1.7548085
11
7.7592015
21
-1.777607
0
LINE
8
layer0
10
7.7592015
20
-1.777607
11
7.765892
21
-1.8009941
0
LINE
8
layer0
10
7.765892
20
-1.8009941
11
7.7769764
21
-1.8248006
0
LINE
8
layer0
10
7.7769764
20
-1.8248006
11
7.7924745
21
-1.8488573
0
LINE
8
layer0
10
7.7924745
20
-1.8488573
11
7.8123994
21
-1.8729736
0
LINE
8
layer0
10
7.8123994
20
-1.8729736
11
7.8367594
21
-1.8969885
0
LINE
8
layer0
10
7.8367594
20
-1.8969885
11
7.8987975
21
-1.9440056
0
LINE
8
layer0
10
7.8987975
20
-1.9440056
11
7.9785445
21
-1.9884893
0
LINE
8
layer0
10
7.9785445
20
-1.9884893
11
8.0758525
21
-2.0290326
0
LINE
8
layer0
10
8.0758525
20
-2.0290326
11
8.2096897
21
-2.069437
0
LINE
8
layer0
10
8.2096897
20
-2.069437
11
8.2714584
21
-2.091549
0
LINE
8
layer0
10
8.2714584
20
-2.091549
11
8.3838426
21
-2.1424171
0
LINE
8
layer0
10
8.3838426
20
-2.1424171
11
8.456876
21
-2.1808633
0
LINE
8
layer0
10
8.456876
20
-2.1808633
11
8.543694
21
-2.2313156
0
LINE
8
layer0
10
8.543694
20
-2.2313156
11
8.6393998
21
-2.2924637
0
LINE
8
layer0
10
8.6393998
20
-2.2924637
11
8.7443143
21
-2.3658265
0
LINE
8
layer0
10
8.7443143
20
-2.3658265
11
8.8597143
21
-2.4539543
0
LINE
8
layer0
10
8.8597143
20
-2.4539543
11
8.9805346
21
-2.5545326
0
LINE
8
layer0
10
8.9805346
20
-2.5545326
11
9.1088727
21
-2.6707539
0
LINE
8
layer0
10
9.1088727
20
-2.6707539
11
9.2426565
21
-2.8025068
0
LINE
8
layer0
10
9.2426565
20
-2.8025068
11
9.3808828
21
-2.9505284
0
LINE
8
layer0
10
9.3808828
20
-2.9505284
11
9.5079585
21
-3.0981236
0
ARC
8
layer0
10
-0.0000166
20
0.0000063
40
10
50
338.0479577
51
341.9520392
0
LINE
8
layer0
10
9.2749543
20
-3.7382976
11
9.0827362
21
-3.7696794
0
LINE
8
layer0
10
9.0827362
20
-3.7696794
11
8.8817023
21
-3.7942203
0
LINE
8
layer0
10
8.8817023
20
-3.7942203
11
8.6945288
21
-3.8091543
0
LINE
8
layer0
10
8.6945288
20
-3.8091543
11
8.5215105
21
-3.8156909
0
LINE
8
layer0
10
8.5215105
20
-3.8156909
11
8.3643063
21
-3.8150765
0
LINE
8
layer0
10
8.3643063
20
-3.8150765
11
8.2192573
21
-3.8084087
0
LINE
8
layer0
10
8.2192573
20
-3.8084087
11
8.0917314
21
-3.79717
0
LINE
8
layer0
10
8.0917314
20
-3.79717
11
7.9791113
21
-3.7824937
0
LINE
8
layer0
10
7.9791113
20
-3.7824937
11
7.8801748
21
-3.7653369
0
LINE
8
layer0
10
7.8801748
20
-3.7653369
11
7.7995152
21
-3.7478434
0
LINE
8
layer0
10
7.7995152
20
-3.7478434
11
7.6807265
21
-3.7145715
0
LINE
8
layer0
10
7.6807265
20
-3.7145715
11
7.6191956
21
-3.691806
0
LINE
8
layer0
10
7.6191956
20
-3.691806
11
7.490699
21
-3.6367288
0
LINE
8
layer0
10
7.490699
20
-3.6367288
11
7.390096
21
-3.6052383
0
LINE
8
layer0
10
7.390096
20
-3.6052383
11
7.3004126
21
-3.5880544
0
LINE
8
layer0
10
7.3004126
20
-3.5880544
11
7.2226667
21
-3.5841943
0
LINE
8
layer0
10
7.2226667
20
-3.5841943
11
7.1885694
21
-3.5869325
0
LINE
8
layer0
10
7.1885694
20
-3.5869325
11
7.1578043
21
-3.5925992
0
LINE
8
layer0
10
7.1578043
20
-3.5925992
11
7.1304688
21
-3.6010657
0
LINE
8
layer0
10
7.1304688
20
-3.6010657
11
7.1066751
21
-3.6121776
0
LINE
8
layer0
10
7.1066751
20
-3.6121776
11
7.086517
21
-3.6257926
0
LINE
8
layer0
10
7.086517
20
-3.6257926
11
7.070088
21
-3.6417684
0
LINE
8
layer0
10
7.070088
20
-3.6417684
11
7.0549273
21
-3.6648274
0
LINE
8
layer0
10
7.0549273
20
-3.6648274
11
6.884902
21
-3.975
0
LINE
8
layer0
10
6.884902
20
-3.975
11
6.7012973
21
-4.2773326
0
LINE
8
layer0
10
6.7012973
20
-4.2773326
11
6.688908
21
-4.3019916
0
LINE
8
layer0
10
6.688908
20
-4.3019916
11
6.683287
21
-4.3242074
0
LINE
8
layer0
10
6.683287
20
-4.3242074
11
6.6815751
21
-4.3484724
0
LINE
8
layer0
10
6.6815751
20
-4.3484724
11
6.6838488
21
-4.3746343
0
LINE
8
layer0
10
6.6838488
20
-4.3746343
11
6.6901843
21
-4.4025408
0
LINE
8
layer0
10
6.6901843
20
-4.4025408
11
6.7006594
21
-4.4320175
0
LINE
8
layer0
10
6.7006594
20
-4.4320175
11
6.7153367
21
-4.4629157
0
LINE
8
layer0
10
6.7153367
20
-4.4629157
11
6.7575526
21
-4.5283156
0
LINE
8
layer0
10
6.7575526
20
-4.5283156
11
6.817276
21
-4.5973917
0
LINE
8
layer0
10
6.817276
20
-4.5973917
11
6.894849
21
-4.6687712
0
LINE
8
layer0
10
6.894849
20
-4.6687712
11
7.0067956
21
-4.752514
0
LINE
8
layer0
10
7.0067956
20
-4.752514
11
7.0572765
21
-4.7944185
0
LINE
8
layer0
10
7.0572765
20
-4.7944185
11
7.1454852
21
-4.8806566
0
LINE
8
layer0
10
7.1454852
20
-4.8806566
11
7.2009648
21
-4.9417631
0
LINE
8
layer0
10
7.2009648
20
-4.9417631
11
7.2652913
21
-5.0188663
0
LINE
8
layer0
10
7.2652913
20
-5.0188663
11
7.3343114
21
-5.10906
0
LINE
8
layer0
10
7.3343114
20
-5.10906
11
7.4078073
21
-5.2138813
0
LINE
8
layer0
10
7.4078073
20
-5.2138813
11
7.4861063
21
-5.3361635
0
LINE
8
layer0
10
7.4861063
20
-5.3361635
11
7.5652405
21
-5.4719991
0
LINE
8
layer0
10
7.5652405
20
-5.4719991
11
7.6460888
21
-5.6251057
0
LINE
8
layer0
10
7.6460888
20
-5.6251057
11
7.7267423
21
-5.7946697
0
LINE
8
layer0
10
7.7267423
20
-5.7946697
11
7.8060062
21
-5.9810406
0
LINE
8
layer0
10
7.8060062
20
-5.9810406
11
7.8749378
21
-6.1631972
0
ARC
8
layer0
10
-0.0000135
20
0.0000116
40
10
50
318.0479583
51
321.9520396
0
LINE
8
layer0
10
7.437033
20
-6.6850718
11
7.2456739
21
-6.6488186
0
LINE
8
layer0
10
7.2456739
20
-6.6488186
11
7.0483704
21
-6.6031219
0
LINE
8
layer0
10
7.0483704
20
-6.6031219
11
6.8673771
21
-6.5531382
0
LINE
8
layer0
10
6.8673771
20
-6.5531382
11
6.7025574
21
-6.5001048
0
LINE
8
layer0
10
6.7025574
20
-6.5001048
11
6.5550439
21
-6.4457605
0
LINE
8
layer0
10
6.5550439
20
-6.4457605
11
6.421023
21
-6.3898851
0
LINE
8
layer0
10
6.421023
20
-6.3898851
11
6.3050317
21
-6.3357078
0
LINE
8
layer0
10
6.3050317
20
-6.3357078
11
6.204223
21
-6.2833983
0
LINE
8
layer0
10
6.204223
20
-6.2833983
11
6.117121
21
-6.2334378
0
LINE
8
layer0
10
6.117121
20
-6.2334378
11
6.0473089
21
-6.1894121
0
LINE
8
layer0
10
6.0473089
20
-6.1894121
11
5.9470638
21
-6.1175186
0
LINE
8
layer0
10
5.9470638
20
-6.1175186
11
5.8970299
21
-6.0750813
0
LINE
8
layer0
10
5.8970299
20
-6.0750813
11
5.7951201
21
-5.9793771
0
LINE
8
layer0
10
5.7951201
20
-5.9793771
11
5.7113545
21
-5.9153775
0
LINE
8
layer0
10
5.7113545
20
-5.9153775
11
5.632957
21
-5.8685565
0
LINE
8
layer0
10
5.632957
20
-5.8685565
11
5.5612199
21
-5.8383385
0
LINE
8
layer0
10
5.5612199
20
-5.8383385
11
5.5282424
21
-5.8292496
0
LINE
8
layer0
10
5.5282424
20
-5.8292496
11
5.4973946
21
-5.8240522
0
LINE
8
layer0
10
5.4973946
20
-5.8240522
11
5.4688119
21
-5.8226589
0
LINE
8
layer0
10
5.4688119
20
-5.8226589
11
5.4426527
21
-5.8249627
0
LINE
8
layer0
10
5.4426527
20
-5.8249627
11
5.4190536
21
-5.8308621
0
LINE
8
layer0
10
5.4190536
20
-5.8308621
11
5.3981513
21
-5.8402554
0
LINE
8
layer0
10
5.3981513
20
-5.8402554
11
5.3760183
21
-5.8567386
0
LINE
8
layer0
10
5.3760183
20
-5.8567386
11
5.1101615
21
-6.0900533
0
LINE
8
layer0
10
5.1101615
20
-6.0900533
11
4.8342257
21
-6.3113565
0
LINE
8
layer0
10
4.8342257
20
-6.3113565
11
4.8141497
21
-6.330291
0
LINE
8
layer0
10
4.8141497
20
-6.330291
11
4.8012694
21
-6.3492446
0
LINE
8
layer0
10
4.8012694
20
-6.3492446
11
4.7913617
21
-6.3714607
0
LINE
8
layer0
10
4.7913617
20
-6.3714607
11
4.7845504
21
-6.3968225
0
LINE
8
layer0
10
4.7845504
20
-6.3968225
11
4.7809592
21
-6.4252129
0
LINE
8
layer0
10
4.7809592
20
-6.4252129
11
4.780721
21
-6.4564946
0
LINE
8
layer0
10
4.780721
20
-6.4564946
11
4.7839453
21
-6.4905493
0
LINE
8
layer0
10
4.7839453
20
-6.4905493
11
4.8012472
21
-6.5664438
0
LINE
8
layer0
10
4.8012472
20
-6.5664438
11
4.8337434
21
-6.6517807
0
LINE
8
layer0
10
4.8337434
20
-6.6517807
11
4.8822249
21
-6.7453871
0
LINE
8
layer0
10
4.8822249
20
-6.7453871
11
4.9587787
21
-6.8623675
0
LINE
8
layer0
10
4.9587787
20
-6.8623675
11
4.9918829
21
-6.9190104
0
LINE
8
layer0
10
4.9918829
20
-6.9190104
11
5.0452768
21
-7.0302169
0
LINE
8
layer0
10
5.0452768
20
-7.0302169
11
5.076511
21
-7.1066133
0
LINE
8
layer0
10
5.076511
20
-7.1066133
11
5.1105873
21
-7.2010676
0
LINE
8
layer0
10
5.1105873
20
-7.2010676
11
5.1445969
21
-7.3094282
0
LINE
8
layer0
10
5.1445969
20
-7.3094282
11
5.1778095
21
-7.4330651
0
LINE
8
layer0
10
5.1778095
20
-7.4330651
11
5.2095635
21
-7.5747526
0
LINE
8
layer0
10
5.2095635
20
-7.5747526
11
5.2374667
21
-7.7294618
0
LINE
8
layer0
10
5.2374667
20
-7.7294618
11
5.2610738
21
-7.9009867
0
LINE
8
layer0
10
5.2610738
20
-7.9009867
11
5.278869
21
-8.0879099
0
LINE
8
layer0
10
5.278869
20
-8.0879099
11
5.2896101
21
-8.2901511
0
LINE
8
layer0
10
5.2896101
20
-8.2901511
11
5.2920833
21
-8.4848983
0
ARC
8
layer0
10
-0.0000085
20
0.0000157
40
10
50
298.0479567
51
301.9520377
0
LINE
8
layer0
10
4.7020958
20
-8.8255277
11
4.5346764
21
-8.7260123
0
LINE
8
layer0
10
4.5346764
20
-8.7260123
11
4.3649009
21
-8.6155896
0
LINE
8
layer0
10
4.3649009
20
-8.6155896
11
4.2119183
21
-8.5067169
0
LINE
8
layer0
10
4.2119183
20
-8.5067169
11
4.0751769
21
-8.4005102
0
LINE
8
layer0
10
4.0751769
20
-8.4005102
11
3.9551465
21
-8.2989906
0
LINE
8
layer0
10
3.9551465
20
-8.2989906
11
3.8483185
21
-8.2006471
0
LINE
8
layer0
10
3.8483185
20
-8.2006471
11
3.757852
21
-8.1100657
0
LINE
8
layer0
10
3.757852
20
-8.1100657
11
3.6810138
21
-8.0264322
0
LINE
8
layer0
10
3.6810138
20
-8.0264322
11
3.6162522
21
-7.9496941
0
LINE
8
layer0
10
3.6162522
20
-7.9496941
11
3.565708
21
-7.8844463
0
LINE
8
layer0
10
3.565708
20
-7.8844463
11
3.4960973
21
-7.7826027
0
LINE
8
layer0
10
3.4960973
20
-7.7826027
11
3.4635953
21
-7.7256121
0
LINE
8
layer0
10
3.4635953
20
-7.7256121
11
3.4005641
21
-7.6008244
0
LINE
8
layer0
10
3.4005641
20
-7.6008244
11
3.3437394
21
-7.5120349
0
LINE
8
layer0
10
3.3437394
20
-7.5120349
11
3.2860836
21
-7.4412239
0
LINE
8
layer0
10
3.2860836
20
-7.4412239
11
3.229008
21
-7.3882928
0
LINE
8
layer0
10
3.229008
20
-7.3882928
11
3.2011279
21
-7.3684731
0
LINE
8
layer0
10
3.2011279
20
-7.3684731
11
3.173918
21
-7.3530386
0
LINE
8
layer0
10
3.173918
20
-7.3530386
11
3.1475356
21
-7.3419534
0
LINE
8
layer0
10
3.1475356
20
-7.3419534
11
3.122166
21
-7.3351713
0
LINE
8
layer0
10
3.122166
20
-7.3351713
11
3.0979724
21
-7.3326436
0
LINE
8
layer0
10
3.0979724
20
-7.3326436
11
3.075118
21
-7.3343214
0
LINE
8
layer0
10
3.075118
20
-7.3343214
11
3.0486822
21
-7.3422406
0
LINE
8
layer0
10
3.0486822
20
-7.3422406
11
2.7190601
21
-7.4705563
0
LINE
8
layer0
10
2.7190601
20
-7.4705563
11
2.3840752
21
-7.5841377
0
LINE
8
layer0
10
2.3840752
20
-7.5841377
11
2.3587339
21
-7.5950639
0
LINE
8
layer0
10
2.3587339
20
-7.5950639
11
2.3401479
21
-7.6084691
0
LINE
8
layer0
10
2.3401479
20
-7.6084691
11
2.3232393
21
-7.6259568
0
LINE
8
layer0
10
2.3232393
20
-7.6259568
11
2.3081645
21
-7.6474595
0
LINE
8
layer0
10
2.3081645
20
-7.6474595
11
2.2950799
21
-7.6729095
0
LINE
8
layer0
10
2.2950799
20
-7.6729095
11
2.284157
21
-7.7022232
0
LINE
8
layer0
10
2.284157
20
-7.7022232
11
2.2755395
21
-7.735327
0
LINE
8
layer0
10
2.2755395
20
-7.735327
11
2.2658405
21
-7.8125621
0
LINE
8
layer0
10
2.2658405
20
-7.8125621
11
2.26719
21
-7.9038669
0
LINE
8
layer0
10
2.26719
20
-7.9038669
11
2.2807325
21
-8.0084098
0
LINE
8
layer0
10
2.2807325
20
-8.0084098
11
2.3126598
21
-8.1445183
0
LINE
8
layer0
10
2.3126598
20
-8.1445183
11
2.3243946
21
-8.2090676
0
LINE
8
layer0
10
2.3243946
20
-8.2090676
11
2.3365336
21
-8.3318292
0
LINE
8
layer0
10
2.3365336
20
-8.3318292
11
2.339755
21
-8.4143011
0
LINE
8
layer0
10
2.339755
20
-8.4143011
11
2.339471
21
-8.5147139
0
LINE
8
layer0
10
2.339471
20
-8.5147139
11
2.3343681
21
-8.6281715
0
LINE
8
layer0
10
2.3343681
20
-8.6281715
11
2.3232913
21
-8.7557116
0
LINE
8
layer0
10
2.3232913
20
-8.7557116
11
2.3046704
21
-8.8997148
0
LINE
8
layer0
10
2.3046704
20
-8.8997148
11
2.2779772
21
-9.0546374
0
LINE
8
layer0
10
2.2779772
20
-9.0546374
11
2.2414956
21
-9.2238921
0
LINE
8
layer0
10
2.2414956
20
-9.2238921
11
2.1942861
21
-9.4056288
0
LINE
8
layer0
10
2.1942861
20
-9.4056288
11
2.1352089
21
-9.599347
0
LINE
8
layer0
10
2.1352089
20
-9.599347
11
2.0709255
21
-9.7831954
0
ARC
8
layer0
10
-0.0000037
20
0.0000174
40
10
50
278.0479631
51
281.9520441
0
LINE
8
layer0
10
1.4000165
20
-9.9014948
11
1.27673
21
-9.75072
0
LINE
8
layer0
10
1.27673
20
-9.75072
11
1.15496
21
-9.58889
0
LINE
8
layer0
10
1.15496
20
-9.58889
11
1.04844
21
-9.43426
0
LINE
8
layer0
10
1.04844
20
-9.43426
11
0.95627
21
-9.28769
0
LINE
8
layer0
10
0.95627
20
-9.28769
11
0.8782
21
-9.15124
0
LINE
8
layer0
10
0.8782
20
-9.15124
11
0.81145
21
-9.02229
0
LINE
8
layer0
10
0.81145
20
-9.02229
11
0.75742
21
-8.90623
0
LINE
8
layer0
10
0.75742
20
-8.90623
11
0.71382
21
-8.80136
0
LINE
8
layer0
10
0.71382
20
-8.80136
11
0.67921
21
-8.7071
0
LINE
8
layer0
10
0.67921
20
-8.7071
11
0.65403
21
-8.6285
0
LINE
8
layer0
10
0.65403
20
-8.6285
11
0.62345
21
-8.50899
0
LINE
8
layer0
10
0.62345
20
-8.50899
11
0.6124
21
-8.44432
0
LINE
8
layer0
10
0.6124
20
-8.44432
11
0.59585
21
-8.3055
0
LINE
8
layer0
10
0.59585
20
-8.3055
11
0.57282
21
-8.20263
0
LINE
8
layer0
10
0.57282
20
-8.20263
11
0.54286
21
-8.11637
0
LINE
8
layer0
10
0.54286
20
-8.11637
11
0.50733
21
-8.04711
0
LINE
8
layer0
10
0.50733
20
-8.04711
11
0.48791
21
-8.01895
0
LINE
8
layer0
10
0.48791
20
-8.01895
11
0.46762
21
-7.99514
0
LINE
8
layer0
10
0.46762
20
-7.99514
11
0.44662
21
-7.9757
0
LINE
8
layer0
10
0.44662
20
-7.9757
11
0.4251
21
-7.96065
0
LINE
8
layer0
10
0.4251
20
-7.96065
11
0.40323
21
-7.95
0
LINE
8
layer0
10
0.40323
20
-7.95
11
0.38118
21
-7.94376
0
LINE
8
layer0
10
0.38118
20
-7.94376
11
0.35363
21
-7.94216
0
LINE
8
layer0
10
0.35363
20
-7.94216
11
0
21
-7.95
0
LINE
8
layer0
10
0
20
-7.95
11
-0.35363
21
-7.94216
0
LINE
8
layer0
10
-0.35363
20
-7.94216
11
-0.38118
21
-7.94376
0
LINE
8
layer0
10
-0.38118
20
-7.94376
11
-0.40323
21
-7.95
0
LINE
8
layer0
10
-0.40323
20
-7.95
11
-0.4251
21
-7.96065
0
LINE
8
layer0
10
-0.4251
20
-7.96065
11
-0.44662
21
-7.9757
0
LINE
8
layer0
10
-0.44662
20
-7.9757
11
-0.46762
21
-7.99514
0
LINE
8
layer0
10
-0.46762
20
-7.99514
11
-0.48791
21
-8.01895
0
LINE
8
layer0
10
-0.48791
20
-8.01895
11
-0.50733
21
-8.04711
0
LINE
8
layer0
10
-0.50733
20
-8.04711
11
-0.54286
21
-8.11637
0
LINE
8
layer0
10
-0.54286
20
-8.11637
11
-0.57282
21
-8.20263
0
LINE
8
layer0
10
-0.57282
20
-8.20263
11
-0.59585
21
-8.3055
0
LINE
8
layer0
10
-0.59585
20
-8.3055
11
-0.6124
21
-8.44432
0
LINE
8
layer0
10
-0.6124
20
-8.44432
11
-0.62345
21
-8.50899
0
LINE
8
layer0
10
-0.62345
20
-8.50899
11
-0.65403
21
-8.6285
0
LINE
8
layer0
10
-0.65403
20
-8.6285
11
-0.67921
21
-8.7071
0
LINE
8
layer0
10
-0.67921
20
-8.7071
11
-0.71382
21
-8.80136
0
LINE
8
layer0
10
-0.71382
20
-8.80136
11
-0.75742
21
-8.90623
0
LINE
8
layer0
10
-0.75742
20
-8.90623
11
-0.81145
21
-9.02229
0
LINE
8
layer0
10
-0.81145
20
-9.02229
11
-0.8782
21
-9.15124
0
LINE
8
layer0
10
-0.8782
20
-9.15124
11
-0.95627
21
-9.28769
0
LINE
8
layer0
10
-0.95627
20
-9.28769
11
-1.04844
21
-9.43426
0
LINE
8
layer0
10
-1.04844
20
-9.43426
11
-1.15496
21
-9.58889
0
LINE
8
layer0
10
-1.15496
20
-9.58889
11
-1.27673
21
-9.75072
0
LINE
8
layer0
10
-1.27673
20
-9.75072
11
-1.4000165
21
-9.9014948
0
ARC
8
layer0
10
0.0000037
20
0.0000174
40
10
50
258.0479559
51
261.9520369
0
LINE
8
layer0
10
-2.0709255
20
-9.7831954
11
-2.1352089
21
-9.599347
0
LINE
8
layer0
10
-2.1352089
20
-9.599347
11
-2.1942861
21
-9.4056288
0
LINE
8
layer0
10
-2.1942861
20
-9.4056288
11
-2.2414956
21
-9.2238921
0
LINE
8
layer0
10
-2.2414956
20
-9.2238921
11
-2.2779772
21
-9.0546374
0
LINE
8
layer0
10
-2.2779772
20
-9.0546374
11
-2.3046704
21
-8.8997148
0
LINE
8
layer0
10
-2.3046704
20
-8.8997148
11
-2.3232913
21
-8.7557116
0
LINE
8
layer0
10
-2.3232913
20
-8.7557116
11
-2.3343681
21
-8.6281715
0
LINE
8
layer0
10
-2.3343681
20
-8.6281715
11
-2.339471
21
-8.5147139
0
LINE
8
layer0
10
-2.339471
20
-8.5147139
11
-2.339755
21
-8.4143011
0
LINE
8
layer0
10
-2.339755
20
-8.4143011
11
-2.3365336
21
-8.3318292
0
LINE
8
layer0
10
-2.3365336
20
-8.3318292
11
-2.3243946
21
-8.2090676
0
LINE
8
layer0
10
-2.3243946
20
-8.2090676
11
-2.3126598
21
-8.1445183
0
LINE
8
layer0
10
-2.3126598
20
-8.1445183
11
-2.2807325
21
-8.0084098
0
LINE
8
layer0
10
-2.2807325
20
-8.0084098
11
-2.26719
21
-7.9038669
0
LINE
8
layer0
10
-2.26719
20
-7.9038669
11
-2.2658405
21
-7.8125621
0
LINE
8
layer0
10
-2.2658405
20
-7.8125621
11
-2.2755395
21
-7.735327
0
LINE
8
layer0
10
-2.2755395
20
-7.735327
11
-2.284157
21
-7.7022232
0
LINE
8
layer0
10
-2.284157
20
-7.7022232
11
-2.2950799
21
-7.6729095
0
LINE
8
layer0
10
-2.2950799
20
-7.6729095
11
-2.3081645
21
-7.6474595
0
LINE
8
layer0
10
-2.3081645
20
-7.6474595
11
-2.3232393
21
-7.6259568
0
LINE
8
layer0
10
-2.3232393
20
-7.6259568
11
-2.3401479
21
-7.6084691
0
LINE
8
layer0
10
-2.3401479
20
-7.6084691
11
-2.3587339
21
-7.5950639
0
LINE
8
layer0
10
-2.3587339
20
-7.5950639
11
-2.3840752
21
-7.5841377
0
LINE
8
layer0
10
-2.3840752
20
-7.5841377
11
-2.7190601
21
-7.4705563
0
LINE
8
layer0
10
-2.7190601
20
-7.4705563
11
-3.0486822
21
-7.3422406
0
LINE
8
layer0
10
-3.0486822
20
-7.3422406
11
-3.075118
21
-7.3343214
0
LINE
8
layer0
10
-3.075118
20
-7.3343214
11
-3.0979724
21
-7.3326436
0
LINE
8
layer0
10
-3.0979724
20
-7.3326436
11
-3.122166
21
-7.3351713
0
LINE
8
layer0
10
-3.122166
20
-7.3351713
11
-3.1475356
21
-7.3419534
0
LINE
8
layer0
10
-3.1475356
20
-7.3419534
11
-3.173918
21
-7.3530386
0
LINE
8
layer0
10
-3.173918
20
-7.3530386
11
-3.2011279
21
-7.3684731
0
LINE
8
layer0
10
-3.2011279
20
-7.3684731
11
-3.229008
21
-7.3882928
0
LINE
8
layer0
10
-3.229008
20
-7.3882928
11
-3.2860836
21
-7.4412239
0
LINE
8
layer0
10
-3.2860836
20
-7.4412239
11
-3.3437394
21
-7.5120349
0
LINE
8
layer0
10
-3.3437394
20
-7.5120349
11
-3.4005641
21
-7.6008244
0
LINE
8
layer0
10
-3.4005641
20
-7.6008244
11
-3.4635953
21
-7.7256121
0
LINE
8
layer0
10
-3.4635953
20
-7.7256121
11
-3.4960973
21
-7.7826027
0
LINE
8
layer0
10
-3.4960973
20
-7.7826027
11
-3.565708
21
-7.8844463
0
LINE
8
layer0
10
-3.565708
20
-7.8844463
11
-3.6162522
21
-7.9496941
0
LINE
8
layer0
10
-3.6162522
20
-7.9496941
11
-3.6810138
21
-8.0264322
0
LINE
8
layer0
10
-3.6810138
20
-8.0264322
11
-3.757852
21
-8.1100657
0
LINE
8
layer0
10
-3.757852
20
-8.1100657
11
-3.8483185
21
-8.2006471
0
LINE
8
layer0
10
-3.8483185
20
-8.2006471
11
-3.9551465
21
-8.2989906
0
LINE
8
layer0
10
-3.9551465
20
-8.2989906
11
-4.0751769
21
-8.4005102
0
LINE
8
layer0
10
-4.0751769
20
-8.4005102
11
-4.2119183
21
-8.5067169
0
LINE
8
layer0
10
-4.2119183
20
-8.5067169
11
-4.3649009
21
-8.6155896
0
LINE
8
layer0
10
-4.3649009
20
-8.6155896
11
-4.5346764
21
-8.7260123
0
LINE
8
layer0
10
-4.5346764
20
-8.7260123
11
-4.7020958
21
-8.8255277
0
ARC
8
layer0
10
0.0000084
20
0.0000157
40
10
50
238.0479628
51
241.9520438
0
LINE
8
layer0
10
-5.2920833
20
-8.4848983
11
-5.2896101
21
-8.2901511
0
LINE
8
layer0
10
-5.2896101
20
-8.2901511
11
-5.278869
21
-8.0879099
0
LINE
8
layer0
10
-5.278869
20
-8.0879099
11
-5.2610738
21
-7.9009867
0
LINE
8
layer0
10
-5.2610738
20
-7.9009867
11
-5.2374667
21
-7.7294618
0
LINE
8
layer0
10
-5.2374667
20
-7.7294618
11
-5.2095635
21
-7.5747526
0
LINE
8
layer0
10
-5.2095635
20
-7.5747526
11
-5.1778095
21
-7.4330651
0
LINE
8
layer0
10
-5.1778095
20
-7.4330651
11
-5.1445969
21
-7.3094282
0
LINE
8
layer0
10
-5.1445969
20
-7.3094282
11
-5.1105873
21
-7.2010676
0
LINE
8
layer0
10
-5.1105873
20
-7.2010676
11
-5.076511
21
-7.1066133
0
LINE
8
layer0
10
-5.076511
20
-7.1066133
11
-5.0452768
21
-7.0302169
0
LINE
8
layer0
10
-5.0452768
20
-7.0302169
11
-4.9918829
21
-6.9190104
0
LINE
8
layer0
10
-4.9918829
20
-6.9190104
11
-4.9587787
21
-6.8623675
0
LINE
8
layer0
10
-4.9587787
20
-6.8623675
11
-4.8822249
21
-6.7453871
0
LINE
8
layer0
10
-4.8822249
20
-6.7453871
11
-4.8337434
21
-6.6517807
0
LINE
8
layer0
10
-4.8337434
20
-6.6517807
11
-4.8012472
21
-6.5664438
0
LINE
8
layer0
10
-4.8012472
20
-6.5664438
11
-4.7839453
21
-6.4905493
0
LINE
8
layer0
10
-4.7839453
20
-6.4905493
11
-4.780721
21
-6.4564946
0
LINE
8
layer0
10
-4.780721
20
-6.4564946
11
-4.7809592
21
-6.4252129
0
LINE
8
layer0
10
-4.7809592
20
-6.4252129
11
-4.7845504
21
-6.3968225
0
LINE
8
layer0
10
-4.7845504
20
-6.3968225
11
-4.7913617
21
-6.3714607
0
LINE
8
layer0
10
-4.7913617
20
-6.3714607
11
-4.8012694
21
-6.3492446
0
LINE
8
layer0
10
-4.8012694
20
-6.3492446
11
-4.8141497
21
-6.330291
0
LINE
8
layer0
10
-4.8141497
20
-6.330291
11
-4.8342257
21
-6.3113565
0
LINE
8
layer0
10
-4.8342257
20
-6.3113565
11
-5.1101615
21
-6.0900533
0
LINE
8
layer0
10
-5.1101615
20
-6.0900533
11
-5.3760183
21
-5.8567386
0
LINE
8
layer0
10
-5.3760183
20
-5.8567386
11
-5.3981513
21
-5.8402554
0
LINE
8
layer0
10
-5.3981513
20
-5.8402554
11
-5.4190536
21
-5.8308621
0
LINE
8
layer0
10
-5.4190536
20
-5.8308621
11
-5.4426527
21
-5.8249627
0
LINE
8
layer0
10
-5.4426527
20
-5.8249627
11
-5.4688119
21
-5.8226589
0
LINE
8
layer0
10
-5.4688119
20
-5.8226589
11
-5.4973946
21
-5.8240522
0
LINE
8
layer0
10
-5.4973946
20
-5.8240522
11
-5.5282424
21
-5.8292496
0
LINE
8
layer0
10
-5.5282424
20
-5.8292496
11
-5.5612199
21
-5.8383385
0
LINE
8
layer0
10
-5.5612199
20
-5.8383385
11
-5.632957
21
-5.8685565
0
LINE
8
layer0
10
-5.632957
20
-5.8685565
11
-5.7113545
21
-5.9153775
0
LINE
8
layer0
10
-5.7113545
20
-5.9153775
11
-5.7951201
21
-5.9793771
0
LINE
8
layer0
10
-5.7951201
20
-5.9793771
11
-5.8970299
21
-6.0750813
0
LINE
8
layer0
10
-5.8970299
20
-6.0750813
11
-5.9470638
21
-6.1175186
0
LINE
8
layer0
10
-5.9470638
20
-6.1175186
11
-6.0473089
21
-6.1894121
0
LINE
8
layer0
10
-6.0473089
20
-6.1894121
11
-6.117121
21
-6.2334378
0
LINE
8
layer0
10
-6.117121
20
-6.2334378
11
-6.204223
21
-6.2833983
0
LINE
8
layer0
10
-6.204223
20
-6.2833983
11
-6.3050317
21
-6.3357078
0
LINE
8
layer0
10
-6.3050317
20
-6.3357078
11
-6.421023
21
-6.3898851
0
LINE
8
layer0
10
-6.421023
20
-6.3898851
11
-6.5550439
21
-6.4457605
0
LINE
8
layer0
10
-6.5550439
20
-6.4457605
11
-6.7025574
21
-6.5001048
0
LINE
8
layer0
10
-6.7025574
20
-6.5001048
11
-6.8673771
21
-6.5531382
0
LINE
8
layer0
10
-6.8673771
20
-6.5531382
11
-7.0483704
21
-6.6031219
0
LINE
8
layer0
10
-7.0483704
20
-6.6031219
11
-7.2456739
21
-6.6488186
0
LINE
8
layer0
10
-7.2456739
20
-6.6488186
11
-7.437033
21
-6.6850718
0
ARC
8
layer0
10
0.0000135
20
0.0000116
40
10
50
218.0479604
51
221.9520417
0
LINE
8
layer0
10
-7.8749378
20
-6.1631972
11
-7.8060062
21
-5.9810406
0
LINE
8
layer0
10
-7.8060062
20
-5.9810406
11
-7.7267423
21
-5.7946697
0
LINE
8
layer0
10
-7.7267423
20
-5.7946697
11
-7.6460888
21
-5.6251057
0
LINE
8
layer0
10
-7.6460888
20
-5.6251057
11
-7.5652405
21
-5.4719991
0
LINE
8
layer0
10
-7.5652405
20
-5.4719991
11
-7.4861063
21
-5.3361635
0
LINE
8
layer0
10
-7.4861063
20
-5.3361635
11
-7.4078073
21
-5.2138813
0
LINE
8
layer0
10
-7.4078073
20
-5.2138813
11
-7.3343114
21
-5.10906
0
LINE
8
layer0
10
-7.3343114
20
-5.10906
11
-7.2652913
21
-5.0188663
0
LINE
8
layer0
10
-7.2652913
20
-5.0188663
11
-7.2009648
21
-4.9417631
0
LINE
8
layer0
10
-7.2009648
20
-4.9417631
11
-7.1454852
21
-4.8806566
0
LINE
8
layer0
10
-7.1454852
20
-4.8806566
11
-7.0572765
21
-4.7944185
0
LINE
8
layer0
10
-7.0572765
20
-4.7944185
11
-7.0067956
21
-4.752514
0
LINE
8
layer0
10
-7.0067956
20
-4.752514
11
-6.894849
21
-4.6687712
0
LINE
8
layer0
10
-6.894849
20
-4.6687712
11
-6.817276
21
-4.5973917
0
LINE
8
layer0
10
-6.817276
20
-4.5973917
11
-6.7575526
21
-4.5283156
0
LINE
8
layer0
10
-6.7575526
20
-4.5283156
11
-6.7153367
21
-4.4629157
0
LINE
8
layer0
10
-6.7153367
20
-4.4629157
11
-6.7006594
21
-4.4320175
0
LINE
8
layer0
10
-6.7006594
20
-4.4320175
11
-6.6901843
21
-4.4025408
0
LINE
8
layer0
10
-6.6901843
20
-4.4025408
11
-6.6838488
21
-4.3746343
0
LINE
8
layer0
10
-6.6838488
20
-4.3746343
11
-6.6815751
21
-4.3484724
0
LINE
8
layer0
10
-6.6815751
20
-4.3484724
11
-6.683287
21
-4.3242074
0
LINE
8
layer0
10
-6.683287
20
-4.3242074
11
-6.688908
21
-4.3019916
0
LINE
8
layer0
10
-6.688908
20
-4.3019916
11
-6.7012973
21
-4.2773326
0
LINE
8
layer0
10
-6.7012973
20
-4.2773326
11
-6.884902
21
-3.975
0
LINE
8
layer0
10
-6.884902
20
-3.975
11
-7.0549273
21
-3.6648274
0
LINE
8
layer0
10
-7.0549273
20
-3.6648274
11
-7.070088
21
-3.6417684
0
LINE
8
layer0
10
-7.070088
20
-3.6417684
11
-7.086517
21
-3.6257926
0
LINE
8
layer0
10
-7.086517
20
-3.6257926
11
-7.1066751
21
-3.6121776
0
LINE
8
layer0
10
-7.1066751
20
-3.6121776
11
-7.1304688
21
-3.6010657
0
LINE
8
layer0
10
-7.1304688
20
-3.6010657
11
-7.1578043
21
-3.5925992
0
LINE
8
layer0
10
-7.1578043
20
-3.5925992
11
-7.1885694
21
-3.5869325
0
LINE
8
layer0
10
-7.1885694
20
-3.5869325
11
-7.2226667
21
-3.5841943
0
LINE
8
layer0
10
-7.2226667
20
-3.5841943
11
-7.3004126
21
-3.5880544
0
LINE
8
layer0
10
-7.3004126
20
-3.5880544
11
-7.390096
21
-3.6052383
0
LINE
8
layer0
10
-7.390096
20
-3.6052383
11
-7.490699
21
-3.6367288
0
LINE
8
layer0
10
-7.490699
20
-3.6367288
11
-7.6191956
21
-3.691806
0
LINE
8
layer0
10
-7.6191956
20
-3.691806
11
-7.6807265
21
-3.7145715
0
LINE
8
layer0
10
-7.6807265
20
-3.7145715
11
-7.7995152
21
-3.7478434
0
LINE
8
layer0
10
-7.7995152
20
-3.7478434
11
-7.8801748
21
-3.7653369
0
LINE
8
layer0
10
-7.8801748
20
-3.7653369
11
-7.9791113
21
-3.7824937
0
LINE
8
layer0
10
-7.9791113
20
-3.7824937
11
-8.0917314
21
-3.79717
0
LINE
8
layer0
10
-8.0917314
20
-3.79717
11
-8.2192573
21
-3.8084087
0
LINE
8
layer0
10
-8.2192573
20
-3.8084087
11
-8.3643063
21
-3.8150765
0
LINE
8
layer0
10
-8.3643063
20
-3.8150765
11
-8.5215105
21
-3.8156909
0
LINE
8
layer0
10
-8.5215105
20
-3.8156909
11
-8.6945288
21
-3.8091543
0
LINE
8
layer0
10
-8.6945288
20
-3.8091543
11
-8.8817023
21
-3.7942203
0
LINE
8
layer0
10
-8.8817023
20
-3.7942203
11
-9.0827362
21
-3.7696794
0
LINE
8
layer0
10
-9.0827362
20
-3.7696794
11
-9.2749543
21
-3.7382976
0
ARC
8
layer0
10
0.0000165
20
0.0000063
40
10
50
198.0479608
51
201.9520423
0
LINE
8
layer0
10
-9.5079585
20
-3.0981236
11
-9.3808828
21
-2.9505284
0
LINE
8
layer0
10
-9.3808828
20
-2.9505284
11
-9.2426565
21
-2.8025068
0
LINE
8
layer0
10
-9.2426565
20
-2.8025068
11
-9.1088727
21
-2.6707539
0
LINE
8
layer0
10
-9.1088727
20
-2.6707539
11
-8.9805346
21
-2.5545326
0
LINE
8
layer0
10
-8.9805346
20
-2.5545326
11
-8.8597143
21
-2.4539543
0
LINE
8
layer0
10
-8.8597143
20
-2.4539543
11
-8.7443143
21
-2.3658265
0
LINE
8
layer0
10
-8.7443143
20
-2.3658265
11
-8.6393998
21
-2.2924637
0
LINE
8
layer0
10
-8.6393998
20
-2.2924637
11
-8.543694
21
-2.2313156
0
LINE
8
layer0
10
-8.543694
20
-2.2313156
11
-8.456876
21
-2.1808633
0
LINE
8
layer0
10
-8.456876
20
-2.1808633
11
-8.3838426
21
-2.1424171
0
LINE
8
layer0
10
-8.3838426
20
-2.1424171
11
-8.2714584
21
-2.091549
0
LINE
8
layer0
10
-8.2714584
20
-2.091549
11
-8.2096897
21
-2.069437
0
LINE
8
layer0
10
-8.2096897
20
-2.069437
11
-8.0758525
21
-2.0290326
0
LINE
8
layer0
10
-8.0758525
20
-2.0290326
11
-7.9785445
21
-1.9884893
0
LINE
8
layer0
10
-7.9785445
20
-1.9884893
11
-7.8987975
21
-1.9440056
0
LINE
8
layer0
10
-7.8987975
20
-1.9440056
11
-7.8367594
21
-1.8969885
0
LINE
8
layer0
10
-7.8367594
20
-1.8969885
11
-7.8123994
21
-1.8729736
0
LINE
8
layer0
10
-7.8123994
20
-1.8729736
11
-7.7924745
21
-1.8488573
0
LINE
8
layer0
10
-7.7924745
20
-1.8488573
11
-7.7769764
21
-1.8248006
0
LINE
8
layer0
10
-7.7769764
20
-1.8248006
11
-7.765892
21
-1.8009941
0
LINE
8
layer0
10
-7.765892
20
-1.8009941
11
-7.7592015
21
-1.777607
0
LINE
8
layer0
10
-7.7592015
20
-1.777607
11
-7.7568852
21
-1.7548085
0
LINE
8
layer0
10
-7.7568852
20
-1.7548085
11
-7.7600935
21
-1.7273992
0
LINE
8
layer0
10
-7.7600935
20
-1.7273992
11
-7.8292216
21
-1.380503
0
LINE
8
layer0
10
-7.8292216
20
-1.380503
11
-7.8829079
21
-1.030884
0
LINE
8
layer0
10
-7.8829079
20
-1.030884
11
-7.8892676
21
-1.0040304
0
LINE
8
layer0
10
-7.8892676
20
-1.0040304
11
-7.8992418
21
-0.983399
0
LINE
8
layer0
10
-7.8992418
20
-0.983399
11
-7.9135277
21
-0.9637106
0
LINE
8
layer0
10
-7.9135277
20
-0.9637106
11
-7.9320859
21
-0.9451309
0
LINE
8
layer0
10
-7.9320859
20
-0.9451309
11
-7.9548772
21
-0.9278257
0
LINE
8
layer0
10
-7.9548772
20
-0.9278257
11
-7.9818488
21
-0.9119785
0
LINE
8
layer0
10
-7.9818488
20
-0.9119785
11
-8.0129532
21
-0.8977435
0
LINE
8
layer0
10
-8.0129532
20
-0.8977435
11
-8.0873308
21
-0.8747801
0
LINE
8
layer0
10
-8.0873308
20
-0.8747801
11
-8.1774828
21
-0.8602542
0
LINE
8
layer0
10
-8.1774828
20
-0.8602542
11
-8.2827891
21
-0.8554372
0
LINE
8
layer0
10
-8.2827891
20
-0.8554372
11
-8.4223739
21
-0.8632445
0
LINE
8
layer0
10
-8.4223739
20
-0.8632445
11
-8.4879803
21
-0.8635922
0
LINE
8
layer0
10
-8.4879803
20
-0.8635922
11
-8.6109848
21
-0.8542295
0
LINE
8
layer0
10
-8.6109848
20
-0.8542295
11
-8.6927632
21
-0.8430808
0
LINE
8
layer0
10
-8.6927632
20
-0.8430808
11
-8.7916011
21
-0.8253647
0
LINE
8
layer0
10
-8.7916011
20
-0.8253647
11
-8.902449
21
-0.8006375
0
LINE
8
layer0
10
-8.902449
20
-0.8006375
11
-9.026128
21
-0.767582
0
LINE
8
layer0
10
-9.026128
20
-0.767582
11
-9.1647099
21
-0.724238
0
LINE
8
layer0
10
-9.1647099
20
-0.724238
11
-9.3126437
21
-0.6710483
0
LINE
8
layer0
10
-9.3126437
20
-0.6710483
11
-9.4729921
21
-0.6057302
0
LINE
8
layer0
10
-9.4729921
20
-0.6057302
11
-9.6437699
21
-0.5276797
0
LINE
8
layer0
10
-9.6437699
20
-0.5276797
11
-9.8242865
21
-0.4358612
0
LINE
8
layer0
10
-9.8242865
20
-0.4358612
11
-9.9941791
21
-0.3406294
0
ARC
8
layer0
10
0.0000178
20
1e-7
40
10
50
178.0479597
51
181.9520409
0
LINE
8
layer0
10
-9.9941791
20
0.3406294
11
-9.8242865
21
0.4358612
0
LINE
8
layer0
10
-9.8242865
20
0.4358612
11
-9.6437699
21
0.5276797
0
LINE
8
layer0
10
-9.6437699
20
0.5276797
11
-9.4729921
21
0.6057302
0
LINE
8
layer0
10
-9.4729921
20
0.6057302
11
-9.3126437
21
0.6710483
0
LINE
8
layer0
10
-9.3126437
20
0.6710483
11
-9.1647099
21
0.724238
0
LINE
8
layer0
10
-9.1647099
20
0.724238
11
-9.026128
21
0.767582
0
LINE
8
layer0
10
-9.026128
20
0.767582
11
-8.902449
21
0.8006375
0
LINE
8
layer0
10
-8.902449
20
0.8006375
11
-8.7916011
21
0.8253647
0
LINE
8
layer0
10
-8.7916011
20
0.8253647
11
-8.6927632
21
0.8430808
0
LINE
8
layer0
10
-8.6927632
20
0.8430808
11
-8.6109848
21
0.8542295
0
LINE
8
layer0
10
-8.6109848
20
0.8542295
11
-8.4879803
21
0.8635922
0
LINE
8
layer0
10
-8.4879803
20
0.8635922
11
-8.4223739
21
0.8632445
0
LINE
8
layer0
10
-8.4223739
20
0.8632445
11
-8.2827891
21
0.8554372
0
LINE
8
layer0
10
-8.2827891
20
0.8554372
11
-8.1774828
21
0.8602542
0
LINE
8
layer0
10
-8.1774828
20
0.8602542
11
-8.0873308
21
0.8747801
0
LINE
8
layer0
10
-8.0873308
20
0.8747801
11
-8.0129532
21
0.8977435
0
LINE
8
layer0
10
-8.0129532
20
0.8977435
11
-7.9818488
21
0.9119785
0
LINE
8
layer0
10
-7.9818488
20
0.9119785
11
-7.9548772
21
0.9278257
0
LINE
8
layer0
10
-7.9548772
20
0.9278257
11
-7.9320859
21
0.9451309
0
LINE
8
layer0
10
-7.9320859
20
0.9451309
11
-7.9135277
21
0.9637106
0
LINE
8
layer0
10
-7.9135277
20
0.9637106
11
-7.8992418
21
0.983399
0
LINE
8
layer0
10
-7.8992418
20
0.983399
11
-7.8892676
21
1.0040304
0
LINE
8
layer0
10
-7.8892676
20
1.0040304
11
-7.8829079
21
1.030884
0
LINE
8
layer0
10
-7.8829079
20
1.030884
11
-7.8292216
21
1.380503
0
LINE
8
layer0
10
-7.8292216
20
1.380503
11
-7.7600935
21
1.7273992
0
LINE
8
layer0
10
-7.7600935
20
1.7273992
11
-7.7568852
21
1.7548085
0
LINE
8
layer0
10
-7.7568852
20
1.7548085
11
-7.7592015
21
1.777607
0
LINE
8
layer0
10
-7.7592015
20
1.777607
11
-7.765892
21
1.8009941
0
LINE
8
layer0
10
-7.765892
20
1.8009941
11
-7.7769764
21
1.8248006
0
LINE
8
layer0
10
-7.7769764
20
1.8248006
11
-7.7924745
21
1.8488573
0
LINE
8
layer0
10
-7.7924745
20
1.8488573
11
-7.8123994
21
1.8729736
0
LINE
8
layer0
10
-7.8123994
20
1.8729736
11
-7.8367594
21
1.8969885
0
LINE
8
layer0
10
-7.8367594
20
1.8969885
11
-7.8987975
21
1.9440056
0
LINE
8
layer0
10
-7.8987975
20
1.9440056
11
-7.9785445
21
1.9884893
0
LINE
8
layer0
10
-7.9785445
20
1.9884893
11
-8.0758525
21
2.0290326
0
LINE
8
layer0
10
-8.0758525
20
2.0290326
11
-8.2096897
21
2.069437
0
LINE
8
layer0
10
-8.2096897
20
2.069437
11
-8.2714584
21
2.091549
0
LINE
8
layer0
10
-8.2714584
20
2.091549
11
-8.3838426
21
2.1424171
0
LINE
8
layer0
10
-8.3838426
20
2.1424171
11
-8.456876
21
2.1808633
0
LINE
8
layer0
10
-8.456876
20
2.1808633
11
-8.543694
21
2.2313156
0
LINE
8
layer0
10
-8.543694
20
2.2313156
11
-8.6393998
21
2.2924637
0
LINE
8
layer0
10
-8.6393998
20
2.2924637
11
-8.7443143
21
2.3658265
0
LINE
8
layer0
10
-8.7443143
20
2.3658265
11
-8.8597143
21
2.4539543
0
LINE
8
layer0
10
-8.8597143
20
2.4539543
11
-8.9805346
21
2.5545326
0
LINE
8
layer0
10
-8.9805346
20
2.5545326
11
-9.1088727
21
2.6707539
0
LINE
8
layer0
10
-9.1088727
20
2.6707539
11
-9.2426565
21
2.8025068
0
LINE
8
layer0
10
-9.2426565
20
2.8025068
11
-9.3808828
21
2.9505284
0
LINE
8
layer0
10
-9.3808828
20
2.9505284
11
-9.5079585
21
3.0981236
0
ARC
8
layer0
10
0.0000166
20
-0.0000063
40
10
50
158.0479577
51
161.9520392
0
LINE
8
layer0
10
-9.2749543
20
3.7382976
11
-9.0827362
21
3.7696794
0
LINE
8
layer0
10
-9.0827362
20
3.7696794
11
-8.8817023
21
3.7942203
0
LINE
8
layer0
10
-8.8817023
20
3.7942203
11
-8.6945288
21
3.8091543
0
LINE
8
layer0
10
-8.6945288
20
3.8091543
11
-8.5215105
21
3.8156909
0
LINE
8
layer0
10
-8.5215105
20
3.8156909
11
-8.3643063
21
3.8150765
0
LINE
8
layer0
10
-8.3643063
20
3.8150765
11
-8.2192573
21
3.8084087
0
LINE
8
layer0
10
-8.2192573
20
3.8084087
11
-8.0917314
21
3.79717
0
LINE
8
layer0
10
-8.0917314
20
3.79717
11
-7.9791113
21
3.7824937
0
LINE
8
layer0
10
-7.9791113
20
3.7824937
11
-7.8801748
21
3.7653369
0
LINE
8
layer0
10
-7.8801748
20
3.7653369
11
-7.7995152
21
3.7478434
0
LINE
8
layer0
10
-7.7995152
20
3.7478434
11
-7.6807265
21
3.7145715
0
LINE
8
layer0
10
-7.6807265
20
3.7145715
11
-7.6191956
21
3.691806
0
LINE
8
layer0
10
-7.6191956
20
3.691806
11
-7.490699
21
3.6367288
0
LINE
8
layer0
10
-7.490699
20
3.6367288
11
-7.390096
21
3.6052383
0
LINE
8
layer0
10
-7.390096
20
3.6052383
11
-7.3004126
21
3.5880544
0
LINE
8
layer0
10
-7.3004126
20
3.5880544
11
-7.2226667
21
3.5841943
0
LINE
8
layer0
10
-7.2226667
20
3.5841943
11
-7.1885694
21
3.5869325
0
LINE
8
layer0
10
-7.1885694
20
3.5869325
11
-7.1578043
21
3.5925992
0
LINE
8
layer0
10
-7.1578043
20
3.5925992
11
-7.1304688
21
3.6010657
0
LINE
8
layer0
10
-7.1304688
20
3.6010657
11
-7.1066751
21
3.6121776
0
LINE
8
layer0
10
-7.1066751
20
3.6121776
11
-7.086517
21
3.6257926
0
LINE
8
layer0
10
-7.086517
20
3.6257926
11
-7.070088
21
3.6417684
0
LINE
8
layer0
10
-7.070088
20
3.6417684
11
-7.0549273
21
3.6648274
0
LINE
8
layer0
10
-7.0549273
20
3.6648274
11
-6.884902
21
3.975
0
LINE
8
layer0
10
-6.884902
20
3.975
11
-6.7012973
21
4.2773326
0
LINE
8
layer0
10
-6.7012973
20
4.2773326
11
-6.688908
21
4.3019916
0
LINE
8
layer0
10
-6.688908
20
4.3019916
11
-6.683287
21
4.3242074
0
LINE
8
layer0
10
-6.683287
20
4.3242074
11
-6.6815751
21
4.3484724
0
LINE
8
layer0
10
-6.6815751
20
4.3484724
11
-6.6838488
21
4.3746343
0
LINE
8
layer0
10
-6.6838488
20
4.3746343
11
-6.6901843
21
4.4025408
0
LINE
8
layer0
10
-6.6901843
20
4.4025408
11
-6.7006594
21
4.4320175
0
LINE
8
layer0
10
-6.7006594
20
4.4320175
11
-6.7153367
21
4.4629157
0
LINE
8
layer0
10
-6.7153367
20
4.4629157
11
-6.7575526
21
4.5283156
0
LINE
8
layer0
10
-6.7575526
20
4.5283156
11
-6.817276
21
4.5973917
0
LINE
8
layer0
10
-6.817276
20
4.5973917
11
-6.894849
21
4.6687712
0
LINE
8
layer0
10
-6.894849
20
4.6687712
11
-7.0067956
21
4.752514
0
LINE
8
layer0
10
-7.0067956
20
4.752514
11
-7.0572765
21
4.7944185
0
LINE
8
layer0
10
-7.0572765
20
4.7944185
11
-7.1454852
21
4.8806566
0
LINE
8
layer0
10
-7.1454852
20
4.8806566
11
-7.2009648
21
4.9417631
0
LINE
8
layer0
10
-7.2009648
20
4.9417631
11
-7.2652913
21
5.0188663
0
LINE
8
layer0
10
-7.2652913
20
5.0188663
11
-7.3343114
21
5.10906
0
LINE
8
layer0
10
-7.3343114
20
5.10906
11
-7.4078073
21
5.2138813
0
LINE
8
layer0
10
-7.4078073
20
5.2138813
11
-7.4861063
21
5.3361635
0
LINE
8
layer0
10
-7.4861063
20
5.3361635
11
-7.5652405
21
5.4719991
0
LINE
8
layer0
10
-7.5652405
20
5.4719991
11
-7.6460888
21
5.6251057
0
LINE
8
layer0
10
-7.6460888
20
5.6251057
11
-7.7267423
21
5.7946697
0
LINE
8
layer0
10
-7.7267423
20
5.7946697
11
-7.8060062
21
5.9810406
0
LINE
8
layer0
10
-7.8060062
20
5.9810406
11
-7.8749378
21
6.1631972
0
ARC
8
layer0
10
0.0000135
20
-0.0000116
40
10
50
138.0479583
51
141.9520396
0
LINE
8
layer0
10
-7.437033
20
6.6850718
11
-7.2456739
21
6.6488186
0
LINE
8
layer0
10
-7.2456739
20
6.6488186
11
-7.0483704
21
6.6031219
0
LINE
8
layer0
10
-7.0483704
20
6.6031219
11
-6.8673771
21
6.5531382
0
LINE
8
layer0
10
-6.8673771
20
6.5531382
11
-6.7025574
21
6.5001048
0
LINE
8
layer0
10
-6.7025574
20
6.5001048
11
-6.5550439
21
6.4457605
0
LINE
8
layer0
10
-6.5550439
20
6.4457605
11
-6.421023
21
6.3898851
0
LINE
8
layer0
10
-6.421023
20
6.3898851
11
-6.3050317
21
6.3357078
0
LINE
8
layer0
10
-6.3050317
20
6.3357078
11
-6.204223
21
6.2833983
0
LINE
8
layer0
10
-6.204223
20
6.2833983
11
-6.117121
21
6.2334378
0
LINE
8
layer0
10
-6.117121
20
6.2334378
11
-6.0473089
21
6.1894121
0
LINE
8
layer0
10
-6.0473089
20
6.1894121
11
-5.9470638
21
6.1175186
0
LINE
8
layer0
10
-5.9470638
20
6.1175186
11
-5.8970299
21
6.0750813
0
LINE
8
layer0
10
-5.8970299
20
6.0750813
11
-5.7951201
21
5.9793771
0
LINE
8
layer0
10
-5.7951201
20
5.9793771
11
-5.7113545
21
5.9153775
0
LINE
8
layer0
10
-5.7113545
20
5.9153775
11
-5.632957
21
5.8685565
0
LINE
8
layer0
10
-5.632957
20
5.8685565
11
-5.5612199
21
5.8383385
0
LINE
8
layer0
10
-5.5612199
20
5.8383385
11
-5.5282424
21
5.8292496
0
LINE
8
layer0
10
-5.5282424
20
5.8292496
11
-5.4973946
21
5.8240522
0
LINE
8
layer0
10
-5.4973946
20
5.8240522
11
-5.4688119
21
5.8226589
0
LINE
8
layer0
10
-5.4688119
20
5.8226589
11
-5.4426527
21
5.8249627
0
LINE
8
layer0
10
-5.4426527
20
5.8249627
11
-5.4190536
21
5.8308621
0
LINE
8
layer0
10
-5.4190536
20
5.8308621
11
-5.3981513
21
5.8402554
0
LINE
8
layer0
10
-5.3981513
20
5.8402554
11
-5.3760183
21
5.8567386
0
LINE
8
layer0
10
-5.3760183
20
5.8567386
11
-5.1101615
21
6.0900533
0
LINE
8
layer0
10
-5.1101615
20
6.0900533
11
-4.8342257
21
6.3113565
0
LINE
8
layer0
10
-4.8342257
20
6.3113565
11
-4.8141497
21
6.330291
0
LINE
8
layer0
10
-4.8141497
20
6.330291
11
-4.8012694
21
6.3492446
0
LINE
8
layer0
10
-4.8012694
20
6.3492446
11
-4.7913617
21
6.3714607
0
LINE
8
layer0
10
-4.7913617
20
6.3714607
11
-4.7845504
21
6.3968225
0
LINE
8
layer0
10
-4.7845504
20
6.3968225
11
-4.7809592
21
6.4252129
0
LINE
8
layer0
10
-4.7809592
20
6.4252129
11
-4.780721
21
6.4564946
0
LINE
8
layer0
10
-4.780721
20
6.4564946
11
-4.7839453
21
6.4905493
0
LINE
8
layer0
10
-4.7839453
20
6.4905493
11
-4.8012472
21
6.5664438
0
LINE
8
layer0
10
-4.8012472
20
6.5664438
11
-4.8337434
21
6.6517807
0
LINE
8
layer0
10
-4.8337434
20
6.6517807
11
-4.8822249
21
6.7453871
0
LINE
8
layer0
10
-4.8822249
20
6.7453871
11
-4.9587787
21
6.8623675
0
LINE
8
layer0
10
-4.9587787
20
6.8623675
11
-4.9918829
21
6.9190104
0
LINE
8
layer0
10
-4.9918829
20
6.9190104
11
-5.0452768
21
7.0302169
0
LINE
8
layer0
10
-5.0452768
20
7.0302169
11
-5.076511
21
7.1066133
0
LINE
8
layer0
10
-5.076511
20
7.1066133
11
-5.1105873
21
7.2010676
0
LINE
8
layer0
10
-5.1105873
20
7.2010676
11
-5.1445969
21
7.3094282
0
LINE
8
layer0
10
-5.1445969
20
7.3094282
11
-5.1778095
21
7.4330651
0
LINE
8
layer0
10
-5.1778095
20
7.4330651
11
-5.2095635
21
7.5747526
0
LINE
8
layer0
10
-5.2095635
20
7.5747526
11
-5.2374667
21
7.7294618
0
LINE
8
layer0
10
-5.2374667
20
7.7294618
11
-5.2610738
21
7.9009867
0
LINE
8
layer0
10
-5.2610738
20
7.9009867
11
-5.278869
21
8.0879099
0
LINE
8
layer0
10
-5.278869
20
8.0879099
11
-5.2896101
21
8.2901511
0
LINE
8
layer0
10
-5.2896101
20
8.2901511
11
-5.2920833
21
8.4848983
0
ARC
8
layer0
10
0.0000085
20
-0.0000157
40
10
50
118.0479567
51
121.9520377
0
LINE
8
layer0
10
-4.7020958
20
8.8255277
11
-4.5346764
21
8.7260123
0
LINE
8
layer0
10
-4.5346764
20
8.7260123
11
-4.3649009
21
8.6155896
0
LINE
8
layer0
10
-4.3649009
20
8.6155896
11
-4.2119183
21
8.5067169
0
LINE
8
layer0
10
-4.2119183
20
8.5067169
11
-4.0751769
21
8.4005102
0
LINE
8
layer0
10
-4.0751769
20
8.4005102
11
-3.9551465
21
8.2989906
0
LINE
8
layer0
10
-3.9551465
20
8.2989906
11
-3.8483185
21
8.2006471
0
LINE
8
layer0
10
-3.8483185
20
8.2006471
11
-3.757852
21
8.1100657
0
LINE
8
layer0
10
-3.757852
20
8.1100657
11
-3.6810138
21
8.0264322
0
LINE
8
layer0
10
-3.6810138
20
8.0264322
11
-3.6162522
21
7.9496941
0
LINE
8
layer0
10
-3.6162522
20
7.9496941
11
-3.565708
21
7.8844463
0
LINE
8
layer0
10
-3.565708
20
7.8844463
11
-3.4960973
21
7.7826027
0
LINE
8
layer0
10
-3.4960973
20
7.7826027
11
-3.4635953
21
7.7256121
0
LINE
8
layer0
10
-3.4635953
20
7.7256121
11
-3.4005641
21
7.6008244
0
LINE
8
layer0
10
-3.4005641
20
7.6008244
11
-3.3437394
21
7.5120349
0
LINE
8
layer0
10
-3.3437394
20
7.5120349
11
-3.2860836
21
7.4412239
0
LINE
8
layer0
10
-3.2860836
20
7.4412239
11
-3.229008
21
7.3882928
0
LINE
8
layer0
10
-3.229008
20
7.3882928
11
-3.2011279
21
7.3684731
0
LINE
8
layer0
10
-3.2011279
20
7.3684731
11
-3.173918
21
7.3530386
0
LINE
8
layer0
10
-3.173918
20
7.3530386
11
-3.1475356
21
7.3419534
0
LINE
8
layer0
10
-3.1475356
20
7.3419534
11
-3.122166
21
7.3351713
0
LINE
8
layer0
10
-3.122166
20
7.3351713
11
-3.0979724
21
7.3326436
0
LINE
8
layer0
10
-3.0979724
20
7.3326436
11
-3.075118
21
7.3343214
0
LINE
8
layer0
10
-3.075118
20
7.3343214
11
-3.0486822
21
7.3422406
0
LINE
8
layer0
10
-3.0486822
20
7.3422406
11
-2.7190601
21
7.4705563
0
LINE
8
layer0
10
-2.7190601
20
7.4705563
11
-2.3840752
21
7.5841377
0
LINE
8
layer0
10
-2.3840752
20
7.5841377
11
-2.3587339
21
7.5950639
0
LINE
8
layer0
10
-2.3587339
20
7.5950639
11
-2.3401479
21
7.6084691
0
LINE
8
layer0
10
-2.3401479
20
7.6084691
11
-2.3232393
21
7.6259568
0
LINE
8
layer0
10
-2.3232393
20
7.6259568
11
-2.3081645
21
7.6474595
0
LINE
8
layer0
10
-2.3081645
20
7.6474595
11
-2.2950799
21
7.6729095
0
LINE
8
layer0
10
-2.2950799
20
7.6729095
11
-2.284157
21
7.7022232
0
LINE
8
layer0
10
-2.284157
20
7.7022232
11
-2.2755395
21
7.735327
0
LINE
8
layer0
10
-2.2755395
20
7.735327
11
-2.2658405
21
7.8125621
0
LINE
8
layer0
10
-2.2658405
20
7.8125621
11
-2.26719
21
7.9038669
0
LINE
8
layer0
10
-2.26719
20
7.9038669
11
-2.2807325
21
8.0084098
0
LINE
8
layer0
10
-2.2807325
20
8.0084098
11
-2.3126598
21
8.1445183
0
LINE
8
layer0
10
-2.3126598
20
8.1445183
11
-2.3243946
21
8.2090676
0
LINE
8
layer0
10
-2.3243946
20
8.2090676
11
-2.3365336
21
8.3318292
0
LINE
8
layer0
10
-2.3365336
20
8.3318292
11
-2.339755
21
8.4143011
0
LINE
8
layer0
10
-2.339755
20
8.4143011
11
-2.339471
21
8.5147139
0
LINE
8
layer0
10
-2.339471
20
8.5147139
11
-2.3343681
21
8.6281715
0
LINE
8
layer0
10
-2.3343681
20
8.6281715
11
-2.3232913
21
8.7557116
0
LINE
8
layer0
10
-2.3232913
20
8.7557116
11
-2.3046704
21
8.8997148
0
LINE
8
layer0
10
-2.3046704
20
8.8997148
11
-2.2779772
21
9.0546374
0
LINE
8
layer0
10
-2.2779772
20
9.0546374
11
-2.2414956
21
9.2238921
0
LINE
8
layer0
10
-2.2414956
20
9.2238921
11
-2.1942861
21
9.4056288
0
LINE
8
layer0
10
-2.1942861
20
9.4056288
11
-2.1352089
21
9.599347
0
LINE
8
layer0
10
-2.1352089
20
9.599347
11
-2.0709255
21
9.7831954
0
ARC
8
layer0
10
0.0000037
20
-0.0000174
40
10
50
98.0479631
51
101.9520441
0
LINE
8
layer0
10
-1.4000165
20
9.9014948
11
-1.27673
21
9.75072
0
LINE
8
layer0
10
-1.27673
20
9.75072
11
-1.15496
21
9.58889
0
LINE
8
layer0
10
-1.15496
20
9.58889
11
-1.04844
21
9.43426
0
LINE
8
layer0
10
-1.04844
20
9.43426
11
-0.95627
21
9.28769
0
LINE
8
layer0
10
-0.95627
20
9.28769
11
-0.8782
21
9.15124
0
LINE
8
layer0
10
-0.8782
20
9.15124
11
-0.81145
21
9.02229
0
LINE
8
layer0
10
-0.81145
20
9.02229
11
-0.75742
21
8.90623
0
LINE
8
layer0
10
-0.75742
20
8.90623
11
-0.71382
21
8.80136
0
LINE
8
layer0
10
-0.71382
20
8.80136
11
-0.67921
21
8.7071
0
LINE
8
layer0
10
-0.67921
20
8.7071
11
-0.65403
21
8.6285
0
LINE
8
layer0
10
-0.65403
20
8.6285
11
-0.62345
21
8.50899
0
LINE
8
layer0
10
-0.62345
20
8.50899
11
-0.6124
21
8.44432
0
LINE
8
layer0
10
-0.6124
20
8.44432
11
-0.59585
21
8.3055
0
LINE
8
layer0
10
-0.59585
20
8.3055
11
-0.57282
21
8.20263
0
LINE
8
layer0
10
-0.57282
20
8.20263
11
-0.54286
21
8.11637
0
LINE
8
layer0
10
-0.54286
20
8.11637
11
-0.50733
21
8.04711
0
LINE
8
layer0
10
-0.50733
20
8.04711
11
-0.48791
21
8.01895
0
LINE
8
layer0
10
-0.48791
20
8.01895
11
-0.46762
21
7.99514
0
LINE
8
layer0
10
-0.46762
20
7.99514
11
-0.44662
21
7.9757
0
LINE
8
layer0
10
-0.44662
20
7.9757
11
-0.4251
21
7.96065
0
LINE
8
layer0
10
-0.4251
20
7.96065
11
-0.40323
21
7.95
0
LINE
8
layer0
10
-0.40323
20
7.95
11
-0.38118
21
7.94376
0
LINE
8
layer0
10
-0.38118
20
7.94376
11
-0.35363
21
7.94216
0
LINE
8
layer0
10
-0.35363
20
7.94216
11
0
21
7.95
0
LINE
8
layer0
10
0
20
7.95
11
0.35363
21
7.94216
0
LINE
8
layer0
10
0.35363
20
7.94216
11
0.38118
21
7.94376
0
LINE
8
layer0
10
0.38118
20
7.94376
11
0.40323
21
7.95
0
LINE
8
layer0
10
0.40323
20
7.95
11
0.4251
21
7.96065
0
LINE
8
layer0
10
0.4251
20
7.96065
11
0.44662
21
7.9757
0
LINE
8
layer0
10
0.44662
20
7.9757
11
0.46762
21
7.99514
0
LINE
8
layer0
10
0.46762
20
7.99514
11
0.48791
21
8.01895
0
LINE
8
layer0
10
0.48791
20
8.01895
11
0.50733
21
8.04711
0
LINE
8
layer0
10
0.50733
20
8.04711
11
0.54286
21
8.11637
0
LINE
8
layer0
10
0.54286
20
8.11637
11
0.57282
21
8.20263
0
LINE
8
layer0
10
0.57282
20
8.20263
11
0.59585
21
8.3055
0
LINE
8
layer0
10
0.59585
20
8.3055
11
0.6124
21
8.44432
0
LINE
8
layer0
10
0.6124
20
8.44432
11
0.62345
21
8.50899
0
LINE
8
layer0
10
0.62345
20
8.50899
11
0.65403
21
8.6285
0
LINE
8
layer0
10
0.65403
20
8.6285
11
0.67921
21
8.7071
0
LINE
8
layer0
10
0.67921
20
8.7071
11
0.71382
21
8.80136
0
LINE
8
layer0
10
0.71382
20
8.80136
11
0.75742
21
8.90623
0
LINE
8
layer0
10
0.75742
20
8.90623
11
0.81145
21
9.02229
0
LINE
8
layer0
10
0.81145
20
9.02229
11
0.8782
21
9.15124
0
LINE
8
layer0
10
0.8782
20
9.15124
11
0.95627
21
9.28769
0
LINE
8
layer0
10
0.95627
20
9.28769
11
1.04844
21
9.43426
0
LINE
8
layer0
10
1.04844
20
9.43426
11
1.15496
21
9.58889
0
LINE
8
layer0
10
1.15496
20
9.58889
11
1.27673
21
9.75072
0
LINE
8
layer0
10
1.27673
20
9.75072
11
1.4000165
21
9.9014948
0
ARC
8
layer0
10
-0.0000037
20
-0.0000174
40
10
50
78.0479559
51
81.9520369
0
LINE
8
layer0
10
2.0709255
20
9.7831954
11
2.1352089
21
9.599347
0
LINE
8
layer0
10
2.1352089
20
9.599347
11
2.1942861
21
9.4056288
0
LINE
8
layer0
10
2.1942861
20
9.4056288
11
2.2414956
21
9.2238921
0
LINE
8
layer0
10
2.2414956
20
9.2238921
11
2.2779772
21
9.0546374
0
LINE
8
layer0
10
2.2779772
20
9.0546374
11
2.3046704
21
8.8997148
0
LINE
8
layer0
10
2.3046704
20
8.8997148
11
2.3232913
21
8.7557116
0
LINE
8
layer0
10
2.3232913
20
8.7557116
11
2.3343681
21
8.6281715
0
LINE
8
layer0
10
2.3343681
20
8.6281715
11
2.339471
21
8.5147139
0
LINE
8
layer0
10
2.339471
20
8.5147139
11
2.339755
21
8.4143011
0
LINE
8
layer0
10
2.339755
20
8.4143011
11
2.3365336
21
8.3318292
0
LINE
8
layer0
10
2.3365336
20
8.3318292
11
2.3243946
21
8.2090676
0
LINE
8
layer0
10
2.3243946
20
8.2090676
11
2.3126598
21
8.1445183
0
LINE
8
layer0
10
2.3126598
20
8.1445183
11
2.2807325
21
8.0084098
0
LINE
8
layer0
10
2.2807325
20
8.0084098
11
2.26719
21
7.9038669
0
LINE
8
layer0
10
2.26719
20
7.9038669
11
2.2658405
21
7.8125621
0
LINE
8
layer0
10
2.2658405
20
7.8125621
11
2.2755395
21
7.735327
0
LINE
8
layer0
10
2.2755395
20
7.735327
11
2.284157
21
7.7022232
0
LINE
8
layer0
10
2.284157
20
7.7022232
11
2.2950799
21
7.6729095
0
LINE
8
layer0
10
2.2950799
20
7.6729095
11
2.3081645
21
7.6474595
0
LINE
8
layer0
10
2.3081645
20
7.6474595
11
2.3232393
21
7.6259568
0
LINE
8
layer0
10
2.3232393
20
7.6259568
11
2.3401479
21
7.6084691
0
LINE
8
layer0
10
2.3401479
20
7.6084691
11
2.3587339
21
7.5950639
0
LINE
8
layer0
10
2.3587339
20
7.5950639
11
2.3840752
21
7.5841377
0
LINE
8
layer0
10
2.3840752
20
7.5841377
11
2.7190601
21
7.4705563
0
LINE
8
layer0
10
2.7190601
20
7.4705563
11
3.0486822
21
7.3422406
0
LINE
8
layer0
10
3.0486822
20
7.3422406
11
3.075118
21
7.3343214
0
LINE
8
layer0
10
3.075118
20
7.3343214
11
3.0979724
21
7.3326436
0
LINE
8
layer0
10
3.0979724
20
7.3326436
11
3.122166
21
7.3351713
0
LINE
8
layer0
10
3.122166
20
7.3351713
11
3.1475356
21
7.3419534
0
LINE
8
layer0
10
3.1475356
20
7.3419534
11
3.173918
21
7.3530386
0
LINE
8
layer0
10
3.173918
20
7.3530386
11
3.2011279
21
7.3684731
0
LINE
8
layer0
10
3.2011279
20
7.3684731
11
3.229008
21
7.3882928
0
LINE
8
layer0
10
3.229008
20
7.3882928
11
3.2860836
21
7.4412239
0
LINE
8
layer0
10
3.2860836
20
7.4412239
11
3.3437394
21
7.5120349
0
LINE
8
layer0
10
3.3437394
20
7.5120349
11
3.4005641
21
7.6008244
0
LINE
8
layer0
10
3.4005641
20
7.6008244
11
3.4635953
21
7.7256121
0
LINE
8
layer0
10
3.4635953
20
7.7256121
11
3.4960973
21
7.7826027
0
LINE
8
layer0
10
3.4960973
20
7.7826027
11
3.565708
21
7.8844463
0
LINE
8
layer0
10
3.565708
20
7.8844463
11
3.6162522
21
7.9496941
0
LINE
8
layer0
10
3.6162522
20
7.9496941
11
3.6810138
21
8.0264322
0
LINE
8
layer0
10
3.6810138
20
8.0264322
11
3.757852
21
8.1100657
0
LINE
8
layer0
10
3.757852
20
8.1100657
11
3.8483185
21
8.2006471
0
LINE
8
layer0
10
3.8483185
20
8.2006471
11
3.9551465
21
8.2989906
0
LINE
8
layer0
10
3.9551465
20
8.2989906
11
4.0751769
21
8.4005102
0
LINE
8
layer0
10
4.0751769
20
8.4005102
11
4.2119183
21
8.5067169
0
LINE
8
layer0
10
4.2119183
20
8.5067169
11
4.3649009
21
8.6155896
0
LINE
8
layer0
10
4.3649009
20
8.6155896
11
4.5346764
21
8.7260123
0
LINE
8
layer0
10
4.5346764
20
8.7260123
11
4.7020958
21
8.8255277
0
ARC
8
layer0
10
-0.0000084
20
-0.0000157
40
10
50
58.0479628
51
61.9520438
0
LINE
8
layer0
10
5.2920833
20
8.4848983
11
5.2896101
21
8.2901511
0
LINE
8
layer0
10
5.2896101
20
8.2901511
11
5.278869
21
8.0879099
0
LINE
8
layer0
10
5.278869
20
8.0879099
11
5.2610738
21
7.9009867
0
LINE
8
layer0
10
5.2610738
20
7.9009867
11
5.2374667
21
7.7294618
0
LINE
8
layer0
10
5.2374667
20
7.7294618
11
5.2095635
21
7.5747526
0
LINE
8
layer0
10
5.2095635
20
7.5747526
11
5.1778095
21
7.4330651
0
LINE
8
layer0
10
5.1778095
20
7.4330651
11
5.1445969
21
7.3094282
0
LINE
8
layer0
10
5.1445969
20
7.3094282
11
5.1105873
21
7.2010676
0
LINE
8
layer0
10
5.1105873
20
7.2010676
11
5.076511
21
7.1066133
0
LINE
8
layer0
10
5.076511
20
7.1066133
11
5.0452768
21
7.0302169
0
LINE
8
layer0
10
5.0452768
20
7.0302169
11
4.9918829
21
6.9190104
0
LINE
8
layer0
10
4.9918829
20
6.9190104
11
4.9587787
21
6.8623675
0
LINE
8
layer0
10
4.9587787
20
6.8623675
11
4.8822249
21
6.7453871
0
LINE
8
layer0
10
4.8822249
20
6.7453871
11
4.8337434
21
6.6517807
0
LINE
8
layer0
10
4.8337434
20
6.6517807
11
4.8012472
21
6.5664438
0
LINE
8
layer0
10
4.8012472
20
6.5664438
11
4.7839453
21
6.4905493
0
LINE
8
layer0
10
4.7839453
20
6.4905493
11
4.780721
21
6.4564946
0
LINE
8
layer0
10
4.780721
20
6.4564946
11
4.7809592
21
6.4252129
0
LINE
8
layer0
10
4.7809592
20
6.4252129
11
4.7845504
21
6.3968225
0
LINE
8
layer0
10
4.7845504
20
6.3968225
11
4.7913617
21
6.3714607
0
LINE
8
layer0
10
4.7913617
20
6.3714607
11
4.8012694
21
6.3492446
0
LINE
8
layer0
10
4.8012694
20
6.3492446
11
4.8141497
21
6.330291
0
LINE
8
layer0
10
4.8141497
20
6.330291
11
4.8342257
21
6.3113565
0
LINE
8
layer0
10
4.8342257
20
6.3113565
11
5.1101615
21
6.0900533
0
LINE
8
layer0
10
5.1101615
20
6.0900533
11
5.3760183
21
5.8567386
0
LINE
8
layer0
10
5.3760183
20
5.8567386
11
5.3981513
21
5.8402554
0
LINE
8
layer0
10
5.3981513
20
5.8402554
11
5.4190536
21
5.8308621
0
LINE
8
layer0
10
5.4190536
20
5.8308621
11
5.4426527
21
5.8249627
0
LINE
8
layer0
10
5.4426527
20
5.8249627
11
5.4688119
21
5.8226589
0
LINE
8
layer0
10
5.4688119
20
5.8226589
11
5.4973946
21
5.8240522
0
LINE
8
layer0
10
5.4973946
20
5.8240522
11
5.5282424
21
5.8292496
0
LINE
8
layer0
10
5.5282424
20
5.8292496
11
5.5612199
21
5.8383385
0
LINE
8
layer0
10
5.5612199
20
5.8383385
11
5.632957
21
5.8685565
0
LINE
8
layer0
10
5.632957
20
5.8685565
11
5.7113545
21
5.9153775
0
LINE
8
layer0
10
5.7113545
20
5.9153775
11
5.7951201
21
5.9793771
0
LINE
8
layer0
10
5.7951201
20
5.9793771
11
5.8970299
21
6.0750813
0
LINE
8
layer0
10
5.8970299
20
6.0750813
11
5.9470638
21
6.1175186
0
LINE
8
layer0
10
5.9470638
20
6.1175186
11
6.0473089
21
6.1894121
0
LINE
8
layer0
10
6.0473089
20
6.1894121
11
6.117121
21
6.2334378
0
LINE
8
layer0
10
6.117121
20
6.2334378
11
6.204223
21
6.2833983
0
LINE
8
layer0
10
6.204223
20
6.2833983
11
6.3050317
21
6.3357078
0
LINE
8
layer0
10
6.3050317
20
6.3357078
11
6.421023
21
6.3898851
0
LINE
8
layer0
10
6.421023
20
6.3898851
11
6.5550439
21
6.4457605
0
LINE
8
layer0
10
6.5550439
20
6.4457605
11
6.7025574
21
6.5001048
0
LINE
8
layer0
10
6.7025574
20
6.5001048
11
6.8673771
21
6.5531382
0
LINE
8
layer0
10
6.8673771
20
6.5531382
11
7.0483704
21
6.6031219
0
LINE
8
layer0
10
7.0483704
20
6.6031219
11
7.2456739
21
6.6488186
0
LINE
8
layer0
10
7.2456739
20
6.6488186
11
7.437033
21
6.6850718
0
ARC
8
layer0
10
-0.0000135
20
-0.0000116
40
10
50
38.0479604
51
41.9520417
0
LINE
8
layer0
10
7.8749378
20
6.1631972
11
7.8060062
21
5.9810406
0
LINE
8
layer0
10
7.8060062
20
5.9810406
11
7.7267423
21
5.7946697
0
LINE
8
layer0
10
7.7267423
20
5.7946697
11
7.6460888
21
5.6251057
0
LINE
8
layer0
10
7.6460888
20
5.6251057
11
7.5652405
21
5.4719991
0
LINE
8
layer0
10
7.5652405
20
5.4719991
11
7.4861063
21
5.3361635
0
LINE
8
layer0
10
7.4861063
20
5.3361635
11
7.4078073
21
5.2138813
0
LINE
8
layer0
10
7.4078073
20
5.2138813
11
7.3343114
21
5.10906
0
LINE
8
layer0
10
7.3343114
20
5.10906
11
7.2652913
21
5.0188663
0
LINE
8
layer0
10
7.2652913
20
5.0188663
11
7.2009648
21
4.9417631
0
LINE
8
layer0
10
7.2009648
20
4.9417631
11
7.1454852
21
4.8806566
0
LINE
8
layer0
10
7.1454852
20
4.8806566
11
7.0572765
21
4.7944185
0
LINE
8
layer0
10
7.0572765
20
4.7944185
11
7.0067956
21
4.752514
0
LINE
8
layer0
10
7.0067956
20
4.752514
11
6.894849
21
4.6687712
0
LINE
8
layer0
10
6.894849
20
4.6687712
11
6.817276
21
4.5973917
0
LINE
8
layer0
10
6.817276
20
4.5973917
11
6.7575526
21
4.5283156
0
LINE
8
layer0
10
6.7575526
20
4.5283156
11
6.7153367
21
4.4629157
0
LINE
8
layer0
10
6.7153367
20
4.4629157
11
6.7006594
21
4.4320175
0
LINE
8
layer0
10
6.7006594
20
4.4320175
11
6.6901843
21
4.4025408
0
LINE
8
layer0
10
6.6901843
20
4.4025408
11
6.6838488
21
4.3746343
0
LINE
8
layer0
10
6.6838488
20
4.3746343
11
6.6815751
21
4.3484724
0
LINE
8
layer0
10
6.6815751
20
4.3484724
11
6.683287
21
4.3242074
0
LINE
8
layer0
10
6.683287
20
4.3242074
11
6.688908
21
4.3019916
0
LINE
8
layer0
10
6.688908
20
4.3019916
11
6.7012973
21
4.2773326
0
LINE
8
layer0
10
6.7012973
20
4.2773326
11
6.884902
21
3.975
0
LINE
8
layer0
10
6.884902
20
3.975
11
7.0549273
21
3.6648274
0
LINE
8
layer0
10
7.0549273
20
3.6648274
11
7.070088
21
3.6417684
0
LINE
8
layer0
10
7.070088
20
3.6417684
11
7.086517
21
3.6257926
0
LINE
8
layer0
10
7.086517
20
3.6257926
11
7.1066751
21
3.6121776
0
LINE
8
layer0
10
7.1066751
20
3.6121776
11
7.1304688
21
3.6010657
0
LINE
8
layer0
10
7.1304688
20
3.6010657
11
7.1578043
21
3.5925992
0
LINE
8
layer0
10
7.1578043
20
3.5925992
11
7.1885694
21
3.5869325
0
LINE
8
layer0
10
7.1885694
20
3.5869325
11
7.2226667
21
3.5841943
0
LINE
8
layer0
10
7.2226667
20
3.5841943
11
7.3004126
21
3.5880544
0
LINE
8
layer0
10
7.3004126
20
3.5880544
11
7.390096
21
3.6052383
0
LINE
8
layer0
10
7.390096
20
3.6052383
11
7.490699
21
3.6367288
0
LINE
8
layer0
10
7.490699
20
3.6367288
11
7.6191956
21
3.691806
0
LINE
8
layer0
10
7.6191956
20
3.691806
11
7.6807265
21
3.7145715
0
LINE
8
layer0
10
7.6807265
20
3.7145715
11
7.7995152
21
3.7478434
0
LINE
8
layer0
10
7.7995152
20
3.7478434
11
7.8801748
21
3.7653369
0
LINE
8
layer0
10
7.8801748
20
3.7653369
11
7.9791113
21
3.7824937
0
LINE
8
layer0
10
7.9791113
20
3.7824937
11
8.0917314
21
3.79717
0
LINE
8
layer0
10
8.0917314
20
3.79717
11
8.2192573
21
3.8084087
0
LINE
8
layer0
10
8.2192573
20
3.8084087
11
8.3643063
21
3.8150765
0
LINE
8
layer0
10
8.3643063
20
3.8150765
11
8.5215105
21
3.8156909
0
LINE
8
layer0
10
8.5215105
20
3.8156909
11
8.6945288
21
3.8091543
0
LINE
8
layer0
10
8.6945288
20
3.8091543
11
8.8817023
21
3.7942203
0
LINE
8
layer0
10
8.8817023
20
3.7942203
11
9.0827362
21
3.7696794
0
LINE
8
layer0
10
9.0827362
20
3.7696794
11
9.2749543
21
3.7382976
0
ARC
8
layer0
10
-0.0000165
20
-0.0000063
40
10
50
18.0479608
51
21.9520423
0
LINE
8
layer0
10
9.5079585
20
3.0981236
11
9.3808828
21
2.9505284
0
LINE
8
layer1
10
9.3808828
20
2.9505284
11
9.2426565
21
2.8025068
0
LINE
8
layer1
10
9.2426565
20
2.8025068
11
9.1088727
21
2.6707539
0
LINE
8
layer1
10
9.1088727
20
2.6707539
11
8.9805346
21
2.5545326
0
LINE
8
layer1
10
8.9805346
20
2.5545326
11
8.8597143
21
2.4539543
0
LINE
8
layer1
10
8.8597143
20
2.4539543
11
8.7443143
21
2.3658265
0
LINE
8
layer1
10
8.7443143
20
2.3658265
11
8.6393998
21
2.2924637
0
LINE
8
layer1
10
8.6393998
20
2.2924637
11
8.543694
21
2.2313156
0
LINE
8
layer1
10
8.543694
20
2.2313156
11
8.456876
21
2.1808633
0
LINE
8
layer1
10
8.456876
20
2.1808633
11
8.3838426
21
2.1424171
0
LINE
8
layer1
10
8.3838426
20
2.1424171
11
8.2714584
21
2.091549
0
LINE
8
layer1
10
8.2714584
20
2.091549
11
8.2096897
21
2.069437
0
LINE
8
layer1
10
8.2096897
20
2.069437
11
8.0758525
21
2.0290326
0
LINE
8
layer1
10
8.0758525
20
2.0290326
11
7.9785445
21
1.9884893
0
LINE
8
layer1
10
7.9785445
20
1.9884893
11
7.8987975
21
1.9440056
0
LINE
8
layer1
10
7.8987975
20
1.9440056
11
7.8367594
21
1.8969885
0
LINE
8
layer1
10
7.8367594
20
1.8969885
11
7.8123994
21
1.8729736
0
LINE
8
layer1
10
7.8123994
20
1.8729736
11
7.7924745
21
1.8488573
0
LINE
8
layer1
10
7.7924745
20
1.8488573
11
7.7769764
21
1.8248006
0
LINE
8
layer1
10
7.7769764
20
1.8248006
11
7.765892
21
1.8009941
0
LINE
8
layer1
10
7.765892
20
1.8009941
11
7.7592015
21
1.777607
0
LINE
8
layer1
10
7.7592015
20
1.777607
11
7.7568852
21
1.7548085
0
LINE
8
layer1
10
7.7568852
20
1.7548085
11
7.7600935
21
1.7273992
0
LINE
8
layer1
10
7.7600935
20
1.7273992
11
7.8292216
21
1.380503
0
LINE
8
layer1
10
7.8292216
20
1.380503
11
7.8829079
21
1.030884
0
LINE
8
layer1
10
7.8829079
20
1.030884
11
7.8892676
21
1.0040304
0
LINE
8
layer1
10
7.8892676
20
1.0040304
11
7.8992418
21
0.983399
0
LINE
8
layer1
10
7.8992418
20
0.983399
11
7.9135277
21
0.9637106
0
LINE
8
layer1
10
7.9135277
20
0.9637106
11
7.9320859
21
0.9451309
0
LINE
8
layer1
10
7.9320859
20
0.9451309
11
7.9548772
21
0.9278257
0
LINE
8
layer1
10
7.9548772
20
0.9278257
11
7.9818488
21
0.9119785
0
LINE
8
layer1
10
7.9818488
20
0.9119785
11
8.0129532
21
0.8977435
0
LINE
8
layer1
10
8.0129532
20
0.8977435
11
8.0873308
21
0.8747801
0
LINE
8
layer1
10
8.0873308
20
0.8747801
11
8.1774828
21
0.8602542
0
LINE
8
layer1
10
8.1774828
20
0.8602542
11
8.2827891
21
0.8554372
0
LINE
8
layer1
10
8.2827891
20
0.8554372
11
8.4223739
21
0.8632445
0
LINE
8
layer1
10
8.4223739
20
0.8632445
11
8.4879803
21
0.8635922
0
LINE
8
layer1
10
8.4879803
20
0.8635922
11
8.6109848
21
0.8542295
0
LINE
8
layer1
10
8.6109848
20
0.8542295
11
8.6927632
21
0.8430808
0
LINE
8
layer1
10
8.6927632
20
0.8430808
11
8.7916011
21
0.8253647
0
LINE
8
layer1
10
8.7916011
20
0.8253647
11
8.902449
21
0.8006375
0
LINE
8
layer1
10
8.902449
20
0.8006375
11
9.026128
21
0.767582
0
LINE
8
layer1
10
9.026128
20
0.767582
11
9.1647099
21
0.724238
0
LINE
8
layer1
10
9.1647099
20
0.724238
11
9.3126437
21
0.6710483
0
LINE
8
layer1
10
9.3126437
20
0.6710483
11
9.4729921
21
0.6057302
0
LINE
8
layer1
10
9.4729921
20
0.6057302
11
9.6437699
21
0.5276797
0
LINE
8
layer1
10
9.6437699
20
0.5276797
11
9.8242865
21
0.4358612
0
LINE
8
layer1
10
9.8242865
20
0.4358612
11
9.9941791
21
0.3406294
0
ARC
8
layer1
10
-0.0000178
20
0
40
10
50
358.0479591
51
361.9520403
0
LINE
8
layer1
10
9.9941791
20
-0.3406294
11
9.8242865
21
-0.4358612
0
LINE
8
layer1
10
9.8242865
20
-0.4358612
11
9.6437699
21
-0.5276797
0
LINE
8
layer1
10
9.6437699
20
-0.5276797
11
9.4729921
21
-0.6057302
0
LINE
8
layer1
10
9.4729921
20
-0.6057302
11
9.3126437
21
-0.6710483
0
LINE
8
layer1
10
9.3126437
20
-0.6710483
11
9.1647099
21
-0.724238
0
LINE
8
layer1
10
9.1647099
20
-0.724238
11
9.026128
21
-0.767582
0
LINE
8
layer1
10
9.026128
20
-0.767582
11
8.902449
21
-0.8006375
0
LINE
8
layer1
10
8.902449
20
-0.8006375
11
8.7916011
21
-0.8253647
0
LINE
8
layer1
10
8.7916011
20
-0.8253647
11
8.6927632
21
-0.8430808
0
LINE
8
layer1
10
8.6927632
20
-0.8430808
11
8.6109848
21
-0.8542295
0
LINE
8
layer1
10
8.6109848
20
-0.8542295
11
8.4879803
21
-0.8635922
0
LINE
8
layer1
10
8.4879803
20
-0.8635922
11
8.4223739
21
-0.8632445
0
LINE
8
layer1
10
8.4223739
20
-0.8632445
11
8.2827891
21
-0.8554372
0
LINE
8
layer1
10
8.2827891
20
-0.8554372
11
8.1774828
21
-0.8602542
0
LINE
8
layer1
10
8.1774828
20
-0.8602542
11
8.0873308
21
-0.8747801
0
LINE
8
layer1
10
8.0873308
20
-0.8747801
11
8.0129532
21
-0.8977435
0
LINE
8
layer1
10
8.0129532
20
-0.8977435
11
7.9818488
21
-0.9119785
0
LINE
8
layer1
10
7.9818488
20
-0.9119785
11
7.9548772
21
-0.9278257
0
LINE
8
layer1
10
7.9548772
20
-0.9278257
11
7.9320859
21
-0.9451309
0
LINE
8
layer1
10
7.9320859
20
-0.9451309
11
7.9135277
21
-0.9637106
0
LINE
8
layer1
10
7.9135277
20
-0.9637106
11
7.8992418
21
-0.983399
0
LINE
8
layer1
10
7.8992418
20
-0.983399
11
7.8892676
21
-1.0040304
0
LINE
8
layer1
10
7.8892676
20
-1.0040304
11
7.8829079
21
-1.030884
0
LINE
8
layer1
10
7.8829079
20
-1.030884
11
7.8292216
21
-1.380503
0
LINE
8
layer1
10
7.8292216
20
-1.380503
11
7.7600935
21
-1.7273992
0
LINE
8
layer1
10
7.7600935
20
-1.7273992
11
7.7568852
21
-1.7548085
0
LINE
8
layer1
10
7.7568852
20
-1.7548085
11
7.7592015
21
-1.777607
0
LINE
8
layer1
10
7.7592015
20
-1.777607
11
7.765892
21
-1.8009941
0
LINE
8
layer1
10
7.765892
20
-1.8009941
11
7.7769764
21
-1.8248006
0
LINE
8
layer1
10
7.7769764
20
-1.8248006
11
7.7924745
21
-1.8488573
0
LINE
8
layer1
10
7.7924745
20
-1.8488573
11
7.8123994
21
-1.8729736
0
LINE
8
layer1
10
7.8123994
20
-1.8729736
11
7.8367594
21
-1.8969885
0
LINE
8
layer1
10
7.8367594
20
-1.8969885
11
7.8987975
21
-1.9440056
0
LINE
8
layer1
10
7.8987975
20
-1.9440056
11
7.9785445
21
-1.9884893
0
LINE
8
layer1
10
7.9785445
20
-1.9884893
11
8.0758525
21
-2.0290326
0
LINE
8
layer1
10
8.0758525
20
-2.0290326
11
8.2096897
21
-2.069437
0
LINE
8
layer1
10
8.2096897
20
-2.069437
11
8.2714584
21
-2.091549
0
LINE
8
layer1
10
8.2714584
20
-2.091549
11
8.3838426
21
-2.1424171
0
LINE
8
layer1
10
8.3838426
20
-2.1424171
11
8.456876
21
-2.1808633
0
LINE
8
layer1
10
8.456876
20
-2.1808633
11
8.543694
21
-2.2313156
0
LINE
8
layer1
10
8.543694
20
-2.2313156
11
8.6393998
21
-2.2924637
0
LINE
8
layer1
10
8.6393998
20
-2.2924637
11
8.7443143
21
-2.3658265
0
LINE
8
layer1
10
8.7443143
20
-2.3658265
11
8.8597143
21
-2.4539543
0
LINE
8
layer1
10
8.8597143
20
-2.4539543
11
8.9805346
21
-2.5545326
0
LINE
8
layer1
10
8.9805346
20
-2.5545326
11
9.1088727
21
-2.6707539
0
LINE
8
layer1
10
9.1088727
20
-2.6707539
11
9.2426565
21
-2.8025068
0
LINE
8
layer1
10
9.2426565
20
-2.8025068
11
9.3808828
21
-2.9505284
0
LINE
8
layer1
10
9.3808828
20
-2.9505284
11
9.5079585
21
-3.0981236
0
ARC
8
layer1
10
-0.0000166
20
0.0000063
40
10
50
338.0479577
51
341.9520392
0
LINE
8
layer1
10
9.2749543
20
-3.7382976
11
9.0827362
21
-3.7696794
0
LINE
8
layer1
10
9.0827362
20
-3.7696794
11
8.8817023
21
-3.7942203
0
LINE
8
layer1
10
8.8817023
20
-3.7942203
11
8.6945288
21
-3.8091543
0
LINE
8
layer1
10
8.6945288
20
-3.8091543
11
8.5215105
21
-3.8156909
0
LINE
8
layer1
10
8.5215105
20
-3.8156909
11
8.3643063
21
-3.8150765
0
LINE
8
layer1
10
8.3643063
20
-3.8150765
11
8.2192573
21
-3.8084087
0
LINE
8
layer1
10
8.2192573
20
-3.8084087
11
8.0917314
21
-3.79717
0
LINE
8
layer1
10
8.0917314
20
-3.79717
11
7.9791113
21
-3.7824937
0
LINE
8
layer1
10
7.9791113
20
-3.7824937
11
7.8801748
21
-3.7653369
0
LINE
8
layer1
10
7.8801748
20
-3.7653369
11
7.7995152
21
-3.7478434
0
LINE
8
layer1
10
7.7995152
20
-3.7478434
11
7.6807265
21
-3.7145715
0
LINE
8
layer1
10
7.6807265
20
-3.7145715
11
7.6191956
21
-3.691806
0
LINE
8
layer1
10
7.6191956
20
-3.691806
11
7.490699
21
-3.6367288
0
LINE
8
layer1
10
7.490699
20
-3.6367288
11
7.390096
21
-3.6052383
0
LINE
8
layer1
10
7.390096
20
-3.6052383
11
7.3004126
21
-3.5880544
0
LINE
8
layer1
10
7.3004126
20
-3.5880544
11
7.2226667
21
-3.5841943
0
LINE
8
layer1
10
7.2226667
20
-3.5841943
11
7.1885694
21
-3.5869325
0
LINE
8
layer1
10
7.1885694
20
-3.5869325
11
7.1578043
21
-3.5925992
0
LINE
8
layer1
10
7.1578043
20
-3.5925992
11
7.1304688
21
-3.6010657
0
LINE
8
layer1
10
7.1304688
20
-3.6010657
11
7.1066751
21
-3.6121776
0
LINE
8
layer1
10
7.1066751
20
-3.6121776
11
7.086517
21
-3.6257926
0
LINE
8
layer1
10
7.086517
20
-3.6257926
11
7.070088
21
-3.6417684
0
LINE
8
layer1
10
7.070088
20
-3.6417684
11
7.0549273
21
-3.6648274
0
LINE
8
layer1
10
7.0549273
20
-3.6648274
11
6.884902
21
-3.975
0
LINE
8
layer1
10
6.884902
20
-3.975
11
6.7012973
21
-4.2773326
0
LINE
8
layer1
10
6.7012973
20
-4.2773326
11
6.688908
21
-4.3019916
0
LINE
8
layer1
10
6.688908
20
-4.3019916
11
6.683287
21
-4.3242074
0
LINE
8
layer1
10
6.683287
20
-4.3242074
11
6.6815751
21
-4.3484724
0
LINE
8
layer1
10
6.6815751
20
-4.3484724
11
6.6838488
21
-4.3746343
0
LINE
8
layer1
10
6.6838488
20
-4.3746343
11
6.6901843
21
-4.4025408
0
LINE
8
layer1
10
6.6901843
20
-4.4025408
11
6.7006594
21
-4.4320175
0
LINE
8
layer1
10
6.7006594
20
-4.4320175
11
6.7153367
21
-4.4629157
0
LINE
8
layer1
10
6.7153367
20
-4.4629157
11
6.7575526
21
-4.5283156
0
LINE
8
layer1
10
6.7575526
20
-4.5283156
11
6.817276
21
-4.5973917
0
LINE
8
layer1
10
6.817276
20
-4.5973917
11
6.894849
21
-4.6687712
0
LINE
8
layer1
10
6.894849
20
-4.6687712
11
7.0067956
21
-4.752514
0
LINE
8
layer1
10
7.0067956
20
-4.752514
11
7.0572765
21
-4.7944185
0
LINE
8
layer1
10
7.0572765
20
-4.7944185
11
7.1454852
21
-4.8806566
0
LINE
8
layer1
10
7.1454852
20
-4.8806566
11
7.2009648
21
-4.9417631
0
LINE
8
layer1
10
7.2009648
20
-4.9417631
11
7.2652913
21
-5.0188663
0
LINE
8
layer1
10
7.2652913
20
-5.0188663
11
7.3343114
21
-5.10906
0
LINE
8
layer1
10
7.3343114
20
-5.10906
11
7.4078073
21
-5.2138813
0
LINE
8
layer1
10
7.4078073
20
-5.2138813
11
7.4861063
21
-5.3361635
0
LINE
8
layer1
10
7.4861063
20
-5.3361635
11
7.5652405
21
-5.4719991
0
LINE
8
layer1
10
7.5652405
20
-5.4719991
11
7.6460888
21
-5.6251057
0
LINE
8
layer1
10
7.6460888
20
-5.6251057
11
7.7267423
21
-5.7946697
0
LINE
8
layer1
10
7.7267423
20
-5.7946697
11
7.8060062
21
-5.9810406
0
LINE
8
layer1
10
7.8060062
20
-5.9810406
11
7.8749378
21
-6.1631972
0
ARC
8
layer1
10
-0.0000135
20
0.0000116
40
10
50
318.0479583
51
321.9520396
0
LINE
8
layer1
10
7.437033
20
-6.6850718
11
7.2456739
21
-6.6488186
0
LINE
8
layer1
10
7.2456739
20
-6.6488186
11
7.0483704
21
-6.6031219
0
LINE
8
layer1
10
7.0483704
20
-6.6031219
11
6.8673771
21
-6.5531382
0
LINE
8
layer1
10
6.8673771
20
-6.5531382
11
6.7025574
21
-6.5001048
0
LINE
8
layer1
10
6.7025574
20
-6.5001048
11
6.5550439
21
-6.4457605
0
LINE
8
layer1
10
6.5550439
20
-6.4457605
11
6.421023
21
-6.3898851
0
LINE
8
layer1
10
6.421023
20
-6.3898851
11
6.3050317
21
-6.3357078
0
LINE
8
layer1
10
6.3050317
20
-6.3357078
11
6.204223
21
-6.2833983
0
LINE
8
layer1
10
6.204223
20
-6.2833983
11
6.117121
21
-6.2334378
0
LINE
8
layer1
10
6.117121
20
-6.2334378
11
6.0473089
21
-6.1894121
0
LINE
8
layer1
10
6.0473089
20
-6.1894121
11
5.9470638
21
-6.1175186
0
LINE
8
layer1
10
5.9470638
20
-6.1175186
11
5.8970299
21
-6.0750813
0
LINE
8
layer1
10
5.8970299
20
-6.0750813
11
5.7951201
21
-5.9793771
0
LINE
8
layer1
10
5.7951201
20
-5.9793771
11
5.7113545
21
-5.9153775
0
LINE
8
layer1
10
5.7113545
20
-5.9153775
11
5.632957
21
-5.8685565
0
LINE
8
layer1
10
5.632957
20
-5.8685565
11
5.5612199
21
-5.8383385
0
LINE
8
layer1
10
5.5612199
20
-5.8383385
11
5.5282424
21
-5.8292496
0
LINE
8
layer1
10
5.5282424
20
-5.8292496
11
5.4973946
21
-5.8240522
0
LINE
8
layer1
10
5.4973946
20
-5.8240522
11
5.4688119
21
-5.8226589
0
LINE
8
layer1
10
5.4688119
20
-5.8226589
11
5.4426527
21
-5.8249627
0
LINE
8
layer1
10
5.4426527
20
-5.8249627
11
5.4190536
21
-5.8308621
0
LINE
8
layer1
10
5.4190536
20
-5.8308621
11
5.3981513
21
-5.8402554
0
LINE
8
layer1
10
5.3981513
20
-5.8402554
11
5.3760183
21
-5.8567386
0
LINE
8
layer1
10
5.3760183
20
-5.8567386
11
5.1101615
21
-6.0900533
0
LINE
8
layer1
10
5.1101615
20
-6.0900533
11
4.8342257
21
-6.3113565
0
LINE
8
layer1
10
4.8342257
20
-6.3113565
11
4.8141497
21
-6.330291
0
LINE
8
layer1
10
4.8141497
20
-6.330291
11
4.8012694
21
-6.3492446
0
LINE
8
layer1
10
4.8012694
20
-6.3492446
11
4.7913617
21
-6.3714607
0
LINE
8
layer1
10
4.7913617
20
-6.3714607
11
4.7845504
21
-6.3968225
0
LINE
8
layer1
10
4.7845504
20
-6.3968225
11
4.7809592
21
-6.4252129
0
LINE
8
layer1
10
4.7809592
20
-6.4252129
11
4.780721
21
-6.4564946
0
LINE
8
layer1
10
4.780721
20
-6.4564946
11
4.7839453
21
-6.4905493
0
LINE
8
layer1
10
4.7839453
20
-6.4905493
11
4.8012472
21
-6.5664438
0
LINE
8
layer1
10
4.8012472
20
-6.5664438
11
4.8337434
21
-6.6517807
0
LINE
8
layer1
10
4.8337434
20
-6.6517807
11
4.8822249
21
-6.7453871
0
LINE
8
layer1
10
4.8822249
20
-6.7453871
11
4.9587787
21
-6.8623675
0
LINE
8
layer1
10
4.9587787
20
-6.8623675
11
4.9918829
21
-6.9190104
0
LINE
8
layer1
10
4.9918829
20
-6.9190104
11
5.0452768
21
-7.0302169
0
LINE
8
layer1
10
5.0452768
20
-7.0302169
11
5.076511
21
-7.1066133
0
LINE
8
layer1
10
5.076511
20
-7.1066133
11
5.1105873
21
-7.2010676
0
LINE
8
layer1
10
5.1105873
20
-7.2010676
11
5.1445969
21
-7.3094282
0
LINE
8
layer1
10
5.1445969
20
-7.3094282
11
5.1778095
21
-7.4330651
0
LINE
8
layer1
10
5.1778095
20
-7.4330651
11
5.2095635
21
-7.5747526
0
LINE
8
layer1
10
5.2095635
20
-7.5747526
11
5.2374667
21
-7.7294618
0
LINE
8
layer1
10
5.2374667
20
-7.7294618
11
5.2610738
21
-7.9009867
0
LINE
8
layer1
10
5.2610738
20
-7.9009867
11
5.278869
21
-8.0879099
0
LINE
8
layer1
10
5.278869
20
-8.0879099
11
5.2896101
21
-8.2901511
0
LINE
8
layer1
10
5.2896101
20
-8.2901511
11
5.2920833
21
-8.4848983
0
ARC
8
layer1
10
-0.0000085
20
0.0000157
40
10
50
298.0479567
51
301.9520377
0
LINE
8
layer1
10
4.7020958
20
-8.8255277
11
4.5346764
21
-8.7260123
0
LINE
8
layer1
10
4.5346764
20
-8.7260123
11
4.3649009
21
-8.6155896
0
LINE
8
layer1
10
4.3649009
20
-8.6155896
11
4.2119183
21
-8.5067169
0
LINE
8
layer1
10
4.2119183
20
-8.5067169
11
4.0751769
21
-8.4005102
0
LINE
8
layer1
10
4.0751769
20
-8.4005102
11
3.9551465
21
-8.2989906
0
LINE
8
layer1
10
3.9551465
20
-8.2989906
11
3.8483185
21
-8.2006471
0
LINE
8
layer1
10
3.8483185
20
-8.2006471
11
3.757852
21
-8.1100657
0
LINE
8
layer1
10
3.757852
20
-8.1100657
11
3.6810138
21
-8.0264322
0
LINE
8
layer1
10
3.6810138
20
-8.0264322
11
3.6162522
21
-7.9496941
0
LINE
8
layer1
10
3.6162522
20
-7.9496941
11
3.565708
21
-7.8844463
0
LINE
8
layer1
10
3.565708
20
-7.8844463
11
3.4960973
21
-7.7826027
0
LINE
8
layer1
10
3.4960973
20
-7.7826027
11
3.4635953
21
-7.7256121
0
LINE
8
layer1
10
3.4635953
20
-7.7256121
11
3.4005641
21
-7.6008244
0
LINE
8
layer1
10
3.4005641
20
-7.6008244
11
3.3437394
21
-7.5120349
0
LINE
8
layer1
10
3.3437394
20
-7.5120349
11
3.2860836
21
-7.4412239
0
LINE
8
layer1
10
3.2860836
20
-7.4412239
11
3.229008
21
-7.3882928
0
LINE
8
layer1
10
3.229008
20
-7.3882928
11
3.2011279
21
-7.3684731
0
LINE
8
layer1
10
3.2011279
20
-7.3684731
11
3.173918
21
-7.3530386
0
LINE
8
layer1
10
3.173918
20
-7.3530386
11
3.1475356
21
-7.3419534
0
LINE
8
layer1
10
3.1475356
20
-7.3419534
11
3.122166
21
-7.3351713
0
LINE
8
layer1
10
3.122166
20
-7.3351713
11
3.0979724
21
-7.3326436
0
LINE
8
layer1
10
3.0979724
20
-7.3326436
11
3.075118
21
-7.3343214
0
LINE
8
layer1
10
3.075118
20
-7.3343214
11
3.0486822
21
-7.3422406
0
LINE
8
layer1
10
3.0486822
20
-7.3422406
11
2.7190601
21
-7.4705563
0
LINE
8
layer1
10
2.7190601
20
-7.4705563
11
2.3840752
21
-7.5841377
0
LINE
8
layer1
10
2.3840752
20
-7.5841377
11
2.3587339
21
-7.5950639
0
LINE
8
layer1
10
2.3587339
20
-7.5950639
11
2.3401479
21
-7.6084691
0
LINE
8
layer1
10
2.3401479
20
-7.6084691
11
2.3232393
21
-7.6259568
0
LINE
8
layer1
10
2.3232393
20
-7.6259568
11
2.3081645
21
-7.6474595
0
LINE
8
layer1
10
2.3081645
20
-7.6474595
11
2.2950799
21
-7.6729095
0
LINE
8
layer1
10
2.2950799
20
-7.6729095
11
2.284157
21
-7.7022232
0
LINE
8
layer1
10
2.284157
20
-7.7022232
11
2.2755395
21
-7.735327
0
LINE
8
layer1
10
2.2755395
20
-7.735327
11
2.2658405
21
-7.8125621
0
LINE
8
layer1
10
2.2658405
20
-7.8125621
11
2.26719
21
-7.9038669
0
LINE
8
layer1
10
2.26719
20
-7.9038669
11
2.2807325
21
-8.0084098
0
LINE
8
layer1
10
2.2807325
20
-8.0084098
11
2.3126598
21
-8.1445183
0
LINE
8
layer1
10
2.3126598
20
-8.1445183
11
2.3243946
21
-8.2090676
0
LINE
8
layer1
10
2.3243946
20
-8.2090676
11
2.3365336
21
-8.3318292
0
LINE
8
layer1
10
2.3365336
20
-8.3318292
11
2.339755
21
-8.4143011
0
LINE
8
layer1
10
2.339755
20
-8.4143011
11
2.339471
21
-8.5147139
0
LINE
8
layer1
10
2.339471
20
-8.5147139
11
2.3343681
21
-8.6281715
0
LINE
8
layer1
10
2.3343681
20
-8.6281715
11
2.3232913
21
-8.7557116
0
LINE
8
layer1
10
2.3232913
20
-8.7557116
11
2.3046704
21
-8.8997148
0
LINE
8
layer1
10
2.3046704
20
-8.8997148
11
2.2779772
21
-9.0546374
0
LINE
8
layer1
10
2.2779772
20
-9.0546374
11
2.2414956
21
-9.2238921
0
LINE
8
layer1
10
2.2414956
20
-9.2238921
11
2.1942861
21
-9.4056288
0
LINE
8
layer1
10
2.1942861
20
-9.4056288
11
2.1352089
21
-9.599347
0
LINE
8
layer1
10
2.1352089
20
-9.599347
11
2.0709255
21
-9.7831954
0
ARC
8
layer1
10
-0.0000037
20
0.0000174
40
10
50
278.0479631
51
281.9520441
0
LINE
8
layer1
10
1.4000165
20
-9.9014948
11
1.27673
21
-9.75072
0
LINE
8
layer1
10
1.27673
20
-9.75072
11
1.15496
21
-9.58889
0
LINE
8
layer1
10
1.15496
20
-9.58889
11
1.04844
21
-9.43426
0
LINE
8
layer1
10
1.04844
20
-9.43426
11
0.95627
21
-9.28769
0
LINE
8
layer1
10
0.95627
20
-9.28769
11
0.8782
21
-9.15124
0
LINE
8
layer1
10
0.8782
20
-9.15124
11
0.81145
21
-9.02229
0
LINE
8
layer1
10
0.81145
20
-9.02229
11
0.75742
21
-8.90623
0
LINE
8
layer1
10
0.75742
20
-8.90623
11
0.71382
21
-8.80136
0
LINE
8
layer1
10
0.71382
20
-8.80136
11
0.67921
21
-8.7071
0
LINE
8
layer1
10
0.67921
20
-8.7071
11
0.65403
21
-8.6285
0
LINE
8
layer1
10
0.65403
20
-8.6285
11
0.62345
21
-8.50899
0
LINE
8
layer1
10
0.62345
20
-8.50899
11
0.6124
21
-8.44432
0
LINE
8
layer1
10
0.6124
20
-8.44432
11
0.59585
21
-8.3055
0
LINE
8
layer1
10
0.59585
20
-8.3055
11
0.57282
21
-8.20263
0
LINE
8
layer1
10
0.57282
20
-8.20263
11
0.54286
21
-8.11637
0
LINE
8
layer1
10
0.54286
20
-8.11637
11
0.50733
21
-8.04711
0
LINE
8
layer1
10
0.50733
20
-8.04711
11
0.48791
21
-8.01895
0
LINE
8
layer1
10
0.48791
20
-8.01895
11
0.46762
21
-7.99514
0
LINE
8
layer1
10
0.46762
20
-7.99514
11
0.44662
21
-7.9757
0
LINE
8
layer1
10
0.44662
20
-7.9757
11
0.4251
21
-7.96065
0
LINE
8
layer1
10
0.4251
20
-7.96065
11
0.40323
21
-7.95
0
LINE
8
layer1
10
0.40323
20
-7.95
11
0.38118
21
-7.94376
0
LINE
8
layer1
10
0.38118
20
-7.94376
11
0.35363
21
-7.94216
0
LINE
8
layer1
10
0.35363
20
-7.94216
11
0
21
-7.95
0
LINE
8
layer1
10
0
20
-7.95
11
-0.35363
21
-7.94216
0
LINE
8
layer1
10
-0.35363
20
-7.94216
11
-0.38118
21
-7.94376
0
LINE
8
layer1
10
-0.38118
20
-7.94376
11
-0.40323
21
-7.95
0
LINE
8
layer1
10
-0.40323
20
-7.95
11
-0.4251
21
-7.96065
0
LINE
8
layer1
10
-0.4251
20
-7.96065
11
-0.44662
21
-7.9757
0
LINE
8
layer1
10
-0.44662
20
-7.9757
11
-0.46762
21
-7.99514
0
LINE
8
layer1
10
-0.46762
20
-7.99514
11
-0.48791
21
-8.01895
0
LINE
8
layer1
10
-0.48791
20
-8.01895
11
-0.50733
21
-8.04711
0
LINE
8
layer1
10
-0.50733
20
-8.04711
11
-0.54286
21
-8.11637
0
LINE
8
layer1
10
-0.54286
20
-8.11637
11
-0.57282
21
-8.20263
0
LINE
8
layer1
10
-0.57282
20
-8.20263
11
-0.59585
21
-8.3055
0
LINE
8
layer1
10
-0.59585
20
-8.3055
11
-0.6124
21
-8.44432
0
LINE
8
layer1
10
-0.6124
20
-8.44432
11
-0.62345
21
-8.50899
0
LINE
8
layer1
10
-0.62345
20
-8.50899
11
-0.65403
21
-8.6285
0
LINE
8
layer1
10
-0.65403
20
-8.6285
11
-0.67921
21
-8.7071
0
LINE
8
layer1
10
-0.67921
20
-8.7071
11
-0.71382
21
-8.80136
0
LINE
8
layer1
10
-0.71382
20
-8.80136
11
-0.75742
21
-8.90623
0
LINE
8
layer1
10
-0.75742
20
-8.90623
11
-0.81145
21
-9.02229
0
LINE
8
layer1
10
-0.81145
20
-9.02229
11
-0.8782
21
-9.15124
0
LINE
8
layer1
10
-0.8782
20
-9.15124
11
-0.95627
21
-9.28769
0
LINE
8
layer1
10
-0.95627
20
-9.28769
11
-1.04844
21
-9.43426
0
LINE
8
layer1
10
-1.04844
20
-9.43426
11
-1.15496
21
-9.58889
0
LINE
8
layer1
10
-1.15496
20
-9.58889
11
-1.27673
21
-9.75072
0
LINE
8
layer1
10
-1.27673
20
-9.75072
11
-1.4000165
21
-9.9014948
0
ARC
8
layer1
10
0.0000037
20
0.0000174
40
10
50
258.0479559
51
261.9520369
0
LINE
8
layer1
10
-2.0709255
20
-9.7831954
11
-2.1352089
21
-9.599347
0
LINE
8
layer1
10
-2.1352089
20
-9.599347
11
-2.1942861
21
-9.4056288
0
LINE
8
layer1
10
-2.1942861
20
-9.4056288
11
-2.2414956
21
-9.2238921
0
LINE
8
layer1
10
-2.2414956
20
-9.2238921
11
-2.2779772
21
-9.0546374
0
LINE
8
layer1
10
-2.2779772
20
-9.0546374
11
-2.3046704
21
-8.8997148
0
LINE
8
layer1
10
-2.3046704
20
-8.8997148
11
-2.3232913
21
-8.7557116
0
LINE
8
layer1
10
-2.3232913
20
-8.7557116
11
-2.3343681
21
-8.6281715
0
LINE
8
layer1
10
-2.3343681
20
-8.6281715
11
-2.339471
21
-8.5147139
0
LINE
8
layer1
10
-2.339471
20
-8.5147139
11
-2.339755
21
-8.4143011
0
LINE
8
layer1
10
-2.339755
20
-8.4143011
11
-2.3365336
21
-8.3318292
0
LINE
8
layer1
10
-2.3365336
20
-8.3318292
11
-2.3243946
21
-8.2090676
0
LINE
8
layer1
10
-2.3243946
20
-8.2090676
11
-2.3126598
21
-8.1445183
0
LINE
8
layer1
10
-2.3126598
20
-8.1445183
11
-2.2807325
21
-8.0084098
0
LINE
8
layer1
10
-2.2807325
20
-8.0084098
11
-2.26719
21
-7.9038669
0
LINE
8
layer1
10
-2.26719
20
-7.9038669
11
-2.2658405
21
-7.8125621
0
LINE
8
layer1
10
-2.2658405
20
-7.8125621
11
-2.2755395
21
-7.735327
0
LINE
8
layer1
10
-2.2755395
20
-7.735327
11
-2.284157
21
-7.7022232
0
LINE
8
layer1
10
-2.284157
20
-7.7022232
11
-2.2950799
21
-7.6729095
0
LINE
8
layer1
10
-2.2950799
20
-7.6729095
11
-2.3081645
21
-7.6474595
0
LINE
8
layer1
10
-2.3081645
20
-7.6474595
11
-2.3232393
21
-7.6259568
0
LINE
8
layer1
10
-2.3232393
20
-7.6259568
11
-2.3401479
21
-7.6084691
0
LINE
8
layer1
10
-2.3401479
20
-7.6084691
11
-2.3587339
21
-7.5950639
0
LINE
8
layer1
10
-2.3587339
20
-7.5950639
11
-2.3840752
21
-7.5841377
0
LINE
8
layer1
10
-2.3840752
20
-7.5841377
11
-2.7190601
21
-7.4705563
0
LINE
8
layer1
10
-2.7190601
20
-7.4705563
11
-3.0486822
21
-7.3422406
0
LINE
8
layer1
10
-3.0486822
20
-7.3422406
11
-3.075118
21
-7.3343214
0
LINE
8
layer1
10
-3.075118
20
-7.3343214
11
-3.0979724
21
-7.3326436
0
LINE
8
layer1
10
-3.0979724
20
-7.3326436
11
-3.122166
21
-7.3351713
0
LINE
8
layer1
10
-3.122166
20
-7.3351713
11
-3.1475356
21
-7.3419534
0
LINE
8
layer1
10
-3.1475356
20
-7.3419534
11
-3.173918
21
-7.3530386
0
LINE
8
layer1
10
-3.173918
20
-7.3530386
11
-3.2011279
21
-7.3684731
0
LINE
8
layer1
10
-3.2011279
20
-7.3684731
11
-3.229008
21
-7.3882928
0
LINE
8
layer1
10
-3.229008
20
-7.3882928
11
-3.2860836
21
-7.4412239
0
LINE
8
layer1
10
-3.2860836
20
-7.4412239
11
-3.3437394
21
-7.5120349
0
LINE
8
layer1
10
-3.3437394
20
-7.5120349
11
-3.4005641
21
-7.6008244
0
LINE
8
layer1
10
-3.4005641
20
-7.6008244
11
-3.4635953
21
-7.7256121
0
LINE
8
layer1
10
-3.4635953
20
-7.7256121
11
-3.4960973
21
-7.7826027
0
LINE
8
layer1
10
-3.4960973
20
-7.7826027
11
-3.565708
21
-7.8844463
0
LINE
8
layer1
10
-3.565708
20
-7.8844463
11
-3.6162522
21
-7.9496941
0
LINE
8
layer1
10
-3.6162522
20
-7.9496941
11
-3.6810138
21
-8.0264322
0
LINE
8
layer1
10
-3.6810138
20
-8.0264322
11
-3.757852
21
-8.1100657
0
LINE
8
layer1
10
-3.757852
20
-8.1100657
11
-3.8483185
21
-8.2006471
0
LINE
8
layer1
10
-3.8483185
20
-8.2006471
11
-3.9551465
21
-8.2989906
0
LINE
8
layer1
10
-3.9551465
20
-8.2989906
11
-4.0751769
21
-8.4005102
0
LINE
8
layer1
10
-4.0751769
20
-8.4005102
11
-4.2119183
21
-8.5067169
0
LINE
8
layer1
10
-4.2119183
20
-8.5067169
11
-4.3649009
21
-8.6155896
0
LINE
8
layer1
10
-4.3649009
20
-8.6155896
11
-4.5346764
21
-8.7260123
0
LINE
8
layer1
10
-4.5346764
20
-8.7260123
11
-4.7020958
21
-8.8255277
0
ARC
8
layer1
10
0.0000084
20
0.0000157
40
10
50
238.0479628
51
241.9520438
0
LINE
8
layer1
10
-5.2920833
20
-8.4848983
11
-5.2896101
21
-8.2901511
0
LINE
8
layer1
10
-5.2896101
20
-8.2901511
11
-5.278869
21
-8.0879099
0
LINE
8
layer1
10
-5.278869
20
-8.0879099
11
-5.2610738
21
-7.9009867
0
LINE
8
layer1
10
-5.2610738
20
-7.9009867
11
-5.2374667
21
-7.7294618
0
LINE
8
layer1
10
-5.2374667
20
-7.7294618
11
-5.2095635
21
-7.5747526
0
LINE
8
layer1
10
-5.2095635
20
-7.5747526
11
-5.1778095
21
-7.4330651
0
LINE
8
layer1
10
-5.1778095
20
-7.4330651
11
-5.1445969
21
-7.3094282
0
LINE
8
layer1
10
-5.1445969
20
-7.3094282
11
-5.1105873
21
-7.2010676
0
LINE
8
layer1
10
-5.1105873
20
-7.2010676
11
-5.076511
21
-7.1066133
0
LINE
8
layer1
10
-5.076511
20
-7.1066133
11
-5.0452768
21
-7.0302169
0
LINE
8
layer1
10
-5.0452768
20
-7.0302169
11
-4.9918829
21
-6.9190104
0
LINE
8
layer1
10
-4.9918829
20
-6.9190104
11
-4.9587787
21
-6.8623675
0
LINE
8
layer1
10
-4.9587787
20
-6.8623675
11
-4.8822249
21
-6.7453871
0
LINE
8
layer1
10
-4.8822249
20
-6.7453871
11
-4.8337434
21
-6.6517807
0
LINE
8
layer1
10
-4.8337434
20
-6.6517807
11
-4.8012472
21
-6.5664438
0
LINE
8
layer1
10
-4.8012472
20
-6.5664438
11
-4.7839453
21
-6.4905493
0
LINE
8
layer1
10
-4.7839453
20
-6.4905493
11
-4.780721
21
-6.4564946
0
LINE
8
layer1
10
-4.780721
20
-6.4564946
11
-4.7809592
21
-6.4252129
0
LINE
8
layer1
10
-4.7809592
20
-6.4252129
11
-4.7845504
21
-6.3968225
0
LINE
8
layer1
10
-4.7845504
20
-6.3968225
11
-4.7913617
21
-6.3714607
0
LINE
8
layer1
10
-4.7913617
20
-6.3714607
11
-4.8012694
21
-6.3492446
0
LINE
8
layer1
10
-4.8012694
20
-6.3492446
11
-4.8141497
21
-6.330291
0
LINE
8
layer1
10
-4.8141497
20
-6.330291
11
-4.8342257
21
-6.3113565
0
LINE
8
layer1
10
-4.8342257
20
-6.3113565
11
-5.1101615
21
-6.0900533
0
LINE
8
layer1
10
-5.1101615
20
-6.0900533
11
-5.3760183
21
-5.8567386
0
LINE
8
layer1
10
-5.3760183
20
-5.8567386
11
-5.3981513
21
-5.8402554
0
LINE
8
layer1
10
-5.3981513
20
-5.8402554
11
-5.4190536
21
-5.8308621
0
LINE
8
layer1
10
-5.4190536
20
-5.8308621
11
-5.4426527
21
-5.8249627
0
LINE
8
layer1
10
-5.4426527
20
-5.8249627
11
-5.4688119
21
-5.8226589
0
LINE
8
layer1
10
-5.4688119
20
-5.8226589
11
-5.4973946
21
-5.8240522
0
LINE
8
layer1
10
-5.4973946
20
-5.8240522
11
-5.5282424
21
-5.8292496
0
LINE
8
layer1
10
-5.5282424
20
-5.8292496
11
-5.5612199
21
-5.8383385
0
LINE
8
layer1
10
-5.5612199
20
-5.8383385
11
-5.632957
21
-5.8685565
0
LINE
8
layer1
10
-5.632957
20
-5.8685565
11
-5.7113545
21
-5.9153775
0
LINE
8
layer1
10
-5.7113545
20
-5.9153775
11
-5.7951201
21
-5.9793771
0
LINE
8
layer1
10
-5.7951201
20
-5.9793771
11
-5.8970299
21
-6.0750813
0
LINE
8
layer1
10
-5.8970299
20
-6.0750813
11
-5.9470638
21
-6.1175186
0
LINE
8
layer1
10
-5.9470638
20
-6.1175186
11
-6.0473089
21
-6.1894121
0
LINE
8
layer1
10
-6.0473089
20
-6.1894121
11
-6.117121
21
-6.2334378
0
LINE
8
layer1
10
-6.117121
20
-6.2334378
11
-6.204223
21
-6.2833983
0
LINE
8
layer1
10
-6.204223
20
-6.2833983
11
-6.3050317
21
-6.3357078
0
LINE
8
layer1
10
-6.3050317
20
-6.3357078
11
-6.421023
21
-6.3898851
0
LINE
8
layer1
10
-6.421023
20
-6.3898851
11
-6.5550439
21
-6.4457605
0
LINE
8
layer1
10
-6.5550439
20
-6.4457605
11
-6.7025574
21
-6.5001048
0
LINE
8
layer1
10
-6.7025574
20
-6.5001048
11
-6.8673771
21
-6.5531382
0
LINE
8
layer1
10
-6.8673771
20
-6.5531382
11
-7.0483704
21
-6.6031219
0
LINE
8
layer1
10
-7.0483704
20
-6.6031219
11
-7.2456739
21
-6.6488186
0
LINE
8
layer1
10
-7.2456739
20
-6.6488186
11
-7.437033
21
-6.6850718
0
ARC
8
layer1
10
0.0000135
20
0.0000116
40
10
50
218.0479604
51
221.9520417
0
LINE
8
layer1
10
-7.8749378
20
-6.1631972
11
-7.8060062
21
-5.9810406
0
LINE
8
layer1
10
-7.8060062
20
-5.9810406
11
-7.7267423
21
-5.7946697
0
LINE
8
layer1
10
-7.7267423
20
-5.7946697
11
-7.6460888
21
-5.6251057
0
LINE
8
layer1
10
-7.6460888
20
-5.6251057
11
-7.5652405
21
-5.4719991
0
LINE
8
layer1
10
-7.5652405
20
-5.4719991
11
-7.4861063
21
-5.3361635
0
LINE
8
layer1
10
-7.4861063
20
-5.3361635
11
-7.4078073
21
-5.2138813
0
LINE
8
layer1
10
-7.4078073
20
-5.2138813
11
-7.3343114
21
-5.10906
0
LINE
8
layer1
10
-7.3343114
20
-5.10906
11
-7.2652913
21
-5.0188663
0
LINE
8
layer1
10
-7.2652913
20
-5.0188663
11
-7.2009648
21
-4.9417631
0
LINE
8
layer1
10
-7.2009648
20
-4.9417631
11
-7.1454852
21
-4.8806566
0
LINE
8
layer1
10
-7.1454852
20
-4.8806566
11
-7.0572765
21
-4.7944185
0
LINE
8
layer1
10
-7.0572765
20
-4.7944185
11
-7.0067956
21
-4.752514
0
LINE
8
layer1
10
-7.0067956
20
-4.752514
11
-6.894849
21
-4.6687712
0
LINE
8
layer1
10
-6.894849
20
-4.6687712
11
-6.817276
21
-4.5973917
0
LINE
8
layer1
10
-6.817276
20
-4.5973917
11
-6.7575526
21
-4.5283156
0
LINE
8
layer1
10
-6.7575526
20
-4.5283156
11
-6.7153367
21
-4.4629157
0
LINE
8
layer1
10
-6.7153367
20
-4.4629157
11
-6.7006594
21
-4.4320175
0
LINE
8
layer1
10
-6.7006594
20
-4.4320175
11
-6.6901843
21
-4.4025408
0
LINE
8
layer1
10
-6.6901843
20
-4.4025408
11
-6.6838488
21
-4.3746343
0
LINE
8
layer1
10
-6.6838488
20
-4.3746343
11
-6.6815751
21
-4.3484724
0
LINE
8
layer1
10
-6.6815751
20
-4.3484724
11
-6.683287
21
-4.3242074
0
LINE
8
layer1
10
-6.683287
20
-4.3242074
11
-6.688908
21
-4.3019916
0
LINE
8
layer1
10
-6.688908
20
-4.3019916
11
-6.7012973
21
-4.2773326
0
LINE
8
layer1
10
-6.7012973
20
-4.2773326
11
-6.884902
21
-3.975
0
LINE
8
layer1
10
-6.884902
20
-3.975
11
-7.0549273
21
-3.6648274
0
LINE
8
layer1
10
-7.0549273
20
-3.6648274
11
-7.070088
21
-3.6417684
0
LINE
8
layer1
10
-7.070088
20
-3.6417684
11
-7.086517
21
-3.6257926
0
LINE
8
layer1
10
-7.086517
20
-3.6257926
11
-7.1066751
21
-3.6121776
0
LINE
8
layer1
10
-7.1066751
20
-3.6121776
11
-7.1304688
21
-3.6010657
0
LINE
8
layer1
10
-7.1304688
20
-3.6010657
11
-7.1578043
21
-3.5925992
0
LINE
8
layer1
10
-7.1578043
20
-3.5925992
11
-7.1885694
21
-3.5869325
0
LINE
8
layer1
10
-7.1885694
20
-3.5869325
11
-7.2226667
21
-3.5841943
0
LINE
8
layer1
10
-7.2226667
20
-3.5841943
11
-7.3004126
21
-3.5880544
0
LINE
8
layer1
10
-7.3004126
20
-3.5880544
11
-7.390096
21
-3.6052383
0
LINE
8
layer1
10
-7.390096
20
-3.6052383
11
-7.490699
21
-3.6367288
0
LINE
8
layer1
10
-7.490699
20
-3.6367288
11
-7.6191956
21
-3.691806
0
LINE
8
layer1
10
-7.6191956
20
-3.691806
11
-7.6807265
21
-3.7145715
0
LINE
8
layer1
10
-7.6807265
20
-3.7145715
11
-7.7995152
21
-3.7478434
0
LINE
8
layer1
10
-7.7995152
20
-3.7478434
11
-7.8801748
21
-3.7653369
0
LINE
8
layer1
10
-7.8801748
20
-3.7653369
11
-7.9791113
21
-3.7824937
0
LINE
8
layer1
10
-7.9791113
20
-3.7824937
11
-8.0917314
21
-3.79717
0
LINE
8
layer1
10
-8.0917314
20
-3.79717
11
-8.2192573
21
-3.8084087
0
LINE
8
layer1
10
-8.2192573
20
-3.8084087
11
-8.3643063
21
-3.8150765
0
LINE
8
layer1
10
-8.3643063
20
-3.8150765
11
-8.5215105
21
-3.8156909
0
LINE
8
layer1
10
-8.5215105
20
-3.8156909
11
-8.6945288
21
-3.8091543
0
LINE
8
layer1
10
-8.6945288
20
-3.8091543
11
-8.8817023
21
-3.7942203
0
LINE
8
layer1
10
-8.8817023
20
-3.7942203
11
-9.0827362
21
-3.7696794
0
LINE
8
layer1
10
-9.0827362
20
-3.7696794
11
-9.2749543
21
-3.7382976
0
ARC
8
layer1
10
0.0000165
20
0.0000063
40
10
50
198.0479608
51
201.9520423
0
LINE
8
layer1
10
-9.5079585
20
-3.0981236
11
-9.3808828
21
-2.9505284
0
LINE
8
layer1
10
-9.3808828
20
-2.9505284
11
-9.2426565
21
-2.8025068
0
LINE
8
layer1
10
-9.2426565
20
-2.8025068
11
-9.1088727
21
-2.6707539
0
LINE
8
layer1
10
-9.1088727
20
-2.6707539
11
-8.9805346
21
-2.5545326
0
LINE
8
layer1
10
-8.9805346
20
-2.5545326
11
-8.8597143
21
-2.4539543
0
LINE
8
layer1
10
-8.8597143
20
-2.4539543
11
-8.7443143
21
-2.3658265
0
LINE
8
layer1
10
-8.7443143
20
-2.3658265
11
-8.6393998
21
-2.2924637
0
LINE
8
layer1
10
-8.6393998
20
-2.2924637
11
-8.543694
21
-2.2313156
0
LINE
8
layer1
10
-8.543694
20
-2.2313156
11
-8.456876
21
-2.1808633
0
LINE
8
layer1
10
-8.456876
20
-2.1808633
11
-8.3838426
21
-2.1424171
0
LINE
8
layer1
10
-8.3838426
20
-2.1424171
11
-8.2714584
21
-2.091549
0
LINE
8
layer1
10
-8.2714584
20
-2.091549
11
-8.2096897
21
-2.069437
0
LINE
8
layer1
10
-8.2096897
20
-2.069437
11
-8.0758525
21
-2.0290326
0
LINE
8
layer1
10
-8.0758525
20
-2.0290326
11
-7.9785445
21
-1.9884893
0
LINE
8
layer1
10
-7.9785445
20
-1.9884893
11
-7.8987975
21
-1.9440056
0
LINE
8
layer1
10
-7.8987975
20
-1.9440056
11
-7.8367594
21
-1.8969885
0
LINE
8
layer1
10
-7.8367594
20
-1.8969885
11
-7.8123994
21
-1.8729736
0
LINE
8
layer1
10
-7.8123994
20
-1.8729736
11
-7.7924745
21
-1.8488573
0
LINE
8
layer1
10
-7.7924745
20
-1.8488573
11
-7.7769764
21
-1.8248006
0
LINE
8
layer1
10
-7.7769764
20
-1.8248006
11
-7.765892
21
-1.8009941
0
LINE
8
layer1
10
-7.765892
20
-1.8009941
11
-7.7592015
21
-1.777607
0
LINE
8
layer1
10
-7.7592015
20
-1.777607
11
-7.7568852
21
-1.7548085
0
LINE
8
layer1
10
-7.7568852
20
-1.7548085
11
-7.7600935
21
-1.7273992
0
LINE
8
layer1
10
-7.7600935
20
-1.7273992
11
-7.8292216
21
-1.380503
0
LINE
8
layer1
10
-7.8292216
20
-1.380503
11
-7.8829079
21
-1.030884
0
LINE
8
layer1
10
-7.8829079
20
-1.030884
11
-7.8892676
21
-1.0040304
0
LINE
8
layer1
10
-7.8892676
20
-1.0040304
11
-7.8992418
21
-0.983399
0
LINE
8
layer1
10
-7.8992418
20
-0.983399
11
-7.9135277
21
-0.9637106
0
LINE
8
layer1
10
-7.9135277
20
-0.9637106
11
-7.9320859
21
-0.9451309
0
LINE
8
layer1
10
-7.9320859
20
-0.9451309
11
-7.9548772
21
-0.9278257
0
LINE
8
layer1
10
-7.9548772
20
-0.9278257
11
-7.9818488
21
-0.9119785
0
LINE
8
layer1
10
-7.9818488
20
-0.9119785
11
-8.0129532
21
-0.8977435
0
LINE
8
layer1
10
-8.0129532
20
-0.8977435
11
-8.0873308
21
-0.8747801
0
LINE
8
layer1
10
-8.0873308
20
-0.8747801
11
-8.1774828
21
-0.8602542
0
LINE
8
layer1
10
-8.1774828
20
-0.8602542
11
-8.2827891
21
-0.8554372
0
LINE
8
layer1
10
-8.2827891
20
-0.8554372
11
-8.4223739
21
-0.8632445
0
LINE
8
layer1
10
-8.4223739
20
-0.8632445
11
-8.4879803
21
-0.8635922
0
LINE
8
layer1
10
-8.4879803
20
-0.8635922
11
-8.6109848
21
-0.8542295
0
LINE
8
layer1
10
-8.6109848
20
-0.8542295
11
-8.6927632
21
-0.8430808
0
LINE
8
layer1
10
-8.6927632
20
-0.8430808
11
-8.7916011
21
-0.8253647
0
LINE
8
layer1
10
-8.7916011
20
-0.8253647
11
-8.902449
21
-0.8006375
0
LINE
8
layer1
10
-8.902449
20
-0.8006375
11
-9.026128
21
-0.767582
0
LINE
8
layer1
10
-9.026128
20
-0.767582
11
-9.1647099
21
-0.724238
0
LINE
8
layer1
10
-9.1647099
20
-0.724238
11
-9.3126437
21
-0.6710483
0
LINE
8
layer1
10
-9.3126437
20
-0.6710483
11
-9.4729921
21
-0.6057302
0
LINE
8
layer1
10
-9.4729921
20
-0.6057302
11
-9.6437699
21
-0.5276797
0
LINE
8
layer1
10
-9.6437699
20
-0.5276797
11
-9.8242865
21
-0.4358612
0
LINE
8
layer1
10
-9.8242865
20
-0.4358612
11
-9.9941791
21
-0.3406294
0
ARC
8
layer1
10
0.0000178
20
1e-7
40
10
50
178.0479597
51
181.9520409
0
LINE
8
layer1
10
-9.9941791
20
0.3406294
11
-9.8242865
21
0.4358612
0
LINE
8
layer1
10
-9.8242865
20
0.4358612
11
-9.6437699
21
0.5276797
0
LINE
8
layer1
10
-9.6437699
20
0.5276797
11
-9.4729921
21
0.6057302
0
LINE
8
layer1
10
-9.4729921
20
0.6057302
11
-9.3126437
21
0.6710483
0
LINE
8
layer1
10
-9.3126437
20
0.6710483
11
-9.1647099
21
0.724238
0
LINE
8
layer1
10
-9.1647099
20
0.724238
11
-9.026128
21
0.767582
0
LINE
8
layer1
10
-9.026128
20
0.767582
11
-8.902449
21
0.8006375
0
LINE
8
layer1
10
-8.902449
20
0.8006375
11
-8.7916011
21
0.8253647
0
LINE
8
layer1
10
-8.7916011
20
0.8253647
11
-8.6927632
21
0.8430808
0
LINE
8
layer1
10
-8.6927632
20
0.8430808
11
-8.6109848
21
0.8542295
0
LINE
8
layer1
10
-8.6109848
20
0.8542295
11
-8.4879803
21
0.8635922
0
LINE
8
layer1
10
-8.4879803
20
0.8635922
11
-8.4223739
21
0.8632445
0
LINE
8
layer1
10
-8.4223739
20
0.8632445
11
-8.2827891
21
0.8554372
0
LINE
8
layer1
10
-8.2827891
20
0.8554372
11
-8.1774828
21
0.8602542
0
LINE
8
layer1
10
-8.1774828
20
0.8602542
11
-8.0873308
21
0.8747801
0
LINE
8
layer1
10
-8.0873308
20
0.8747801
11
-8.0129532
21
0.8977435
0
LINE
8
layer1
10
-8.0129532
20
0.8977435
11
-7.9818488
21
0.9119785
0
LINE
8
layer1
10
-7.9818488
20
0.9119785
11
-7.9548772
21
0.9278257
0
LINE
8
layer1
10
-7.9548772
20
0.9278257
11
-7.9320859
21
0.9451309
0
LINE
8
layer1
10
-7.9320859
20
0.9451309
11
-7.9135277
21
0.9637106
0
LINE
8
layer1
10
-7.9135277
20
0.9637106
11
-7.8992418
21
0.983399
0
LINE
8
layer1
10
-7.8992418
20
0.983399
11
-7.8892676
21
1.0040304
0
LINE
8
layer1
10
-7.8892676
20
1.0040304
11
-7.8829079
21
1.030884
0
LINE
8
layer1
10
-7.8829079
20
1.030884
11
-7.8292216
21
1.380503
0
LINE
8
layer1
10
-7.8292216
20
1.380503
11
-7.7600935
21
1.7273992
0
LINE
8
layer1
10
-7.7600935
20
1.7273992
11
-7.7568852
21
1.7548085
0
LINE
8
layer1
10
-7.7568852
20
1.7548085
11
-7.7592015
21
1.777607
0
LINE
8
layer1
10
-7.7592015
20
1.777607
11
-7.765892
21
1.8009941
0
LINE
8
layer1
10
-7.765892
20
1.8009941
11
-7.7769764
21
1.8248006
0
LINE
8
layer1
10
-7.7769764
20
1.8248006
11
-7.7924745
21
1.8488573
0
LINE
8
layer1
10
-7.7924745
20
1.8488573
11
-7.8123994
21
1.8729736
0
LINE
8
layer1
10
-7.8123994
20
1.8729736
11
-7.8367594
21
1.8969885
0
LINE
8
layer1
10
-7.8367594
20
1.8969885
11
-7.8987975
21
1.9440056
0
LINE
8
layer1
10
-7.8987975
20
1.9440056
11
-7.9785445
21
1.9884893
0
LINE
8
layer1
10
-7.9785445
20
1.9884893
11
-8.0758525
21
2.0290326
0
LINE
8
layer1
10
-8.0758525
20
2.0290326
11
-8.2096897
21
2.069437
0
LINE
8
layer1
10
-8.2096897
20
2.069437
11
-8.2714584
21
2.091549
0
LINE
8
layer1
10
-8.2714584
20
2.091549
11
-8.3838426
21
2.1424171
0
LINE
8
layer1
10
-8.3838426
20
2.1424171
11
-8.456876
21
2.1808633
0
LINE
8
layer1
10
-8.456876
20
2.1808633
11
-8.543694
21
2.2313156
0
LINE
8
layer1
10
-8.543694
20
2.2313156
11
-8.6393998
21
2.2924637
0
LINE
8
layer1
10
-8.6393998
20
2.2924637
11
-8.7443143
21
2.3658265
0
LINE
8
layer1
10
-8.7443143
20
2.3658265
11
-8.8597143
21
2.4539543
0
LINE
8
layer1
10
-8.8597143
20
2.4539543
11
-8.9805346
21
2.5545326
0
LINE
8
layer1
10
-8.9805346
20
2.5545326
11
-9.1088727
21
2.6707539
0
LINE
8
layer1
10
-9.1088727
20
2.6707539
11
-9.2426565
21
2.8025068
0
LINE
8
layer1
10
-9.2426565
20
2.8025068
11
-9.3808828
21
2.9505284
0
LINE
8
layer1
10
-9.3808828
20
2.9505284
11
-9.5079585
21
3.0981236
0
ARC
8
layer1
10
0.0000166
20
-0.0000063
40
10
50
158.0479577
51
161.9520392
0
LINE
8
layer1
10
-9.2749543
20
3.7382976
11
-9.0827362
21
3.7696794
0
LINE
8
layer1
10
-9.0827362
20
3.7696794
11
-8.8817023
21
3.7942203
0
LINE
8
layer1
10
-8.8817023
20
3.7942203
11
-8.6945288
21
3.8091543
0
LINE
8
layer1
10
-8.6945288
20
3.8091543
11
-8.5215105
21
3.8156909
0
LINE
8
layer1
10
-8.5215105
20
3.8156909
11
-8.3643063
21
3.8150765
0
LINE
8
layer1
10
-8.3643063
20
3.8150765
11
-8.2192573
21
3.8084087
0
LINE
8
layer1
10
-8.2192573
20
3.8084087
11
-8.0917314
21
3.79717
0
LINE
8
layer1
10
-8.0917314
20
3.79717
11
-7.9791113
21
3.7824937
0
LINE
8
layer1
10
-7.9791113
20
3.7824937
11
-7.8801748
21
3.7653369
0
LINE
8
layer1
10
-7.8801748
20
3.7653369
11
-7.7995152
21
3.7478434
0
LINE
8
layer1
10
-7.7995152
20
3.7478434
11
-7.6807265
21
3.7145715
0
LINE
8
layer1
10
-7.6807265
20
3.7145715
11
-7.6191956
21
3.691806
0
LINE
8
layer1
10
-7.6191956
20
3.691806
11
-7.490699
21
3.6367288
0
LINE
8
layer1
10
-7.490699
20
3.6367288
11
-7.390096
21
3.6052383
0
LINE
8
layer1
10
-7.390096
20
3.6052383
11
-7.3004126
21
3.5880544
0
LINE
8
layer1
10
-7.3004126
20
3.5880544
11
-7.2226667
21
3.5841943
0
LINE
8
layer1
10
-7.2226667
20
3.5841943
11
-7.1885694
21
3.5869325
0
LINE
8
layer1
10
-7.1885694
20
3.5869325
11
-7.1578043
21
3.5925992
0
LINE
8
layer1
10
-7.1578043
20
3.5925992
11
-7.1304688
21
3.6010657
0
LINE
8
layer1
10
-7.1304688
20
3.6010657
11
-7.1066751
21
3.6121776
0
LINE
8
layer1
10
-7.1066751
20
3.6121776
11
-7.086517
21
3.6257926
0
LINE
8
layer1
10
-7.086517
20
3.6257926
11
-7.070088
21
3.6417684
0
LINE
8
layer1
10
-7.070088
20
3.6417684
11
-7.0549273
21
3.6648274
0
LINE
8
layer1
10
-7.0549273
20
3.6648274
11
-6.884902
21
3.975
0
LINE
8
layer1
10
-6.884902
20
3.975
11
-6.7012973
21
4.2773326
0
LINE
8
layer1
10
-6.7012973
20
4.2773326
11
-6.688908
21
4.3019916
0
LINE
8
layer1
10
-6.688908
20
4.3019916
11
-6.683287
21
4.3242074
0
LINE
8
layer1
10
-6.683287
20
4.3242074
11
-6.6815751
21
4.3484724
0
LINE
8
layer1
10
-6.6815751
20
4.3484724
11
-6.6838488
21
4.3746343
0
LINE
8
layer1
10
-6.6838488
20
4.3746343
11
-6.6901843
21
4.4025408
0
LINE
8
layer1
10
-6.6901843
20
4.4025408
11
-6.7006594
21
4.4320175
0
LINE
8
layer1
10
-6.7006594
20
4.4320175
11
-6.7153367
21
4.4629157
0
LINE
8
layer1
10
-6.7153367
20
4.4629157
11
-6.7575526
21
4.5283156
0
LINE
8
layer1
10
-6.7575526
20
4.5283156
11
-6.817276
21
4.5973917
0
LINE
8
layer1
10
-6.817276
20
4.5973917
11
-6.894849
21
4.6687712
0
LINE
8
layer1
10
-6.894849
20
4.6687712
11
-7.0067956
21
4.752514
0
LINE
8
layer1
10
-7.0067956
20
4.752514
11
-7.0572765
21
4.7944185
0
LINE
8
layer1
10
-7.0572765
20
4.7944185
11
-7.1454852
21
4.8806566
0
LINE
8
layer1
10
-7.1454852
20
4.8806566
11
-7.2009648
21
4.9417631
0
LINE
8
layer1
10
-7.2009648
20
4.9417631
11
-7.2652913
21
5.0188663
0
LINE
8
layer1
10
-7.2652913
20
5.0188663
11
-7.3343114
21
5.10906
0
LINE
8
layer1
10
-7.3343114
20
5.10906
11
-7.4078073
21
5.2138813
0
LINE
8
layer1
10
-7.4078073
20
5.2138813
11
-7.4861063
21
5.3361635
0
LINE
8
layer1
10
-7.4861063
20
5.3361635
11
-7.5652405
21
5.4719991
0
LINE
8
layer1
10
-7.5652405
20
5.4719991
11
-7.6460888
21
5.6251057
0
LINE
8
layer1
10
-7.6460888
20
5.6251057
11
-7.7267423
21
5.7946697
0
LINE
8
layer1
10
-7.7267423
20
5.7946697
11
-7.8060062
21
5.9810406
0
LINE
8
layer1
10
-7.8060062
20
5.9810406
11
-7.8749378
21
6.1631972
0
ARC
8
layer1
10
0.0000135
20
-0.0000116
40
10
50
138.0479583
51
141.9520396
0
LINE
8
layer1
10
-7.437033
20
6.6850718
11
-7.2456739
21
6.6488186
0
LINE
8
layer1
10
-7.2456739
20
6.6488186
11
-7.0483704
21
6.6031219
0
LINE
8
layer1
10
-7.0483704
20
6.6031219
11
-6.8673771
21
6.5531382
0
LINE
8
layer1
10
-6.8673771
20
6.5531382
11
-6.7025574
21
6.5001048
0
LINE
8
layer1
10
-6.7025574
20
6.5001048
11
-6.5550439
21
6.4457605
0
LINE
8
layer1
10
-6.5550439
20
6.4457605
11
-6.421023
21
6.3898851
0
LINE
8
layer1
10
-6.421023
20
6.3898851
11
-6.3050317
21
6.3357078
0
LINE
8
layer1
10
-6.3050317
20
6.3357078
11
-6.204223
21
6.2833983
0
LINE
8
layer1
10
-6.204223
20
6.2833983
11
-6.117121
21
6.2334378
0
LINE
8
layer1
10
-6.117121
20
6.2334378
11
-6.0473089
21
6.1894121
0
LINE
8
layer1
10
-6.0473089
20
6.1894121
11
-5.9470638
21
6.1175186
0
LINE
8
layer1
10
-5.9470638
20
6.1175186
11
-5.8970299
21
6.0750813
0
LINE
8
layer1
10
-5.8970299
20
6.0750813
11
-5.7951201
21
5.9793771
0
LINE
8
layer1
10
-5.7951201
20
5.9793771
11
-5.7113545
21
5.9153775
0
LINE
8
layer1
10
-5.7113545
20
5.9153775
11
-5.632957
21
5.8685565
0
LINE
8
layer1
10
-5.632957
20
5.8685565
11
-5.5612199
21
5.8383385
0
LINE
8
layer1
10
-5.5612199
20
5.8383385
11
-5.5282424
21
5.8292496
0
LINE
8
layer1
10
-5.5282424
20
5.8292496
11
-5.4973946
21
5.8240522
0
LINE
8
layer1
10
-5.4973946
20
5.8240522
11
-5.4688119
21
5.8226589
0
LINE
8
layer1
10
-5.4688119
20
5.8226589
11
-5.4426527
21
5.8249627
0
LINE
8
layer1
10
-5.4426527
20
5.8249627
11
-5.4190536
21
5.8308621
0
LINE
8
layer1
10
-5.4190536
20
5.8308621
11
-5.3981513
21
5.8402554
0
LINE
8
layer1
10
-5.3981513
20
5.8402554
11
-5.3760183
21
5.8567386
0
LINE
8
layer1
10
-5.3760183
20
5.8567386
11
-5.1101615
21
6.0900533
0
LINE
8
layer1
10
-5.1101615
20
6.0900533
11
-4.8342257
21
6.3113565
0
LINE
8
layer1
10
-4.8342257
20
6.3113565
11
-4.8141497
21
6.330291
0
LINE
8
layer1
10
-4.8141497
20
6.330291
11
-4.8012694
21
6.3492446
0
LINE
8
layer1
10
-4.8012694
20
6.3492446
11
-4.7913617
21
6.3714607
0
LINE
8
layer1
10
-4.7913617
20
6.3714607
11
-4.7845504
21
6.3968225
0
LINE
8
layer1
10
-4.7845504
20
6.3968225
11
-4.7809592
21
6.4252129
0
LINE
8
layer1
10
-4.7809592
20
6.4252129
11
-4.780721
21
6.4564946
0
LINE
8
layer1
10
-4.780721
20
6.4564946
11
-4.7839453
21
6.4905493
0
LINE
8
layer1
10
-4.7839453
20
6.4905493
11
-4.8012472
21
6.5664438
0
LINE
8
layer1
10
-4.8012472
20
6.5664438
11
-4.8337434
21
6.6517807
0
LINE
8
layer1
10
-4.8337434
20
6.6517807
11
-4.8822249
21
6.7453871
0
LINE
8
layer1
10
-4.8822249
20
6.7453871
11
-4.9587787
21
6.8623675
0
LINE
8
layer1
10
-4.9587787
20
6.8623675
11
-4.9918829
21
6.9190104
0
LINE
8
layer1
10
-4.9918829
20
6.9190104
11
-5.0452768
21
7.0302169
0
LINE
8
layer1
10
-5.0452768
20
7.0302169
11
-5.076511
21
7.1066133
0
LINE
8
layer1
10
-5.076511
20
7.1066133
11
-5.1105873
21
7.2010676
0
LINE
8
layer1
10
-5.1105873
20
7.2010676
11
-5.1445969
21
7.3094282
0
LINE
8
layer1
10
-5.1445969
20
7.3094282
11
-5.1778095
21
7.4330651
0
LINE
8
layer1
10
-5.1778095
20
7.4330651
11
-5.2095635
21
7.5747526
0
LINE
8
layer1
10
-5.2095635
20
7.5747526
11
-5.2374667
21
7.7294618
0
LINE
8
layer1
10
-5.2374667
20
7.7294618
11
-5.2610738
21
7.9009867
0
LINE
8
layer1
10
-5.2610738
20
7.9009867
11
-5.278869
21
8.0879099
0
LINE
8
layer1
10
-5.278869
20
8.0879099
11
-5.2896101
21
8.2901511
0
LINE
8
layer1
10
-5.2896101
20
8.2901511
11
-5.2920833
21
8.4848983
0
ARC
8
layer1
10
0.0000085
20
-0.0000157
40
10
50
118.0479567
51
121.9520377
0
LINE
8
layer1
10
-4.7020958
20
8.8255277
11
-4.5346764
21
8.7260123
0
LINE
8
layer1
10
-4.5346764
20
8.7260123
11
-4.3649009
21
8.6155896
0
LINE
8
layer1
10
-4.3649009
20
8.6155896
11
-4.2119183
21
8.5067169
0
LINE
8
layer1
10
-4.2119183
20
8.5067169
11
-4.0751769
21
8.4005102
0
LINE
8
layer1
10
-4.0751769
20
8.4005102
11
-3.9551465
21
8.2989906
0
LINE
8
layer1
10
-3.9551465
20
8.2989906
11
-3.8483185
21
8.2006471
0
LINE
8
layer1
10
-3.8483185
20
8.2006471
11
-3.757852
21
8.1100657
0
LINE
8
layer1
10
-3.757852
20
8.1100657
11
-3.6810138
21
8.0264322
0
LINE
8
layer1
10
-3.6810138
20
8.0264322
11
-3.6162522
21
7.9496941
0
LINE
8
layer1
10
-3.6162522
20
7.9496941
11
-3.565708
21
7.8844463
0
LINE
8
layer1
10
-3.565708
20
7.8844463
11
-3.4960973
21
7.7826027
0
LINE
8
layer1
10
-3.4960973
20
7.7826027
11
-3.4635953
21
7.7256121
0
LINE
8
layer1
10
-3.4635953
20
7.7256121
11
-3.4005641
21
7.6008244
0
LINE
8
layer1
10
-3.4005641
20
7.6008244
11
-3.3437394
21
7.5120349
0
LINE
8
layer1
10
-3.3437394
20
7.5120349
11
-3.2860836
21
7.4412239
0
LINE
8
layer1
10
-3.2860836
20
7.4412239
11
-3.229008
21
7.3882928
0
LINE
8
layer1
10
-3.229008
20
7.3882928
11
-3.2011279
21
7.3684731
0
LINE
8
layer1
10
-3.2011279
20
7.3684731
11
-3.173918
21
7.3530386
0
LINE
8
layer1
10
-3.173918
20
7.3530386
11
-3.1475356
21
7.3419534
0
LINE
8
layer1
10
-3.1475356
20
7.3419534
11
-3.122166
21
7.3351713
0
LINE
8
layer1
10
-3.122166
20
7.3351713
11
-3.0979724
21
7.3326436
0
LINE
8
layer1
10
-3.0979724
20
7.3326436
11
-3.075118
21
7.3343214
0
LINE
8
layer1
10
-3.075118
20
7.3343214
11
-3.0486822
21
7.3422406
0
LINE
8
layer1
10
-3.0486822
20
7.3422406
11
-2.7190601
21
7.4705563
0
LINE
8
layer1
10
-2.7190601
20
7.4705563
11
-2.3840752
21
7.5841377
0
LINE
8
layer1
10
-2.3840752
20
7.5841377
11
-2.3587339
21
7.5950639
0
LINE
8
layer1
10
-2.3587339
20
7.5950639
11
-2.3401479
21
7.6084691
0
LINE
8
layer1
10
-2.3401479
20
7.6084691
11
-2.3232393
21
7.6259568
0
LINE
8
layer1
10
-2.3232393
20
7.6259568
11
-2.3081645
21
7.6474595
0
LINE
8
layer1
10
-2.3081645
20
7.6474595
11
-2.2950799
21
7.6729095
0
LINE
8
layer1
10
-2.2950799
20
7.6729095
11
-2.284157
21
7.7022232
0
LINE
8
layer1
10
-2.284157
20
7.7022232
11
-2.2755395
21
7.735327
0
LINE
8
layer1
10
-2.2755395
20
7.735327
11
-2.2658405
21
7.8125621
0
LINE
8
layer1
10
-2.2658405
20
7.8125621
11
-2.26719
21
7.9038669
0
LINE
8
layer1
10
-2.26719
20
7.9038669
11
-2.2807325
21
8.0084098
0
LINE
8
layer1
10
-2.2807325
20
8.0084098
11
-2.3126598
21
8.1445183
0
LINE
8
layer1
10
-2.3126598
20
8.1445183
11
-2.3243946
21
8.2090676
0
LINE
8
layer1
10
-2.3243946
20
8.2090676
11
-2.3365336
21
8.3318292
0
LINE
8
layer1
10
-2.3365336
20
8.3318292
11
-2.339755
21
8.4143011
0
LINE
8
layer1
10
-2.339755
20
8.4143011
11
-2.339471
21
8.5147139
0
LINE
8
layer1
10
-2.339471
20
8.5147139
11
-2.3343681
21
8.6281715
0
LINE
8
layer1
10
-2.3343681
20
8.6281715
11
-2.3232913
21
8.7557116
0
LINE
8
layer1
10
-2.3232913
20
8.7557116
11
-2.3046704
21
8.8997148
0
LINE
8
layer1
10
-2.3046704
20
8.8997148
11
-2.2779772
21
9.0546374
0
LINE
8
layer1
10
-2.2779772
20
9.0546374
11
-2.2414956
21
9.2238921
0
LINE
8
layer1
10
-2.2414956
20
9.2238921
11
-2.1942861
21
9.4056288
0
LINE
8
layer1
10
-2.1942861
20
9.4056288
11
-2.1352089
21
9.599347
0
LINE
8
layer1
10
-2.1352089
20
9.599347
11
-2.0709255
21
9.7831954
0
ARC
8
layer1
10
0.0000037
20
-0.0000174
40
10
50
98.0479631
51
101.9520441
0
LINE
8
layer1
10
-1.4000165
20
9.9014948
11
-1.27673
21
9.75072
0
LINE
8
layer1
10
-1.27673
20
9.75072
11
-1.15496
21
9.58889
0
LINE
8
layer1
10
-1.15496
20
9.58889
11
-1.04844
21
9.43426
0
LINE
8
layer1
10
-1.04844
20
9.43426
11
-0.95627
21
9.28769
0
LINE
8
layer1
10
-0.95627
20
9.28769
11
-0.8782
21
9.15124
0
LINE
8
layer1
10
-0.8782
20
9.15124
11
-0.81145
21
9.02229
0
LINE
8
layer1
10
-0.81145
20
9.02229
11
-0.75742
21
8.90623
0
LINE
8
layer1
10
-0.75742
20
8.90623
11
-0.71382
21
8.80136
0
LINE
8
layer1
10
-0.71382
20
8.80136
11
-0.67921
21
8.7071
0
LINE
8
layer1
10
-0.67921
20
8.7071
11
-0.65403
21
8.6285
0
LINE
8
layer1
10
-0.65403
20
8.6285
11
-0.62345
21
8.50899
0
LINE
8
layer1
10
-0.62345
20
8.50899
11
-0.6124
21
8.44432
0
LINE
8
layer1
10
-0.6124
20
8.44432
11
-0.59585
21
8.3055
0
LINE
8
layer1
10
-0.59585
20
8.3055
11
-0.57282
21
8.20263
0
LINE
8
layer1
10
-0.57282
20
8.20263
11
-0.54286
21
8.11637
0
LINE
8
layer1
10
-0.54286
20
8.11637
11
-0.50733
21
8.04711
0
LINE
8
layer1
10
-0.50733
20
8.04711
11
-0.48791
21
8.01895
0
LINE
8
layer1
10
-0.48791
20
8.01895
11
-0.46762
21
7.99514
0
LINE
8
layer1
10
-0.46762
20
7.99514
11
-0.44662
21
7.9757
0
LINE
8
layer1
10
-0.44662
20
7.9757
11
-0.4251
21
7.96065
0
LINE
8
layer1
10
-0.4251
20
7.96065
11
-0.40323
21
7.95
0
LINE
8
layer1
10
-0.40323
20
7.95
11
-0.38118
21
7.94376
0
LINE
8
layer1
10
-0.38118
20
7.94376
11
-0.35363
21
7.94216
0
LINE
8
layer1
10
-0.35363
20
7.94216
11
0
21
7.95
0
LINE
8
layer1
10
0
20
7.95
11
0.35363
21
7.94216
0
LINE
8
layer1
10
0.35363
20
7.94216
11
0.38118
21
7.94376
0
LINE
8
layer1
10
0.38118
20
7.94376
11
0.40323
21
7.95
0
LINE
8
layer1
10
0.40323
20
7.95
11
0.4251
21
7.96065
0
LINE
8
layer1
10
0.4251
20
7.96065
11
0.44662
21
7.9757
0
LINE
8
layer1
10
0.44662
20
7.9757
11
0.46762
21
7.99514
0
LINE
8
layer1
10
0.46762
20
7.99514
11
0.48791
21
8.01895
0
LINE
8
layer1
10
0.48791
20
8.01895
11
0.50733
21
8.04711
0
LINE
8
layer1
10
0.50733
20
8.04711
11
0.54286
21
8.11637
0
LINE
8
layer1
10
0.54286
20
8.11637
11
0.57282
21
8.20263
0
LINE
8
layer1
10
0.57282
20
8.20263
11
0.59585
21
8.3055
0
LINE
8
layer1
10
0.59585
20
8.3055
11
0.6124
21
8.44432
0
LINE
8
layer1
10
0.6124
20
8.44432
11
0.62345
21
8.50899
0
LINE
8
layer1
10
0.62345
20
8.50899
11
0.65403
21
8.6285
0
LINE
8
layer1
10
0.65403
20
8.6285
11
0.67921
21
8.7071
0
LINE
8
layer1
10
0.67921
20
8.7071
11
0.71382
21
8.80136
0
LINE
8
layer1
10
0.71382
20
8.80136
11
0.75742
21
8.90623
0
LINE
8
layer1
10
0.75742
20
8.90623
11
0.81145
21
9.02229
0
LINE
8
layer1
10
0.81145
20
9.02229
11
0.8782
21
9.15124
0
LINE
8
layer1
10
0.8782
20
9.15124
11
0.95627
21
9.28769
0
LINE
8
layer1
10
0.95627
20
9.28769
11
1.04844
21
9.43426
0
LINE
8
layer1
10
1.04844
20
9.43426
11
1.15496
21
9.58889
0
LINE
8
layer1
10
1.15496
20
9.58889
11
1.27673
21
9.75072
0
LINE
8
layer1
10
1.27673
20
9.75072
11
1.4000165
21
9.9014948
0
ARC
8
layer1
10
-0.0000037
20
-0.0000174
40
10
50
78.0479559
51
81.9520369
0
LINE
8
layer1
10
2.0709255
20
9.7831954
11
2.1352089
21
9.599347
0
LINE
8
layer1
10
2.1352089
20
9.599347
11
2.1942861
21
9.4056288
0
LINE
8
layer1
10
2.1942861
20
9.4056288
11
2.2414956
21
9.2238921
0
LINE
8
layer1
10
2.2414956
20
9.2238921
11
2.2779772
21
9.0546374
0
LINE
8
layer1
10
2.2779772
20
9.0546374
11
2.3046704
21
8.8997148
0
LINE
8
layer1
10
2.3046704
20
8.8997148
11
2.3232913
21
8.7557116
0
LINE
8
layer1
10
2.3232913
20
8.7557116
11
2.3343681
21
8.6281715
0
LINE
8
layer1
10
2.3343681
20
8.6281715
11
2.339471
21
8.5147139
0
LINE
8
layer1
10
2.339471
20
8.5147139
11
2.339755
21
8.4143011
0
LINE
8
layer1
10
2.339755
20
8.4143011
11
2.3365336
21
8.3318292
0
LINE
8
layer1
10
2.3365336
20
8.3318292
11
2.3243946
21
8.2090676
0
LINE
8
layer1
10
2.3243946
20
8.2090676
11
2.3126598
21
8.1445183
0
LINE
8
layer1
10
2.3126598
20
8.1445183
11
2.2807325
21
8.0084098
0
LINE
8
layer1
10
2.2807325
20
8.0084098
11
2.26719
21
7.9038669
0
LINE
8
layer1
10
2.26719
20
7.9038669
11
2.2658405
21
7.8125621
0
LINE
8
layer1
10
2.2658405
20
7.8125621
11
2.2755395
21
7.735327
0
LINE
8
layer1
10
2.2755395
20
7.735327
11
2.284157
21
7.7022232
0
LINE
8
layer1
10
2.284157
20
7.7022232
11
2.2950799
21
7.6729095
0
LINE
8
layer1
10
2.2950799
20
7.6729095
11
2.3081645
21
7.6474595
0
LINE
8
layer1
10
2.3081645
20
7.6474595
11
2.3232393
21
7.6259568
0
LINE
8
layer1
10
2.3232393
20
7.6259568
11
2.3401479
21
7.6084691
0
LINE
8
layer1
10
2.3401479
20
7.6084691
11
2.3587339
21
7.5950639
0
LINE
8
layer1
10
2.3587339
20
7.5950639
11
2.3840752
21
7.5841377
0
LINE
8
layer1
10
2.3840752
20
7.5841377
11
2.7190601
21
7.4705563
0
LINE
8
layer1
10
2.7190601
20
7.4705563
11
3.0486822
21
7.3422406
0
LINE
8
layer1
10
3.0486822
20
7.3422406
11
3.075118
21
7.3343214
0
LINE
8
layer1
10
3.075118
20
7.3343214
11
3.0979724
21
7.3326436
0
LINE
8
layer1
10
3.0979724
20
7.3326436
11
3.122166
21
7.3351713
0
LINE
8
layer1
10
3.122166
20
7.3351713
11
3.1475356
21
7.3419534
0
LINE
8
layer1
10
3.1475356
20
7.3419534
11
3.173918
21
7.3530386
0
LINE
8
layer1
10
3.173918
20
7.3530386
11
3.2011279
21
7.3684731
0
LINE
8
layer1
10
3.2011279
20
7.3684731
11
3.229008
21
7.3882928
0
LINE
8
layer1
10
3.229008
20
7.3882928
11
3.2860836
21
7.4412239
0
LINE
8
layer1
10
3.2860836
20
7.4412239
11
3.3437394
21
7.5120349
0
LINE
8
layer1
10
3.3437394
20
7.5120349
11
3.4005641
21
7.6008244
0
LINE
8
layer1
10
3.4005641
20
7.6008244
11
3.4635953
21
7.7256121
0
LINE
8
layer1
10
3.4635953
20
7.7256121
11
3.4960973
21
7.7826027
0
LINE
8
layer1
10
3.4960973
20
7.7826027
11
3.565708
21
7.8844463
0
LINE
8
layer1
10
3.565708
20
7.8844463
11
3.6162522
21
7.9496941
0
LINE
8
layer1
10
3.6162522
20
7.9496941
11
3.6810138
21
8.0264322
0
LINE
8
layer1
10
3.6810138
20
8.0264322
11
3.757852
21
8.1100657
0
LINE
8
layer1
10
3.757852
20
8.1100657
11
3.8483185
21
8.2006471
0
LINE
8
layer1
10
3.8483185
20
8.2006471
11
3.9551465
21
8.2989906
0
LINE
8
layer1
10
3.9551465
20
8.2989906
11
4.0751769
21
8.4005102
0
LINE
8
layer1
10
4.0751769
20
8.4005102
11
4.2119183
21
8.5067169
0
LINE
8
layer1
10
4.2119183
20
8.5067169
11
4.3649009
21
8.6155896
0
LINE
8
layer1
10
4.3649009
20
8.6155896
11
4.5346764
21
8.7260123
0
LINE
8
layer1
10
4.5346764
20
8.7260123
11
4.7020958
21
8.8255277
0
ARC
8
layer1
10
-0.0000084
20
-0.0000157
40
10
50
58.0479628
51
61.9520438
0
LINE
8
layer1
10
5.2920833
20
8.4848983
11
5.2896101
21
8.2901511
0
LINE
8
layer1
10
5.2896101
20
8.2901511
11
5.278869
21
8.0879099
0
LINE
8
layer1
10
5.278869
20
8.0879099
11
5.2610738
21
7.9009867
0
LINE
8
layer1
10
5.2610738
20
7.9009867
11
5.2374667
21
7.7294618
0
LINE
8
layer1
10
5.2374667
20
7.7294618
11
5.2095635
21
7.5747526
0
LINE
8
layer1
10
5.2095635
20
7.5747526
11
5.1778095
21
7.4330651
0
LINE
8
layer1
10
5.1778095
20
7.4330651
11
5.1445969
21
7.3094282
0
LINE
8
layer1
10
5.1445969
20
7.3094282
11
5.1105873
21
7.2010676
0
LINE
8
layer1
10
5.1105873
20
7.2010676
11
5.076511
21
7.1066133
0
LINE
8
layer1
10
5.076511
20
7.1066133
11
5.0452768
21
7.0302169
0
LINE
8
layer1
10
5.0452768
20
7.0302169
11
4.9918829
21
6.9190104
0
LINE
8
layer1
10
4.9918829
20
6.9190104
11
4.9587787
21
6.8623675
0
LINE
8
layer1
10
4.9587787
20
6.8623675
11
4.8822249
21
6.7453871
0
LINE
8
layer1
10
4.8822249
20
6.7453871
11
4.8337434
21
6.6517807
0
LINE
8
layer1
10
4.8337434
20
6.6517807
11
4.8012472
21
6.5664438
0
LINE
8
layer1
10
4.8012472
20
6.5664438
11
4.7839453
21
6.4905493
0
LINE
8
layer1
10
4.7839453
20
6.4905493
11
4.780721
21
6.4564946
0
LINE
8
layer1
10
4.780721
20
6.4564946
11
4.7809592
21
6.4252129
0
LINE
8
layer1
10
4.7809592
20
6.4252129
11
4.7845504
21
6.3968225
0
LINE
8
layer1
10
4.7845504
20
6.3968225
11
4.7913617
21
6.3714607
0
LINE
8
layer1
10
4.7913617
20
6.3714607
11
4.8012694
21
6.3492446
0
LINE
8
layer1
10
4.8012694
20
6.3492446
11
4.8141497
21
6.330291
0
LINE
8
layer1
10
4.8141497
20
6.330291
11
4.8342257
21
6.3113565
0
LINE
8
layer1
10
4.8342257
20
6.3113565
11
5.1101615
21
6.0900533
0
LINE
8
layer1
10
5.1101615
20
6.0900533
11
5.3760183
21
5.8567386
0
LINE
8
layer1
10
5.3760183
20
5.8567386
11
5.3981513
21
5.8402554
0
LINE
8
layer1
10
5.3981513
20
5.8402554
11
5.4190536
21
5.8308621
0
LINE
8
layer1
10
5.4190536
20
5.8308621
11
5.4426527
21
5.8249627
0
LINE
8
layer1
10
5.4426527
20
5.8249627
11
5.4688119
21
5.8226589
0
LINE
8
layer1
10
5.4688119
20
5.8226589
11
5.4973946
21
5.8240522
0
LINE
8
layer1
10
5.4973946
20
5.8240522
11
5.5282424
21
5.8292496
0
LINE
8
layer1
10
5.5282424
20
5.8292496
11
5.5612199
21
5.8383385
0
LINE
8
layer1
10
5.5612199
20
5.8383385
11
5.632957
21
5.8685565
0
LINE
8
layer1
10
5.632957
20
5.8685565
11
5.7113545
21
5.9153775
0
LINE
8
layer1
10
5.7113545
20
5.9153775
11
5.7951201
21
5.9793771
0
LINE
8
layer1
10
5.7951201
20
5.9793771
11
5.8970299
21
6.0750813
0
LINE
8
layer1
10
5.8970299
20
6.0750813
11
5.9470638
21
6.1175186
0
LINE
8
layer1
10
5.9470638
20
6.1175186
11
6.0473089
21
6.1894121
0
LINE
8
layer1
10
6.0473089
20
6.1894121
11
6.117121
21
6.2334378
0
LINE
8
layer1
10
6.117121
20
6.2334378
11
6.204223
21
6.2833983
0
LINE
8
layer1
10
6.204223
20
6.2833983
11
6.3050317
21
6.3357078
0
LINE
8
layer1
10
6.3050317
20
6.3357078
11
6.421023
21
6.3898851
0
LINE
8
layer1
10
6.421023
20
6.3898851
11
6.5550439
21
6.4457605
0
LINE
8
layer1
10
6.5550439
20
6.4457605
11
6.7025574
21
6.5001048
0
LINE
8
layer1
10
6.7025574
20
6.5001048
11
6.8673771
21
6.5531382
0
LINE
8
layer1
10
6.8673771
20
6.5531382
11
7.0483704
21
6.6031219
0
LINE
8
layer1
10
7.0483704
20
6.6031219
11
7.2456739
21
6.6488186
0
LINE
8
layer1
10
7.2456739
20
6.6488186
11
7.437033
21
6.6850718
0
ARC
8
layer1
10
-0.0000135
20
-0.0000116
40
10
50
38.0479604
51
41.9520417
0
LINE
8
layer1
10
7.8749378
20
6.1631972
11
7.8060062
21
5.9810406
0
LINE
8
layer1
10
7.8060062
20
5.9810406
11
7.7267423
21
5.7946697
0
LINE
8
layer1
10
7.7267423
20
5.7946697
11
7.6460888
21
5.6251057
0
LINE
8
layer1
10
7.6460888
20
5.6251057
11
7.5652405
21
5.4719991
0
LINE
8
layer1
10
7.5652405
20
5.4719991
11
7.4861063
21
5.3361635
0
LINE
8
layer1
10
7.4861063
20
5.3361635
11
7.4078073
21
5.2138813
0
LINE
8
layer1
10
7.4078073
20
5.2138813
11
7.3343114
21
5.10906
0
LINE
8
layer1
10
7.3343114
20
5.10906
11
7.2652913
21
5.0188663
0
LINE
8
layer1
10
7.2652913
20
5.0188663
11
7.2009648
21
4.9417631
0
LINE
8
layer1
10
7.2009648
20
4.9417631
11
7.1454852
21
4.8806566
0
LINE
8
layer1
10
7.1454852
20
4.8806566
11
7.0572765
21
4.7944185
0
LINE
8
layer1
10
7.0572765
20
4.7944185
11
7.0067956
21
4.752514
0
LINE
8
layer1
10
7.0067956
20
4.752514
11
6.894849
21
4.6687712
0
LINE
8
layer1
10
6.894849
20
4.6687712
11
6.817276
21
4.5973917
0
LINE
8
layer1
10
6.817276
20
4.5973917
11
6.7575526
21
4.5283156
0
LINE
8
layer1
10
6.7575526
20
4.5283156
11
6.7153367
21
4.4629157
0
LINE
8
layer1
10
6.7153367
20
4.4629157
11
6.7006594
21
4.4320175
0
LINE
8
layer1
10
6.7006594
20
4.4320175
11
6.6901843
21
4.4025408
0
LINE
8
layer1
10
6.6901843
20
4.4025408
11
6.6838488
21
4.3746343
0
LINE
8
layer1
10
6.6838488
20
4.3746343
11
6.6815751
21
4.3484724
0
LINE
8
layer1
10
6.6815751
20
4.3484724
11
6.683287
21
4.3242074
0
LINE
8
layer1
10
6.683287
20
4.3242074
11
6.688908
21
4.3019916
0
LINE
8
layer1
10
6.688908
20
4.3019916
11
6.7012973
21
4.2773326
0
LINE
8
layer1
10
6.7012973
20
4.2773326
11
6.884902
21
3.975
0
LINE
8
layer1
10
6.884902
20
3.975
11
7.0549273
21
3.6648274
0
LINE
8
layer1
10
7.0549273
20
3.6648274
11
7.070088
21
3.6417684
0
LINE
8
layer1
10
7.070088
20
3.6417684
11
7.086517
21
3.6257926
0
LINE
8
layer1
10
7.086517
20
3.6257926
11
7.1066751
21
3.6121776
0
LINE
8
layer1
10
7.1066751
20
3.6121776
11
7.1304688
21
3.6010657
0
LINE
8
layer1
10
7.1304688
20
3.6010657
11
7.1578043
21
3.5925992
0
LINE
8
layer1
10
7.1578043
20
3.5925992
11
7.1885694
21
3.5869325
0
LINE
8
layer1
10
7.1885694
20
3.5869325
11
7.2226667
21
3.5841943
0
LINE
8
layer1
10
7.2226667
20
3.5841943
11
7.3004126
21
3.5880544
0
LINE
8
layer1
10
7.3004126
20
3.5880544
11
7.390096
21
3.6052383
0
LINE
8
layer1
10
7.390096
20
3.6052383
11
7.490699
21
3.6367288
0
LINE
8
layer1
10
7.490699
20
3.6367288
11
7.6191956
21
3.691806
0
LINE
8
layer1
10
7.6191956
20
3.691806
11
7.6807265
21
3.7145715
0
LINE
8
layer1
10
7.6807265
20
3.7145715
11
7.7995152
21
3.7478434
0
LINE
8
layer1
10
7.7995152
20
3.7478434
11
7.8801748
21
3.7653369
0
LINE
8
layer1
10
7.8801748
20
3.7653369
11
7.9791113
21
3.7824937
0
LINE
8
layer1
10
7.9791113
20
3.7824937
11
8.0917314
21
3.79717
0
LINE
8
layer1
10
8.0917314
20
3.79717
11
8.2192573
21
3.8084087
0
LINE
8
layer1
10
8.2192573
20
3.8084087
11
8.3643063
21
3.8150765
0
LINE
8
layer1
10
8.3643063
20
3.8150765
11
8.5215105
21
3.8156909
0
LINE
8
layer1
10
8.5215105
20
3.8156909
11
8.6945288
21
3.8091543
0
LINE
8
layer1
10
8.6945288
20
3.8091543
11
8.8817023
21
3.7942203
0
LINE
8
layer1
10
8.8817023
20
3.7942203
11
9.0827362
21
3.7696794
0
LINE
8
layer1
10
9.0827362
20
3.7696794
11
9.2749543
21
3.7382976
0
ARC
8
layer1
10
-0.0000165
20
-0.0000063
40
10
50
18.0479608
51
21.9520423
0
LINE
8
layer1
10
9.5079585
20
3.0981236
11
9.3808828
21
2.9505284
0
ENDSEC
0
EOF