0
SECTION
2
HEADER
9
$INSUNITS
70
4
9
$ACADVER
1
AC1014
9
$HANDSEED
5
FFFF
0
ENDSEC
0
SECTION
2
TABLES
0
TABLE
2
VPORT
5
8
100
AcDbSymbolTable
0
ENDTAB
0
TABLE
2
LTYPE
5
5
100
AcDbSymbolTable
0
LTYPE
5
14
100
AcDbSymbolTableRecord
100
AcDbLinetypeTableRecord
2
BYBLOCK
70
0
0
LTYPE
5
15
100
AcDbSymbolTableRecord
100
AcDbLinetypeTableRecord
2
BYLAYER
70
0
0
LTYPE
5
16
100
AcDbSymbolTableRecord
100
AcDbLinetypeTableRecord
2
DASHED
70
0
3
Dashed __ __ __ __ __ __ __ __ __ __ __ __ __ _
72
65
73
2
40
0.75
49
0.5
74
0
49
-0.25
74
0
0
ENDTAB
0
TABLE
2
LAYER
5
2
100
AcDbSymbolTable
70
2
0
LAYER
5
50
100
AcDbSymbolTableRecord
100
AcDbLayerTableRecord
2
0
70
0
62
7
6
CONTINUOUS
0
ENDTAB
0
TABLE
2
STYLE
5
3
100
AcDbSymbolTable
70
1
0
STYLE
5
11
100
AcDbSymbolTableRecord
100
AcDbTextStyleTableRecord
2
STANDARD
70
0
0
ENDTAB
0
TABLE
2
VIEW
5
6
100
AcDbSymbolTable
70
0
0
ENDTAB
0
TABLE
2
UCS
5
7
100
AcDbSymbolTable
70
0
0
ENDTAB
0
TABLE
2
APPID
5
9
100
AcDbSymbolTable
70
2
0
APPID
5
12
100
AcDbSymbolTableRecord
100
AcDbRegAppTableRecord
2
ACAD
70
0
0
ENDTAB
0
TABLE
2
DIMSTYLE
5
A
100
AcDbSymbolTable
70
1
0
ENDTAB
0
TABLE
2
BLOCK_RECORD
5
1
100
AcDbSymbolTable
70
1
0
BLOCK_RECORD
5
1F
100
AcDbSymbolTableRecord
100
AcDbBlockTableRecord
2
*MODEL_SPACE
0
BLOCK_RECORD
5
1B
100
AcDbSymbolTableRecord
100
AcDbBlockTableRecord
2
*PAPER_SPACE
0
ENDTAB
0
ENDSEC
0
SECTION
2
BLOCKS
0
BLOCK
5
20
100
AcDbEntity
100
AcDbBlockBegin
2
*MODEL_SPACE
0
ENDBLK
5
21
100
AcDbEntity
100
AcDbBlockEnd
0
BLOCK
5
1C
100
AcDbEntity
100
AcDbBlockBegin
2
*PAPER_SPACE
0
ENDBLK
5
1D
100
AcDbEntity
100
AcDbBlockEnd
0
ENDSEC
0
SECTION
2
ENTITIES
0
ARC
5
100
100
AcDbEntity
8
0
100
AcDbCircle
10
0
20
0
30
0
40
10.749200000000002
210
-0
220
0
230
1
100
AcDbArc
50
352.15175096458489
51
352.84824903541511
0
ARC
5
101
100
AcDbEntity
8
0
100
AcDbCircle
10
11.161680022714837
20
-1.4004998074003736
30
0
40
0.5
210
0
220
-0
230
1
100
AcDbArc
50
85.481400390070263
51
172.84824903541531
0
LINE
5
102
100
AcDbEntity
8
0
100
AcDbLine
10
11.201071380370928
20
-0.90205390166735433
30
0
11
11.239926575775423
21
-0.90512456366170824
31
0
0
LWPOLYLINE
5
103
100
AcDbEntity
8
0
100
AcDbPolyline
90
2
43
0.0
10
11.239926575775423
20
-0.9051245636617081
10
12.995077114359887
20
-0.3577300544265452
0
ARC
5
104
100
AcDbEntity
8
0
100
AcDbCircle
10
0
20
0
30
0
40
13.000000000000005
210
-0
220
0
230
1
100
AcDbArc
50
-1.5768469180490945
51
1.5768469180490796
0
LWPOLYLINE
5
105
100
AcDbEntity
8
0
100
AcDbPolyline
90
2
43
0.0
10
12.995077114359887
20
0.35773005442654526
10
11.239926575775423
20
0.9051245636617083
0
LINE
5
106
100
AcDbEntity
8
0
100
AcDbLine
10
11.239926575775423
20
0.90512456366170835
30
0
11
11.201071380370928
21
0.90205390166735411
31
0
0
ARC
5
107
100
AcDbEntity
8
0
100
AcDbCircle
10
11.161680022714837
20
1.4004998074003738
30
0
40
0.50000000000000022
210
0
220
0
230
1
100
AcDbArc
50
187.15175096458486
51
274.51859960992971
0
ARC
5
108
100
AcDbEntity
8
0
100
AcDbCircle
10
0
20
0
30
0
40
10.749199999999998
210
0
220
-0
230
1
100
AcDbArc
50
7.1517509645848287
51
7.8482490354150842
0
ARC
5
109
100
AcDbEntity
8
0
100
AcDbCircle
10
11.143831021532646
20
1.5360764315380488
30
0
40
0.50000000000000044
210
0
220
0
230
1
100
AcDbArc
50
100.48140039007046
51
187.84824903541517
0
LINE
5
110
100
AcDbEntity
8
0
100
AcDbLine
10
11.052872857868172
20
2.0277334384674601
30
0
11
11.091198840400091
21
2.0348238713151727
31
0
0
LWPOLYLINE
5
111
100
AcDbEntity
8
0
100
AcDbPolyline
90
2
43
0.0
10
11.091198840400091
20
2.0348238713151723
10
12.644867950469386
20
3.017832751361852
0
ARC
5
112
100
AcDbEntity
8
0
100
AcDbCircle
10
0
20
0
30
0
40
13.000000000000005
210
0
220
-0
230
1
100
AcDbArc
50
13.423153081950808
51
16.576846918049153
0
LWPOLYLINE
5
113
100
AcDbEntity
8
0
100
AcDbPolyline
90
2
43
0.0
10
12.459693248287085
20
3.708914148182641
10
10.622671889868576
20
3.783390255414109
0
LINE
5
114
100
AcDbEntity
8
0
100
AcDbLine
10
10.622671889868576
20
3.7833902554141092
30
0
11
10.585935398947077
21
3.7703677591180949
31
0
0
ARC
5
115
100
AcDbEntity
8
0
100
AcDbCircle
10
10.418878975897387
20
4.2416342988998235
30
0
40
0.5
210
0
220
0
230
1
100
AcDbArc
50
202.15175096458492
51
289.51859960992977
0
ARC
5
116
100
AcDbEntity
8
0
100
AcDbCircle
10
0
20
0
30
0
40
10.749199999999998
210
0
220
-0
230
1
100
AcDbArc
50
22.151750964584895
51
22.848249035415119
0
ARC
5
117
100
AcDbEntity
8
0
100
AcDbCircle
10
10.366548352284505
20
4.3679716001534814
30
0
40
0.49999999999999967
210
0
220
0
230
1
100
AcDbArc
50
115.48140039007038
51
202.84824903541443
0
LINE
5
118
100
AcDbEntity
8
0
100
AcDbLine
10
10.151439315837729
20
4.8193340957586646
30
0
11
10.186624233124208
21
4.8361024221673663
31
0
0
LWPOLYLINE
5
119
100
AcDbEntity
8
0
100
AcDbPolyline
90
2
43
0.0
10
10.186624233124208
20
4.836102422167365
10
11.432931932386712
20
6.1877352423493654
0
ARC
5
120
100
AcDbEntity
8
0
100
AcDbCircle
10
0
20
0
30
0
40
13.000000000000005
210
0
220
-0
230
1
100
AcDbArc
50
28.423153081950815
51
31.576846918049149
0
LWPOLYLINE
5
121
100
AcDbEntity
8
0
100
AcDbPolyline
90
2
43
0.0
10
11.075201877960167
20
6.807341872010522
10
9.2814996694625
20
6.403824153608056
0
LINE
5
122
100
AcDbEntity
8
0
100
AcDbLine
10
9.2814996694624998
20
6.4038241536080562
30
0
11
9.2493854141703764
21
6.381737284612262
31
0
0
ARC
5
123
100
AcDbEntity
8
0
100
AcDbCircle
10
8.9660485448841332
20
6.7937084225613562
30
0
40
0.49999999999999989
210
0
220
0
230
1
100
AcDbArc
50
217.15175096458489
51
304.51859960992959
0
ARC
5
124
100
AcDbEntity
8
0
100
AcDbCircle
10
0
20
0
30
0
40
10.749199999999998
210
0
220
-0
230
1
100
AcDbArc
50
37.151750964584899
51
37.848249035415108
0
ARC
5
125
100
AcDbEntity
8
0
100
AcDbCircle
10
8.8828025443593361
20
6.902196722632822
30
0
40
0.50000000000000089
210
0
220
0
230
1
100
AcDbArc
50
130.48140039007018
51
217.84824903541502
0
LINE
5
126
100
AcDbEntity
8
0
100
AcDbLine
10
8.5582019604796145
20
7.2825050987500788
30
0
11
8.5878480185534016
21
7.3078085849859846
31
0
0
LWPOLYLINE
5
127
100
AcDbEntity
8
0
100
AcDbPolyline
90
2
43
0.0
10
8.5878480185534
20
7.307808584985984
10
9.441860496925234
20
8.935953802286745
0
ARC
5
128
100
AcDbEntity
8
0
100
AcDbCircle
10
0
20
0
30
0
40
13.000000000000007
210
0
220
-0
230
1
100
AcDbArc
50
43.423153081950801
51
46.576846918049149
0
LWPOLYLINE
5
129
100
AcDbEntity
8
0
100
AcDbPolyline
90
2
43
0.0
10
8.935953802286747
20
9.441860496925232
10
7.307808584985983
20
8.587848018553403
0
LINE
5
130
100
AcDbEntity
8
0
100
AcDbLine
10
7.3078085849859828
20
8.5878480185534034
30
0
11
7.282505098750077
21
8.5582019604796145
31
0
0
ARC
5
131
100
AcDbEntity
8
0
100
AcDbCircle
10
6.9021967226328211
20
8.8828025443593379
30
0
40
0.50000000000000056
210
0
220
0
230
1
100
AcDbArc
50
232.15175096458495
51
319.51859960992959
0
ARC
5
132
100
AcDbEntity
8
0
100
AcDbCircle
10
0
20
0
30
0
40
10.749199999999998
210
0
220
-0
230
1
100
AcDbArc
50
52.151750964584899
51
52.848249035415087
0
ARC
5
133
100
AcDbEntity
8
0
100
AcDbCircle
10
6.7937084225613589
20
8.9660485448841314
30
0
40
0.50000000000000067
210
0
220
0
230
1
100
AcDbArc
50
145.48140039007018
51
232.84824903541499
0
LINE
5
134
100
AcDbEntity
8
0
100
AcDbLine
10
6.3817372846122655
20
9.2493854141703764
30
0
11
6.403824153608058
21
9.2814996694624998
31
0
0
LWPOLYLINE
5
135
100
AcDbEntity
8
0
100
AcDbPolyline
90
2
43
0.0
10
6.403824153608057
20
9.2814996694625
10
6.807341872010523
20
11.075201877960165
0
ARC
5
136
100
AcDbEntity
8
0
100
AcDbCircle
10
0
20
0
30
0
40
13.000000000000005
210
0
220
-0
230
1
100
AcDbArc
50
58.423153081950815
51
61.576846918049149
0
LWPOLYLINE
5
137
100
AcDbEntity
8
0
100
AcDbPolyline
90
2
43
0.0
10
6.187735242349369
20
11.432931932386712
10
4.83610242216737
20
10.186624233124208
0
LINE
5
138
100
AcDbEntity
8
0
100
AcDbLine
10
4.8361024221673699
20
10.186624233124208
30
0
11
4.8193340957586672
21
10.151439315837729
31
0
0
ARC
5
139
100
AcDbEntity
8
0
100
AcDbCircle
10
4.3679716001534858
20
10.366548352284505
30
0
40
0.50000000000000022
210
0
220
0
230
1
100
AcDbArc
50
247.15175096458472
51
334.51859960992959
0
ARC
5
140
100
AcDbEntity
8
0
100
AcDbCircle
10
0
20
0
30
0
40
10.749199999999998
210
0
220
-0
230
1
100
AcDbArc
50
67.151750964584878
51
67.84824903541508
0
ARC
5
141
100
AcDbEntity
8
0
100
AcDbCircle
10
4.2416342988998244
20
10.418878975897387
30
0
40
0.49999999999999978
210
0
220
0
230
1
100
AcDbArc
50
160.48140039007021
51
247.84824903541559
0
LINE
5
142
100
AcDbEntity
8
0
100
AcDbLine
10
3.7703677591180966
20
10.585935398947077
30
0
11
3.7833902554141119
21
10.622671889868576
31
0
0
LWPOLYLINE
5
143
100
AcDbEntity
8
0
100
AcDbPolyline
90
2
43
0.0
10
3.783390255414112
20
10.622671889868576
10
3.708914148182645
20
12.459693248287087
0
ARC
5
144
100
AcDbEntity
8
0
100
AcDbCircle
10
0
20
0
30
0
40
13.000000000000009
210
0
220
-0
230
1
100
AcDbArc
50
73.423153081950815
51
76.576846918049142
0
LWPOLYLINE
5
145
100
AcDbEntity
8
0
100
AcDbPolyline
90
2
43
0.0
10
3.0178327513618575
20
12.644867950469386
10
2.0348238713151754
20
11.091198840400091
0
LINE
5
146
100
AcDbEntity
8
0
100
AcDbLine
10
2.0348238713151754
20
11.091198840400091
30
0
11
2.0277334384674632
21
11.052872857868172
31
0
0
ARC
5
147
100
AcDbEntity
8
0
100
AcDbCircle
10
1.5360764315380504
20
11.143831021532646
30
0
40
0.50000000000000122
210
0
220
0
230
1
100
AcDbArc
50
262.15175096458495
51
349.51859960992959
0
ARC
5
148
100
AcDbEntity
8
0
100
AcDbCircle
10
0
20
0
30
0
40
10.749199999999998
210
0
220
-0
230
1
100
AcDbArc
50
82.151750964584906
51
82.848249035415094
0
ARC
5
149
100
AcDbEntity
8
0
100
AcDbCircle
10
1.4004998074003732
20
11.161680022714837
30
0
40
0.5
210
0
220
0
230
1
100
AcDbArc
50
175.48140039007038
51
262.84824903541505
0
LINE
5
150
100
AcDbEntity
8
0
100
AcDbLine
10
0.902053901667354
20
11.201071380370928
30
0
11
0.90512456366170946
21
11.239926575775423
31
0
0
LWPOLYLINE
5
151
100
AcDbEntity
8
0
100
AcDbPolyline
90
2
43
0.0
10
0.9051245636617095
20
11.239926575775423
10
0.3577300544265454
20
12.995077114359887
0
ARC
5
152
100
AcDbEntity
8
0
100
AcDbCircle
10
0
20
0
30
0
40
13.000000000000005
210
0
220
-0
230
1
100
AcDbArc
50
88.423153081950815
51
91.576846918049142
0
LWPOLYLINE
5
153
100
AcDbEntity
8
0
100
AcDbPolyline
90
2
43
0.0
10
-0.35773005442654493
20
12.995077114359887
10
-0.9051245636617073
20
11.239926575775423
0
LINE
5
154
100
AcDbEntity
8
0
100
AcDbLine
10
-0.90512456366170735
20
11.239926575775423
30
0
11
-0.90205390166735333
21
11.201071380370928
31
0
0
ARC
5
155
100
AcDbEntity
8
0
100
AcDbCircle
10
-1.4004998074003718
20
11.161680022714837
30
0
40
0.50000000000000022
210
-0
220
0
230
1
100
AcDbArc
50
-82.848249035415094
51
4.5185996099296437
0
ARC
5
156
100
AcDbEntity
8
0
100
AcDbCircle
10
0
20
0
30
0
40
10.749199999999998
210
0
220
0
230
1
100
AcDbArc
50
97.151750964584892
51
97.84824903541508
0
ARC
5
157
100
AcDbEntity
8
0
100
AcDbCircle
10
-1.5360764315380491
20
11.143831021532646
30
0
40
0.50000000000000022
210
0
220
0
230
1
100
AcDbArc
50
190.48140039007043
51
277.84824903541528
0
LINE
5
158
100
AcDbEntity
8
0
100
AcDbLine
10
-2.0277334384674601
20
11.052872857868172
30
0
11
-2.0348238713151718
21
11.091198840400091
31
0
0
LWPOLYLINE
5
159
100
AcDbEntity
8
0
100
AcDbPolyline
90
2
43
0.0
10
-2.0348238713151714
20
11.091198840400091
10
-3.0178327513618513
20
12.644867950469386
0
ARC
5
160
100
AcDbEntity
8
0
100
AcDbCircle
10
0
20
0
30
0
40
13.000000000000005
210
0
220
0
230
1
100
AcDbArc
50
103.42315308195082
51
106.57684691804916
0
LWPOLYLINE
5
161
100
AcDbEntity
8
0
100
AcDbPolyline
90
2
43
0.0
10
-3.7089141481826395
20
12.459693248287085
10
-3.783390255414108
20
10.622671889868576
0
LINE
5
162
100
AcDbEntity
8
0
100
AcDbLine
10
-3.7833902554141079
20
10.622671889868576
30
0
11
-3.770367759118094
21
10.585935398947077
31
0
0
ARC
5
163
100
AcDbEntity
8
0
100
AcDbCircle
10
-4.2416342988998235
20
10.418878975897387
30
0
40
0.5
210
-0
220
0
230
1
100
AcDbArc
50
-67.84824903541508
51
19.518599609929726
0
ARC
5
164
100
AcDbEntity
8
0
100
AcDbCircle
10
0
20
0
30
0
40
10.749199999999998
210
0
220
0
230
1
100
AcDbArc
50
112.15175096458491
51
112.84824903541514
0
ARC
5
165
100
AcDbEntity
8
0
100
AcDbCircle
10
-4.3679716001534805
20
10.366548352284507
30
0
40
0.50000000000000022
210
0
220
0
230
1
100
AcDbArc
50
205.48140039007035
51
292.84824903541443
0
LINE
5
166
100
AcDbEntity
8
0
100
AcDbLine
10
-4.8193340957586637
20
10.151439315837731
30
0
11
-4.8361024221673645
21
10.18662423312421
31
0
0
LWPOLYLINE
5
167
100
AcDbEntity
8
0
100
AcDbPolyline
90
2
43
0.0
10
-4.836102422167364
20
10.18662423312421
10
-6.187735242349364
20
11.432931932386714
0
ARC
5
168
100
AcDbEntity
8
0
100
AcDbCircle
10
0
20
0
30
0
40
13.000000000000005
210
0
220
0
230
1
100
AcDbArc
50
118.42315308195082
51
121.57684691804914
0
LWPOLYLINE
5
169
100
AcDbEntity
8
0
100
AcDbPolyline
90
2
43
0.0
10
-6.807341872010519
20
11.07520187796017
10
-6.403824153608056
20
9.281499669462502
0
LINE
5
170
100
AcDbEntity
8
0
100
AcDbLine
10
-6.4038241536080562
20
9.2814996694625034
30
0
11
-6.3817372846122602
21
9.2493854141703764
31
0
0
ARC
5
171
100
AcDbEntity
8
0
100
AcDbCircle
10
-6.7937084225613535
20
8.9660485448841349
30
0
40
0.49999999999999989
210
-0
220
0
230
1
100
AcDbArc
50
-52.848249035415037
51
34.518599609929474
0
ARC
5
172
100
AcDbEntity
8
0
100
AcDbCircle
10
0
20
0
30
0
40
10.749199999999998
210
0
220
0
230
1
100
AcDbArc
50
127.15175096458488
51
127.84824903541511
0
ARC
5
173
100
AcDbEntity
8
0
100
AcDbCircle
10
-6.902196722632822
20
8.8828025443593379
30
0
40
0.50000000000000067
210
0
220
0
230
1
100
AcDbArc
50
220.48140039007049
51
307.84824903541511
0
LINE
5
174
100
AcDbEntity
8
0
100
AcDbLine
10
-7.282505098750077
20
8.5582019604796145
30
0
11
-7.3078085849859846
21
8.5878480185534016
31
0
0
LWPOLYLINE
5
175
100
AcDbEntity
8
0
100
AcDbPolyline
90
2
43
0.0
10
-7.307808584985984
20
8.587848018553402
10
-8.935953802286745
20
9.441860496925234
0
ARC
5
176
100
AcDbEntity
8
0
100
AcDbCircle
10
0
20
0
30
0
40
13.000000000000007
210
0
220
0
230
1
100
AcDbArc
50
133.4231530819508
51
136.57684691804914
0
LWPOLYLINE
5
177
100
AcDbEntity
8
0
100
AcDbPolyline
90
2
43
0.0
10
-9.441860496925232
20
8.935953802286747
10
-8.5878480185534
20
7.307808584985983
0
LINE
5
178
100
AcDbEntity
8
0
100
AcDbLine
10
-8.5878480185534016
20
7.3078085849859828
30
0
11
-8.5582019604796127
21
7.2825050987500788
31
0
0
ARC
5
179
100
AcDbEntity
8
0
100
AcDbCircle
10
-8.8828025443593361
20
6.9021967226328229
30
0
40
0.50000000000000022
210
-0
220
0
230
1
100
AcDbArc
50
-37.848249035415201
51
49.518599609929602
0
ARC
5
180
100
AcDbEntity
8
0
100
AcDbCircle
10
0
20
0
30
0
40
10.749199999999998
210
0
220
0
230
1
100
AcDbArc
50
142.15175096458489
51
142.84824903541508
0
ARC
5
181
100
AcDbEntity
8
0
100
AcDbCircle
10
-8.9660485448841314
20
6.7937084225613589
30
0
40
0.49999999999999978
210
0
220
0
230
1
100
AcDbArc
50
235.48140039007029
51
322.84824903541505
0
LINE
5
182
100
AcDbEntity
8
0
100
AcDbLine
10
-9.2493854141703746
20
6.3817372846122664
30
0
11
-9.2814996694624963
21
6.4038241536080598
31
0
0
LWPOLYLINE
5
183
100
AcDbEntity
8
0
100
AcDbPolyline
90
2
43
0.0
10
-9.281499669462496
20
6.40382415360806
10
-11.075201877960165
20
6.807341872010526
0
ARC
5
184
100
AcDbEntity
8
0
100
AcDbCircle
10
0
20
0
30
0
40
13.000000000000005
210
0
220
0
230
1
100
AcDbArc
50
148.4231530819508
51
151.57684691804914
0
LWPOLYLINE
5
185
100
AcDbEntity
8
0
100
AcDbPolyline
90
2
43
0.0
10
-11.432931932386708
20
6.18773524234937
10
-10.186624233124208
20
4.836102422167371
0
LINE
5
186
100
AcDbEntity
8
0
100
AcDbLine
10
-10.186624233124208
20
4.8361024221673707
30
0
11
-10.151439315837727
21
4.8193340957586699
31
0
0
ARC
5
187
100
AcDbEntity
8
0
100
AcDbCircle
10
-10.366548352284504
20
4.3679716001534867
30
0
40
0.49999999999999967
210
-0
220
0
230
1
100
AcDbArc
50
-22.848249035415069
51
64.518599609929637
0
ARC
5
188
100
AcDbEntity
8
0
100
AcDbCircle
10
0
20
0
30
0
40
10.749199999999998
210
0
220
0
230
1
100
AcDbArc
50
157.15175096458489
51
157.84824903541511
0
ARC
5
189
100
AcDbEntity
8
0
100
AcDbCircle
10
-10.418878975897385
20
4.2416342988998252
30
0
40
0.50000000000000022
210
0
220
0
230
1
100
AcDbArc
50
250.48140039007023
51
337.84824903541545
0
LINE
5
190
100
AcDbEntity
8
0
100
AcDbLine
10
-10.585935398947075
20
3.7703677591180966
30
0
11
-10.622671889868576
21
3.7833902554141119
31
0
0
LWPOLYLINE
5
191
100
AcDbEntity
8
0
100
AcDbPolyline
90
2
43
0.0
10
-10.622671889868576
20
3.783390255414112
10
-12.459693248287087
20
3.708914148182645
0
ARC
5
192
100
AcDbEntity
8
0
100
AcDbCircle
10
0
20
0
30
0
40
13.000000000000009
210
0
220
0
230
1
100
AcDbArc
50
163.42315308195083
51
166.57684691804914
0
LWPOLYLINE
5
193
100
AcDbEntity
8
0
100
AcDbPolyline
90
2
43
0.0
10
-12.644867950469386
20
3.0178327513618575
10
-11.091198840400091
20
2.0348238713151754
0
LINE
5
194
100
AcDbEntity
8
0
100
AcDbLine
10
-11.091198840400091
20
2.0348238713151754
30
0
11
-11.052872857868172
21
2.0277334384674632
31
0
0
ARC
5
195
100
AcDbEntity
8
0
100
AcDbCircle
10
-11.143831021532646
20
1.5360764315380488
30
0
40
0.50000000000000122
210
-0
220
0
230
1
100
AcDbArc
50
-7.8482490354150869
51
79.518599609929595
0
ARC
5
196
100
AcDbEntity
8
0
100
AcDbCircle
10
0
20
0
30
0
40
10.749199999999998
210
0
220
0
230
1
100
AcDbArc
50
172.15175096458492
51
172.84824903541519
0
ARC
5
197
100
AcDbEntity
8
0
100
AcDbCircle
10
-11.161680022714837
20
1.4004998074003738
30
0
40
0.5
210
0
220
0
230
1
100
AcDbArc
50
265.48140039007023
51
352.84824903541511
0
LINE
5
198
100
AcDbEntity
8
0
100
AcDbLine
10
-11.201071380370928
20
0.90205390166735455
30
0
11
-11.239926575775423
21
0.90512456366170946
31
0
0
LWPOLYLINE
5
199
100
AcDbEntity
8
0
100
AcDbPolyline
90
2
43
0.0
10
-11.239926575775423
20
0.9051245636617095
10
-12.995077114359887
20
0.3577300544265465
0
ARC
5
200
100
AcDbEntity
8
0
100
AcDbCircle
10
0
20
0
30
0
40
13.000000000000005
210
0
220
0
230
1
100
AcDbArc
50
178.42315308195091
51
181.57684691804909
0
LWPOLYLINE
5
201
100
AcDbEntity
8
0
100
AcDbPolyline
90
2
43
0.0
10
-12.995077114359889
20
-0.3577300544265438
10
-11.239926575775423
20
-0.9051245636617068
0
LINE
5
202
100
AcDbEntity
8
0
100
AcDbLine
10
-11.239926575775423
20
-0.90512456366170679
30
0
11
-11.201071380370928
21
-0.90205390166735278
31
0
0
ARC
5
203
100
AcDbEntity
8
0
100
AcDbCircle
10
-11.161680022714837
20
-1.4004998074003738
30
0
40
0.50000000000000022
210
0
220
-0
230
1
100
AcDbArc
50
7.1517509645848811
51
94.518599609929723
0
ARC
5
204
100
AcDbEntity
8
0
100
AcDbCircle
10
0
20
0
30
0
40
10.749199999999998
210
0
220
0
230
1
100
AcDbArc
50
187.15175096458481
51
187.84824903541511
0
ARC
5
205
100
AcDbEntity
8
0
100
AcDbCircle
10
-11.143831021532646
20
-1.5360764315380437
30
0
40
0.50000000000000022
210
-0
220
0
230
1
100
AcDbArc
50
-79.518599609929552
51
7.8482490354147121
0
LINE
5
206
100
AcDbEntity
8
0
100
AcDbLine
10
-11.052872857868172
20
-2.0277334384674548
30
0
11
-11.091198840400093
21
-2.0348238713151683
31
0
0
LWPOLYLINE
5
207
100
AcDbEntity
8
0
100
AcDbPolyline
90
2
43
0.0
10
-11.091198840400093
20
-2.0348238713151683
10
-12.644867950469388
20
-3.0178327513618473
0
ARC
5
208
100
AcDbEntity
8
0
100
AcDbCircle
10
0
20
0
30
0
40
13.000000000000005
210
0
220
0
230
1
100
AcDbArc
50
193.42315308195077
51
196.57684691804914
0
LWPOLYLINE
5
209
100
AcDbEntity
8
0
100
AcDbPolyline
90
2
43
0.0
10
-12.459693248287087
20
-3.708914148182636
10
-10.622671889868577
20
-3.7833902554141043
0
LINE
5
210
100
AcDbEntity
8
0
100
AcDbLine
10
-10.622671889868577
20
-3.7833902554141048
30
0
11
-10.585935398947077
21
-3.7703677591180904
31
0
0
ARC
5
211
100
AcDbEntity
8
0
100
AcDbCircle
10
-10.418878975897387
20
-4.2416342988998208
30
0
40
0.49999999999999983
210
0
220
-0
230
1
100
AcDbArc
50
22.151750964584895
51
109.51859960992971
0
ARC
5
212
100
AcDbEntity
8
0
100
AcDbCircle
10
0
20
0
30
0
40
10.749199999999998
210
0
220
0
230
1
100
AcDbArc
50
202.15175096458489
51
202.84824903541505
0
ARC
5
213
100
AcDbEntity
8
0
100
AcDbCircle
10
-10.366548352284507
20
-4.3679716001534779
30
0
40
0.50000000000000022
210
-0
220
0
230
1
100
AcDbArc
50
-64.518599609929666
51
22.848249035415332
0
LINE
5
214
100
AcDbEntity
8
0
100
AcDbLine
10
-10.151439315837731
20
-4.8193340957586619
30
0
11
-10.186624233124208
21
-4.8361024221673627
31
0
0
LWPOLYLINE
5
215
100
AcDbEntity
8
0
100
AcDbPolyline
90
2
43
0.0
10
-10.186624233124208
20
-4.836102422167363
10
-11.432931932386712
20
-6.187735242349361
0
ARC
5
216
100
AcDbEntity
8
0
100
AcDbCircle
10
0
20
0
30
0
40
13.000000000000004
210
0
220
0
230
1
100
AcDbArc
50
208.42315308195077
51
211.57684691804914
0
LWPOLYLINE
5
217
100
AcDbEntity
8
0
100
AcDbPolyline
90
2
43
0.0
10
-11.075201877960167
20
-6.807341872010518
10
-9.2814996694625
20
-6.403824153608054
0
LINE
5
218
100
AcDbEntity
8
0
100
AcDbLine
10
-9.2814996694625016
20
-6.4038241536080545
30
0
11
-9.24938541417038
21
-6.3817372846122602
31
0
0
ARC
5
219
100
AcDbEntity
8
0
100
AcDbCircle
10
-8.9660485448841349
20
-6.7937084225613544
30
0
40
0.50000000000000067
210
0
220
-0
230
1
100
AcDbArc
50
37.151750964584785
51
124.51859960992978
0
ARC
5
220
100
AcDbEntity
8
0
100
AcDbCircle
10
0
20
0
30
0
40
10.749199999999998
210
0
220
0
230
1
100
AcDbArc
50
217.15175096458489
51
217.84824903541502
0
ARC
5
221
100
AcDbEntity
8
0
100
AcDbCircle
10
-8.8828025443593432
20
-6.9021967226328149
30
0
40
0.5
210
-0
220
0
230
1
100
AcDbArc
50
-49.518599609929737
51
37.848249035414582
0
LINE
5
222
100
AcDbEntity
8
0
100
AcDbLine
10
-8.5582019604796216
20
-7.2825050987500708
30
0
11
-8.5878480185534052
21
-7.3078085849859793
31
0
0
LWPOLYLINE
5
223
100
AcDbEntity
8
0
100
AcDbPolyline
90
2
43
0.0
10
-8.587848018553405
20
-7.307808584985979
10
-9.441860496925237
20
-8.93595380228674
0
ARC
5
224
100
AcDbEntity
8
0
100
AcDbCircle
10
0
20
0
30
0
40
13.000000000000007
210
0
220
0
230
1
100
AcDbArc
50
223.42315308195077
51
226.57684691804911
0
LWPOLYLINE
5
225
100
AcDbEntity
8
0
100
AcDbPolyline
90
2
43
0.0
10
-8.93595380228675
20
-9.441860496925226
10
-7.307808584985987
20
-8.587848018553398
0
LINE
5
226
100
AcDbEntity
8
0
100
AcDbLine
10
-7.3078085849859873
20
-8.5878480185533981
30
0
11
-7.2825050987500815
21
-8.5582019604796109
31
0
0
ARC
5
227
100
AcDbEntity
8
0
100
AcDbCircle
10
-6.9021967226328247
20
-8.8828025443593344
30
0
40
0.50000000000000022
210
0
220
-0
230
1
100
AcDbArc
50
52.151750964584835
51
139.51859960992968
0
ARC
5
228
100
AcDbEntity
8
0
100
AcDbCircle
10
0
20
0
30
0
40
10.749199999999998
210
0
220
0
230
1
100
AcDbArc
50
232.15175096458489
51
232.84824903541511
0
ARC
5
229
100
AcDbEntity
8
0
100
AcDbCircle
10
-6.7937084225613606
20
-8.9660485448841278
30
0
40
0.50000000000000067
210
-0
220
0
230
1
100
AcDbArc
50
-34.518599609929808
51
52.848249035415051
0
LINE
5
230
100
AcDbEntity
8
0
100
AcDbLine
10
-6.3817372846122673
20
-9.2493854141703729
30
0
11
-6.4038241536080616
21
-9.2814996694624963
31
0
0
LWPOLYLINE
5
231
100
AcDbEntity
8
0
100
AcDbPolyline
90
2
43
0.0
10
-6.403824153608062
20
-9.281499669462496
10
-6.807341872010528
20
-11.075201877960163
0
ARC
5
232
100
AcDbEntity
8
0
100
AcDbCircle
10
0
20
0
30
0
40
13.000000000000005
210
0
220
0
230
1
100
AcDbArc
50
238.4231530819508
51
241.57684691804906
0
LWPOLYLINE
5
233
100
AcDbEntity
8
0
100
AcDbPolyline
90
2
43
0.0
10
-6.1877352423493726
20
-11.432931932386708
10
-4.8361024221673725
20
-10.186624233124208
0
LINE
5
234
100
AcDbEntity
8
0
100
AcDbLine
10
-4.8361024221673734
20
-10.186624233124208
30
0
11
-4.8193340957586708
21
-10.151439315837727
31
0
0
ARC
5
235
100
AcDbEntity
8
0
100
AcDbCircle
10
-4.3679716001534876
20
-10.366548352284504
30
0
40
0.49999999999999967
210
0
220
-0
230
1
100
AcDbArc
50
67.151750964584835
51
154.51859960992965
0
ARC
5
236
100
AcDbEntity
8
0
100
AcDbCircle
10
0
20
0
30
0
40
10.749199999999998
210
0
220
0
230
1
100
AcDbArc
50
247.15175096458486
51
247.84824903541508
0
ARC
5
237
100
AcDbEntity
8
0
100
AcDbCircle
10
-4.2416342988998332
20
-10.418878975897384
30
0
40
0.49999999999999978
210
-0
220
0
230
1
100
AcDbArc
50
-19.518599609929566
51
67.848249035414824
0
LINE
5
238
100
AcDbEntity
8
0
100
AcDbLine
10
-3.7703677591181051
20
-10.585935398947072
30
0
11
-3.7833902554141186
21
-10.622671889868574
31
0
0
LWPOLYLINE
5
239
100
AcDbEntity
8
0
100
AcDbPolyline
90
2
43
0.0
10
-3.7833902554141186
20
-10.622671889868572
10
-3.7089141481826506
20
-12.459693248287085
0
ARC
5
240
100
AcDbEntity
8
0
100
AcDbCircle
10
0
20
0
30
0
40
13.000000000000009
210
0
220
0
230
1
100
AcDbArc
50
253.42315308195077
51
256.57684691804911
0
LWPOLYLINE
5
241
100
AcDbEntity
8
0
100
AcDbPolyline
90
2
43
0.0
10
-3.0178327513618624
20
-12.644867950469386
10
-2.034823871315182
20
-11.09119884040009
0
LINE
5
242
100
AcDbEntity
8
0
100
AcDbLine
10
-2.0348238713151821
20
-11.091198840400089
30
0
11
-2.0277334384674681
21
-11.05287285786817
31
0
0
ARC
5
243
100
AcDbEntity
8
0
100
AcDbCircle
10
-1.5360764315380591
20
-11.143831021532645
30
0
40
0.49999999999999911
210
0
220
-0
230
1
100
AcDbArc
50
82.151750964584835
51
169.51859960992954
0
ARC
5
244
100
AcDbEntity
8
0
100
AcDbCircle
10
0
20
0
30
0
40
10.749200000000002
210
0
220
0
230
1
100
AcDbArc
50
262.15175096458483
51
262.84824903541505
0
ARC
5
245
100
AcDbEntity
8
0
100
AcDbCircle
10
-1.4004998074003745
20
-11.161680022714837
30
0
40
0.5
210
-0
220
0
230
1
100
AcDbArc
50
-4.5185996099296339
51
82.848249035415279
0
LINE
5
246
100
AcDbEntity
8
0
100
AcDbLine
10
-0.90205390166735511
20
-11.201071380370928
30
0
11
-0.90512456366171057
21
-11.239926575775423
31
0
0
LWPOLYLINE
5
247
100
AcDbEntity
8
0
100
AcDbPolyline
90
2
43
0.0
10
-0.9051245636617106
20
-11.239926575775423
10
-0.35773005442654704
20
-12.995077114359887
0
ARC
5
248
100
AcDbEntity
8
0
100
AcDbCircle
10
0
20
0
30
0
40
13.000000000000005
210
0
220
0
230
1
100
AcDbArc
50
268.42315308195077
51
271.57684691804917
0
LWPOLYLINE
5
249
100
AcDbEntity
8
0
100
AcDbPolyline
90
2
43
0.0
10
0.35773005442654326
20
-12.995077114359889
10
0.9051245636617062
20
-11.239926575775423
0
LINE
5
250
100
AcDbEntity
8
0
100
AcDbLine
10
0.90512456366170624
20
-11.239926575775423
30
0
11
0.90205390166735222
21
-11.201071380370928
31
0
0
ARC
5
251
100
AcDbEntity
8
0
100
AcDbCircle
10
1.4004998074003707
20
-11.161680022714837
30
0
40
0.50000000000000022
210
0
220
0
230
1
100
AcDbArc
50
97.151750964584906
51
184.51859960992962
0
ARC
5
252
100
AcDbEntity
8
0
100
AcDbCircle
10
0
20
0
30
0
40
10.749199999999998
210
-0
220
0
230
1
100
AcDbArc
50
277.15175096458489
51
277.84824903541505
0
ARC
5
253
100
AcDbEntity
8
0
100
AcDbCircle
10
1.5360764315380431
20
-11.143831021532646
30
0
40
0.50000000000000022
210
0
220
-0
230
1
100
AcDbArc
50
10.481400390070437
51
97.848249035414995
0
LINE
5
254
100
AcDbEntity
8
0
100
AcDbLine
10
2.0277334384674544
20
-11.052872857868172
30
0
11
2.0348238713151678
21
-11.091198840400093
31
0
0
LWPOLYLINE
5
255
100
AcDbEntity
8
0
100
AcDbPolyline
90
2
43
0.0
10
2.034823871315168
20
-11.091198840400093
10
3.017832751361847
20
-12.644867950469388
0
ARC
5
256
100
AcDbEntity
8
0
100
AcDbCircle
10
0
20
0
30
0
40
13.000000000000005
210
-0
220
0
230
1
100
AcDbArc
50
283.42315308195077
51
286.57684691804911
0
LWPOLYLINE
5
257
100
AcDbEntity
8
0
100
AcDbPolyline
90
2
43
0.0
10
3.708914148182635
20
-12.459693248287087
10
3.783390255414104
20
-10.622671889868577
0
LINE
5
258
100
AcDbEntity
8
0
100
AcDbLine
10
3.7833902554141039
20
-10.622671889868577
30
0
11
3.7703677591180904
21
-10.585935398947079
31
0
0
ARC
5
259
100
AcDbEntity
8
0
100
AcDbCircle
10
4.2416342988998181
20
-10.418878975897389
30
0
40
0.49999999999999983
210
0
220
0
230
1
100
AcDbArc
50
112.15175096458498
51
199.51859960992979
0
ARC
5
260
100
AcDbEntity
8
0
100
AcDbCircle
10
0
20
0
30
0
40
10.749199999999998
210
-0
220
0
230
1
100
AcDbArc
50
292.15175096458483
51
292.84824903541505
0
ARC
5
261
100
AcDbEntity
8
0
100
AcDbCircle
10
4.3679716001534725
20
-10.366548352284511
30
0
40
0.50000000000000022
210
0
220
-0
230
1
100
AcDbArc
50
25.481400390070352
51
112.84824903541492
0
LINE
5
262
100
AcDbEntity
8
0
100
AcDbLine
10
4.8193340957586557
20
-10.151439315837735
30
0
11
4.8361024221673583
21
-10.186624233124213
31
0
0
LWPOLYLINE
5
263
100
AcDbEntity
8
0
100
AcDbPolyline
90
2
43
0.0
10
4.836102422167358
20
-10.186624233124212
10
6.187735242349356
20
-11.432931932386715
0
ARC
5
264
100
AcDbEntity
8
0
100
AcDbCircle
10
0
20
0
30
0
40
13.000000000000005
210
-0
220
0
230
1
100
AcDbArc
50
298.42315308195077
51
301.57684691804911
0
LWPOLYLINE
5
265
100
AcDbEntity
8
0
100
AcDbPolyline
90
2
43
0.0
10
6.807341872010513
20
-11.075201877960172
10
6.403824153608049
20
-9.281499669462503
0
LINE
5
266
100
AcDbEntity
8
0
100
AcDbLine
10
6.40382415360805
20
-9.2814996694625034
30
0
11
6.3817372846122549
21
-9.2493854141703817
31
0
0
ARC
5
267
100
AcDbEntity
8
0
100
AcDbCircle
10
6.7937084225613482
20
-8.9660485448841385
30
0
40
0.50000000000000067
210
0
220
0
230
1
100
AcDbArc
50
127.15175096458472
51
214.51859960992965
0
ARC
5
268
100
AcDbEntity
8
0
100
AcDbCircle
10
0
20
0
30
0
40
10.749199999999998
210
-0
220
0
230
1
100
AcDbArc
50
307.15175096458483
51
307.84824903541505
0
ARC
5
269
100
AcDbEntity
8
0
100
AcDbCircle
10
6.9021967226328176
20
-8.8828025443593397
30
0
40
0.5
210
0
220
-0
230
1
100
AcDbArc
50
40.481400390070299
51
127.84824903541589
0
LINE
5
270
100
AcDbEntity
8
0
100
AcDbLine
10
7.2825050987500726
20
-8.558201960479618
30
0
11
7.307808584985982
21
-8.5878480185534052
31
0
0
LWPOLYLINE
5
271
100
AcDbEntity
8
0
100
AcDbPolyline
90
2
43
0.0
10
7.307808584985982
20
-8.587848018553403
10
8.935953802286743
20
-9.441860496925235
0
ARC
5
272
100
AcDbEntity
8
0
100
AcDbCircle
10
0
20
0
30
0
40
13.000000000000007
210
-0
220
0
230
1
100
AcDbArc
50
313.42315308195077
51
316.57684691804911
0
LWPOLYLINE
5
273
100
AcDbEntity
8
0
100
AcDbPolyline
90
2
43
0.0
10
9.441860496925228
20
-8.935953802286747
10
8.5878480185534
20
-7.307808584985985
0
LINE
5
274
100
AcDbEntity
8
0
100
AcDbLine
10
8.5878480185533999
20
-7.3078085849859855
30
0
11
8.5582019604796127
21
-7.2825050987500797
31
0
0
ARC
5
275
100
AcDbEntity
8
0
100
AcDbCircle
10
8.8828025443593361
20
-6.9021967226328229
30
0
40
0.50000000000000022
210
0
220
0
230
1
100
AcDbArc
50
142.15175096458478
51
229.51859960992971
0
ARC
5
276
100
AcDbEntity
8
0
100
AcDbCircle
10
0
20
0
30
0
40
10.749199999999998
210
-0
220
0
230
1
100
AcDbArc
50
322.15175096458489
51
322.84824903541505
0
ARC
5
277
100
AcDbEntity
8
0
100
AcDbCircle
10
8.9660485448841278
20
-6.7937084225613624
30
0
40
0.49999999999999978
210
0
220
-0
230
1
100
AcDbArc
50
55.481400390070299
51
142.84824903541468
0
LINE
5
278
100
AcDbEntity
8
0
100
AcDbLine
10
9.2493854141703711
20
-6.38173728461227
30
0
11
9.2814996694624963
21
-6.4038241536080616
31
0
0
LWPOLYLINE
5
279
100
AcDbEntity
8
0
100
AcDbPolyline
90
2
43
0.0
10
9.281499669462496
20
-6.403824153608062
10
11.075201877960163
20
-6.807341872010528
0
ARC
5
280
100
AcDbEntity
8
0
100
AcDbCircle
10
0
20
0
30
0
40
13.000000000000005
210
-0
220
0
230
1
100
AcDbArc
50
328.42315308195077
51
331.57684691804917
0
LWPOLYLINE
5
281
100
AcDbEntity
8
0
100
AcDbPolyline
90
2
43
0.0
10
11.432931932386708
20
-6.1877352423493726
10
10.186624233124208
20
-4.8361024221673725
0
LINE
5
282
100
AcDbEntity
8
0
100
AcDbLine
10
10.186624233124208
20
-4.8361024221673734
30
0
11
10.151439315837727
21
-4.8193340957586708
31
0
0
ARC
5
283
100
AcDbEntity
8
0
100
AcDbCircle
10
10.366548352284504
20
-4.3679716001534885
30
0
40
0.49999999999999994
210
0
220
0
230
1
100
AcDbArc
50
157.15175096458483
51
244.51859960992957
0
ARC
5
284
100
AcDbEntity
8
0
100
AcDbCircle
10
0
20
0
30
0
40
10.749199999999998
210
-0
220
0
230
1
100
AcDbArc
50
337.15175096458489
51
337.84824903541511
0
ARC
5
285
100
AcDbEntity
8
0
100
AcDbCircle
10
10.418878975897384
20
-4.2416342988998323
30
0
40
0.50000000000000022
210
0
220
-0
230
1
100
AcDbArc
50
70.481400390070419
51
157.84824903541511
0
LINE
5
286
100
AcDbEntity
8
0
100
AcDbLine
10
10.585935398947072
20
-3.7703677591181037
30
0
11
10.62267188986857
21
-3.7833902554141186
31
0
0
LWPOLYLINE
5
287
100
AcDbEntity
8
0
100
AcDbPolyline
90
2
43
0.0
10
10.62267188986857
20
-3.7833902554141186
10
12.459693248287081
20
-3.7089141481826515
0
ARC
5
288
100
AcDbEntity
8
0
100
AcDbCircle
10
0
20
0
30
0
40
13.000000000000005
210
-0
220
0
230
1
100
AcDbArc
50
343.42315308195077
51
346.57684691804911
0
LWPOLYLINE
5
289
100
AcDbEntity
8
0
100
AcDbPolyline
90
2
43
0.0
10
12.644867950469385
20
-3.017832751361863
10
11.09119884040009
20
-2.034823871315182
0
LINE
5
290
100
AcDbEntity
8
0
100
AcDbLine
10
11.091198840400089
20
-2.0348238713151821
30
0
11
11.05287285786817
21
-2.027733438467469
31
0
0
ARC
5
291
100
AcDbEntity
8
0
100
AcDbCircle
10
11.143831021532645
20
-1.5360764315380582
30
0
40
0.49999999999999883
210
0
220
0
230
1
100
AcDbArc
50
172.15175096458512
51
259.51859960992954
0
CIRCLE
5
292
100
AcDbEntity
8
0
100
AcDbCircle
10
0
20
0
30
0
40
2.5
210
0
220
0
230
1
0
ARC
5
293
100
AcDbEntity
8
0
100
AcDbCircle
10
8.9660485448841332
20
6.7937084225613562
30
0
40
0.49999999999999989
210
0
220
0
230
1
100
AcDbArc
50
217.15175096458489
51
304.51859960992971
0
LINE
5
294
100
AcDbEntity
8
0
100
AcDbLine
10
9.2814996694624998
20
6.4038241536080562
30
0
11
9.2493854141703764
21
6.3817372846122637
31
0
0
LWPOLYLINE
5
295
100
AcDbEntity
8
0
100
AcDbPolyline
90
2
43
0.0
10
11.075201877960167
20
6.807341872010522
10
9.2814996694625
20
6.403824153608056
0
ARC
5
296
100
AcDbEntity
8
0
100
AcDbCircle
10
0
20
0
30
0
40
13.000000000000007
210
0
220
-0
230
1
100
AcDbArc
50
28.423153081950815
51
31.576846918049174
0
LWPOLYLINE
5
297
100
AcDbEntity
8
0
100
AcDbPolyline
90
2
43
0.0
10
10.186624233124208
20
4.836102422167365
10
11.432931932386712
20
6.1877352423493654
0
LINE
5
298
100
AcDbEntity
8
0
100
AcDbLine
10
10.151439315837729
20
4.8193340957586646
30
0
11
10.186624233124208
21
4.8361024221673663
31
0
0
ARC
5
299
100
AcDbEntity
8
0
100
AcDbCircle
10
10.366548352284505
20
4.3679716001534814
30
0
40
0.49999999999999967
210
0
220
0
230
1
100
AcDbArc
50
115.48140039007038
51
202.84824903541443
0
ARC
5
300
100
AcDbEntity
8
0
100
AcDbCircle
10
0
20
0
30
0
40
10.749200000000002
210
0
220
-0
230
1
100
AcDbArc
50
22.151750964584895
51
22.848249035415119
0
ARC
5
301
100
AcDbEntity
8
0
100
AcDbCircle
10
10.418878975897387
20
4.2416342988998235
30
0
40
0.49999999999999961
210
0
220
0
230
1
100
AcDbArc
50
202.15175096458478
51
289.51859960992977
0
LINE
5
302
100
AcDbEntity
8
0
100
AcDbLine
10
10.622671889868576
20
3.7833902554141092
30
0
11
10.585935398947077
21
3.7703677591180949
31
0
0
LWPOLYLINE
5
303
100
AcDbEntity
8
0
100
AcDbPolyline
90
2
43
0.0
10
12.459693248287085
20
3.708914148182641
10
10.622671889868576
20
3.783390255414109
0
ARC
5
304
100
AcDbEntity
8
0
100
AcDbCircle
10
0
20
0
30
0
40
13.000000000000005
210
0
220
-0
230
1
100
AcDbArc
50
13.423153081950808
51
16.576846918049174
0
LWPOLYLINE
5
305
100
AcDbEntity
8
0
100
AcDbPolyline
90
2
43
0.0
10
11.091198840400091
20
2.0348238713151723
10
12.644867950469386
20
3.017832751361852
0
LINE
5
306
100
AcDbEntity
8
0
100
AcDbLine
10
11.052872857868172
20
2.0277334384674601
30
0
11
11.091198840400091
21
2.0348238713151727
31
0
0
ARC
5
307
100
AcDbEntity
8
0
100
AcDbCircle
10
11.143831021532646
20
1.5360764315380488
30
0
40
0.50000000000000044
210
0
220
0
230
1
100
AcDbArc
50
100.48140039007046
51
187.84824903541517
0
ARC
5
308
100
AcDbEntity
8
0
100
AcDbCircle
10
0
20
0
30
0
40
10.749200000000002
210
0
220
-0
230
1
100
AcDbArc
50
7.1517509645848811
51
7.8482490354150842
0
ARC
5
309
100
AcDbEntity
8
0
100
AcDbCircle
10
11.161680022714837
20
1.4004998074003738
30
0
40
0.499999999999998
210
0
220
0
230
1
100
AcDbArc
50
187.15175096458486
51
274.51859960992971
0
LINE
5
310
100
AcDbEntity
8
0
100
AcDbLine
10
11.239926575775423
20
0.90512456366170835
30
0
11
11.201071380370928
21
0.90205390166735433
31
0
0
LWPOLYLINE
5
311
100
AcDbEntity
8
0
100
AcDbPolyline
90
2
43
0.0
10
12.995077114359887
20
0.35773005442654526
10
11.239926575775423
20
0.9051245636617083
0
ARC
5
312
100
AcDbEntity
8
0
100
AcDbCircle
10
0
20
0
30
0
40
13.000000000000007
210
0
220
0
230
1
100
AcDbArc
50
-1.5768469180492981
51
1.5768469180490796
0
LWPOLYLINE
5
313
100
AcDbEntity
8
0
100
AcDbPolyline
90
2
43
0.0
10
11.239926575775423
20
-0.9051245636617081
10
12.995077114359887
20
-0.3577300544265452
0
LINE
5
314
100
AcDbEntity
8
0
100
AcDbLine
10
11.201071380370928
20
-0.90205390166735433
30
0
11
11.239926575775423
21
-0.90512456366170824
31
0
0
ARC
5
315
100
AcDbEntity
8
0
100
AcDbCircle
10
11.161680022714837
20
-1.4004998074003736
30
0
40
0.5
210
0
220
-0
230
1
100
AcDbArc
50
85.481400390070263
51
172.84824903541522
0
ARC
5
316
100
AcDbEntity
8
0
100
AcDbCircle
10
0
20
0
30
0
40
10.749200000000002
210
0
220
0
230
1
100
AcDbArc
50
352.15175096458489
51
352.84824903541511
0
ARC
5
317
100
AcDbEntity
8
0
100
AcDbCircle
10
11.143831021532645
20
-1.5360764315380582
30
0
40
0.49999999999999883
210
0
220
0
230
1
100
AcDbArc
50
172.15175096458512
51
259.51859960992948
0
LINE
5
318
100
AcDbEntity
8
0
100
AcDbLine
10
11.091198840400089
20
-2.0348238713151821
30
0
11
11.05287285786817
21
-2.0277334384674677
31
0
0
LWPOLYLINE
5
319
100
AcDbEntity
8
0
100
AcDbPolyline
90
2
43
0.0
10
12.644867950469385
20
-3.017832751361863
10
11.09119884040009
20
-2.034823871315182
0
ARC
5
320
100
AcDbEntity
8
0
100
AcDbCircle
10
0
20
0
30
0
40
13.000000000000005
210
0
220
0
230
1
100
AcDbArc
50
343.42315308195077
51
346.57684691804911
0
LWPOLYLINE
5
321
100
AcDbEntity
8
0
100
AcDbPolyline
90
2
43
0.0
10
10.62267188986857
20
-3.7833902554141186
10
12.459693248287081
20
-3.7089141481826515
0
LINE
5
322
100
AcDbEntity
8
0
100
AcDbLine
10
10.585935398947072
20
-3.7703677591181037
30
0
11
10.62267188986857
21
-3.7833902554141186
31
0
0
ARC
5
323
100
AcDbEntity
8
0
100
AcDbCircle
10
10.418878975897384
20
-4.2416342988998323
30
0
40
0.50000000000000022
210
0
220
-0
230
1
100
AcDbArc
50
70.481400390070419
51
157.84824903541519
0
ARC
5
324
100
AcDbEntity
8
0
100
AcDbCircle
10
0
20
0
30
0
40
10.749199999999998
210
0
220
0
230
1
100
AcDbArc
50
337.15175096458489
51
337.84824903541511
0
ARC
5
325
100
AcDbEntity
8
0
100
AcDbCircle
10
10.366548352284504
20
-4.3679716001534885
30
0
40
0.49999999999999994
210
0
220
0
230
1
100
AcDbArc
50
157.15175096458483
51
244.51859960992957
0
LINE
5
326
100
AcDbEntity
8
0
100
AcDbLine
10
10.186624233124208
20
-4.8361024221673734
30
0
11
10.151439315837727
21
-4.8193340957586708
31
0
0
LWPOLYLINE
5
327
100
AcDbEntity
8
0
100
AcDbPolyline
90
2
43
0.0
10
11.432931932386708
20
-6.1877352423493726
10
10.186624233124208
20
-4.8361024221673725
0
ARC
5
328
100
AcDbEntity
8
0
100
AcDbCircle
10
0
20
0
30
0
40
13.000000000000005
210
0
220
0
230
1
100
AcDbArc
50
328.42315308195077
51
331.57684691804917
0
LWPOLYLINE
5
329
100
AcDbEntity
8
0
100
AcDbPolyline
90
2
43
0.0
10
9.281499669462496
20
-6.403824153608062
10
11.075201877960163
20
-6.807341872010528
0
LINE
5
330
100
AcDbEntity
8
0
100
AcDbLine
10
9.2493854141703711
20
-6.38173728461227
30
0
11
9.2814996694624963
21
-6.4038241536080616
31
0
0
ARC
5
331
100
AcDbEntity
8
0
100
AcDbCircle
10
8.9660485448841278
20
-6.7937084225613624
30
0
40
0.49999999999999978
210
0
220
-0
230
1
100
AcDbArc
50
55.481400390070299
51
142.84824903541445
0
ARC
5
332
100
AcDbEntity
8
0
100
AcDbCircle
10
0
20
0
30
0
40
10.749199999999998
210
0
220
0
230
1
100
AcDbArc
50
322.15175096458489
51
322.84824903541505
0
ARC
5
333
100
AcDbEntity
8
0
100
AcDbCircle
10
8.8828025443593361
20
-6.9021967226328229
30
0
40
0.50000000000000022
210
0
220
0
230
1
100
AcDbArc
50
142.15175096458478
51
229.51859960992948
0
LINE
5
334
100
AcDbEntity
8
0
100
AcDbLine
10
8.5878480185533999
20
-7.3078085849859855
30
0
11
8.5582019604796127
21
-7.282505098750077
31
0
0
LWPOLYLINE
5
335
100
AcDbEntity
8
0
100
AcDbPolyline
90
2
43
0.0
10
9.441860496925228
20
-8.935953802286747
10
8.5878480185534
20
-7.307808584985985
0
ARC
5
336
100
AcDbEntity
8
0
100
AcDbCircle
10
0
20
0
30
0
40
13.000000000000009
210
0
220
0
230
1
100
AcDbArc
50
313.42315308195077
51
316.57684691804923
0
LWPOLYLINE
5
337
100
AcDbEntity
8
0
100
AcDbPolyline
90
2
43
0.0
10
7.307808584985982
20
-8.587848018553403
10
8.935953802286743
20
-9.441860496925235
0
LINE
5
338
100
AcDbEntity
8
0
100
AcDbLine
10
7.2825050987500726
20
-8.558201960479618
30
0
11
7.307808584985982
21
-8.5878480185534052
31
0
0
ARC
5
339
100
AcDbEntity
8
0
100
AcDbCircle
10
6.9021967226328176
20
-8.8828025443593397
30
0
40
0.5
210
0
220
-0
230
1
100
AcDbArc
50
40.481400390070299
51
127.84824903541589
0
ARC
5
340
100
AcDbEntity
8
0
100
AcDbCircle
10
0
20
0
30
0
40
10.749199999999998
210
0
220
0
230
1
100
AcDbArc
50
307.15175096458483
51
307.84824903541505
0
ARC
5
341
100
AcDbEntity
8
0
100
AcDbCircle
10
6.7937084225613482
20
-8.9660485448841385
30
0
40
0.49999999999999989
210
0
220
0
230
1
100
AcDbArc
50
127.15175096458481
51
214.51859960992965
0
LINE
5
342
100
AcDbEntity
8
0
100
AcDbLine
10
6.40382415360805
20
-9.2814996694625034
30
0
11
6.3817372846122549
21
-9.2493854141703817
31
0
0
LWPOLYLINE
5
343
100
AcDbEntity
8
0
100
AcDbPolyline
90
2
43
0.0
10
6.807341872010513
20
-11.075201877960172
10
6.403824153608049
20
-9.281499669462503
0
ARC
5
344
100
AcDbEntity
8
0
100
AcDbCircle
10
0
20
0
30
0
40
13.000000000000007
210
0
220
0
230
1
100
AcDbArc
50
298.42315308195077
51
301.57684691804911
0
LWPOLYLINE
5
345
100
AcDbEntity
8
0
100
AcDbPolyline
90
2
43
0.0
10
4.836102422167358
20
-10.186624233124212
10
6.187735242349356
20
-11.432931932386715
0
LINE
5
346
100
AcDbEntity
8
0
100
AcDbLine
10
4.8193340957586557
20
-10.151439315837735
30
0
11
4.8361024221673583
21
-10.186624233124213
31
0
0
ARC
5
347
100
AcDbEntity
8
0
100
AcDbCircle
10
4.3679716001534725
20
-10.366548352284511
30
0
40
0.50000000000000022
210
0
220
-0
230
1
100
AcDbArc
50
25.481400390070352
51
112.84824903541464
0
ARC
5
348
100
AcDbEntity
8
0
100
AcDbCircle
10
0
20
0
30
0
40
10.749200000000002
210
0
220
0
230
1
100
AcDbArc
50
292.15175096458483
51
292.84824903541505
0
ARC
5
349
100
AcDbEntity
8
0
100
AcDbCircle
10
4.2416342988998181
20
-10.418878975897389
30
0
40
0.49999999999999845
210
0
220
0
230
1
100
AcDbArc
50
112.15175096458481
51
199.51859960992977
0
LINE
5
350
100
AcDbEntity
8
0
100
AcDbLine
10
3.7833902554141039
20
-10.622671889868577
30
0
11
3.77036775911809
21
-10.585935398947079
31
0
0
LWPOLYLINE
5
351
100
AcDbEntity
8
0
100
AcDbPolyline
90
2
43
0.0
10
3.708914148182635
20
-12.459693248287087
10
3.783390255414104
20
-10.622671889868577
0
ARC
5
352
100
AcDbEntity
8
0
100
AcDbCircle
10
0
20
0
30
0
40
13.000000000000005
210
0
220
0
230
1
100
AcDbArc
50
283.42315308195077
51
286.57684691804911
0
LWPOLYLINE
5
353
100
AcDbEntity
8
0
100
AcDbPolyline
90
2
43
0.0
10
2.034823871315168
20
-11.091198840400093
10
3.017832751361847
20
-12.644867950469388
0
LINE
5
354
100
AcDbEntity
8
0
100
AcDbLine
10
2.0277334384674544
20
-11.052872857868172
30
0
11
2.0348238713151678
21
-11.091198840400093
31
0
0
ARC
5
355
100
AcDbEntity
8
0
100
AcDbCircle
10
1.5360764315380431
20
-11.143831021532646
30
0
40
0.50000000000000022
210
0
220
-0
230
1
100
AcDbArc
50
10.481400390070437
51
97.848249035414952
0
ARC
5
356
100
AcDbEntity
8
0
100
AcDbCircle
10
0
20
0
30
0
40
10.749200000000002
210
0
220
0
230
1
100
AcDbArc
50
277.15175096458489
51
277.84824903541505
0
ARC
5
357
100
AcDbEntity
8
0
100
AcDbCircle
10
1.4004998074003707
20
-11.161680022714837
30
0
40
0.499999999999998
210
0
220
0
230
1
100
AcDbArc
50
97.151750964584892
51
184.51859960992962
0
LINE
5
358
100
AcDbEntity
8
0
100
AcDbLine
10
0.90512456366170624
20
-11.239926575775423
30
0
11
0.90205390166735122
21
-11.201071380370928
31
0
0
LWPOLYLINE
5
359
100
AcDbEntity
8
0
100
AcDbPolyline
90
2
43
0.0
10
0.35773005442654326
20
-12.995077114359889
10
0.9051245636617062
20
-11.239926575775423
0
ARC
5
360
100
AcDbEntity
8
0
100
AcDbCircle
10
0
20
0
30
0
40
13.000000000000007
210
0
220
0
230
1
100
AcDbArc
50
268.42315308195077
51
271.57684691804917
0
LWPOLYLINE
5
361
100
AcDbEntity
8
0
100
AcDbPolyline
90
2
43
0.0
10
-0.9051245636617106
20
-11.239926575775423
10
-0.35773005442654704
20
-12.995077114359887
0
LINE
5
362
100
AcDbEntity
8
0
100
AcDbLine
10
-0.90205390166735511
20
-11.201071380370928
30
0
11
-0.90512456366171057
21
-11.239926575775423
31
0
0
ARC
5
363
100
AcDbEntity
8
0
100
AcDbCircle
10
-1.4004998074003745
20
-11.161680022714837
30
0
40
0.5
210
0
220
0
230
1
100
AcDbArc
50
-4.5185996099296339
51
82.848249035415279
0
ARC
5
364
100
AcDbEntity
8
0
100
AcDbCircle
10
0
20
0
30
0
40
10.749200000000002
210
0
220
0
230
1
100
AcDbArc
50
262.15175096458483
51
262.84824903541505
0
ARC
5
365
100
AcDbEntity
8
0
100
AcDbCircle
10
-1.5360764315380591
20
-11.143831021532645
30
0
40
0.49999999999999911
210
0
220
-0
230
1
100
AcDbArc
50
82.151750964584835
51
169.51859960992951
0
LINE
5
366
100
AcDbEntity
8
0
100
AcDbLine
10
-2.0348238713151821
20
-11.091198840400089
30
0
11
-2.027733438467469
21
-11.05287285786817
31
0
0
LWPOLYLINE
5
367
100
AcDbEntity
8
0
100
AcDbPolyline
90
2
43
0.0
10
-3.0178327513618624
20
-12.644867950469386
10
-2.034823871315182
20
-11.09119884040009
0
ARC
5
368
100
AcDbEntity
8
0
100
AcDbCircle
10
0
20
0
30
0
40
13.000000000000009
210
0
220
0
230
1
100
AcDbArc
50
253.42315308195077
51
256.57684691804917
0
LWPOLYLINE
5
369
100
AcDbEntity
8
0
100
AcDbPolyline
90
2
43
0.0
10
-3.7833902554141186
20
-10.622671889868572
10
-3.7089141481826506
20
-12.459693248287085
0
LINE
5
370
100
AcDbEntity
8
0
100
AcDbLine
10
-3.7703677591181051
20
-10.585935398947072
30
0
11
-3.7833902554141186
21
-10.622671889868574
31
0
0
ARC
5
371
100
AcDbEntity
8
0
100
AcDbCircle
10
-4.2416342988998332
20
-10.418878975897384
30
0
40
0.49999999999999978
210
0
220
0
230
1
100
AcDbArc
50
-19.518599609929566
51
67.848249035414639
0
ARC
5
372
100
AcDbEntity
8
0
100
AcDbCircle
10
0
20
0
30
0
40
10.749199999999998
210
0
220
0
230
1
100
AcDbArc
50
247.15175096458486
51
247.84824903541508
0
ARC
5
373
100
AcDbEntity
8
0
100
AcDbCircle
10
-4.3679716001534876
20
-10.366548352284504
30
0
40
0.49999999999999967
210
0
220
-0
230
1
100
AcDbArc
50
67.151750964584835
51
154.51859960992965
0
LINE
5
374
100
AcDbEntity
8
0
100
AcDbLine
10
-4.8361024221673734
20
-10.186624233124208
30
0
11
-4.8193340957586708
21
-10.151439315837727
31
0
0
LWPOLYLINE
5
375
100
AcDbEntity
8
0
100
AcDbPolyline
90
2
43
0.0
10
-6.1877352423493726
20
-11.432931932386708
10
-4.8361024221673725
20
-10.186624233124208
0
ARC
5
376
100
AcDbEntity
8
0
100
AcDbCircle
10
0
20
0
30
0
40
13.000000000000005
210
0
220
0
230
1
100
AcDbArc
50
238.4231530819508
51
241.57684691804917
0
LWPOLYLINE
5
377
100
AcDbEntity
8
0
100
AcDbPolyline
90
2
43
0.0
10
-6.403824153608062
20
-9.281499669462496
10
-6.807341872010528
20
-11.075201877960163
0
LINE
5
378
100
AcDbEntity
8
0
100
AcDbLine
10
-6.3817372846122673
20
-9.2493854141703729
30
0
11
-6.4038241536080616
21
-9.2814996694624963
31
0
0
ARC
5
379
100
AcDbEntity
8
0
100
AcDbCircle
10
-6.7937084225613606
20
-8.9660485448841278
30
0
40
0.50000000000000067
210
0
220
0
230
1
100
AcDbArc
50
-34.518599609929808
51
52.848249035415101
0
ARC
5
380
100
AcDbEntity
8
0
100
AcDbCircle
10
0
20
0
30
0
40
10.749199999999998
210
0
220
0
230
1
100
AcDbArc
50
232.15175096458489
51
232.84824903541511
0
ARC
5
381
100
AcDbEntity
8
0
100
AcDbCircle
10
-6.9021967226328247
20
-8.8828025443593344
30
0
40
0.50000000000000022
210
0
220
-0
230
1
100
AcDbArc
50
52.151750964584835
51
139.51859960992954
0
LINE
5
382
100
AcDbEntity
8
0
100
AcDbLine
10
-7.3078085849859873
20
-8.5878480185533981
30
0
11
-7.2825050987500797
21
-8.5582019604796109
31
0
0
LWPOLYLINE
5
383
100
AcDbEntity
8
0
100
AcDbPolyline
90
2
43
0.0
10
-8.93595380228675
20
-9.441860496925226
10
-7.307808584985987
20
-8.587848018553398
0
ARC
5
384
100
AcDbEntity
8
0
100
AcDbCircle
10
0
20
0
30
0
40
13.000000000000007
210
0
220
0
230
1
100
AcDbArc
50
223.42315308195077
51
226.57684691804914
0
LWPOLYLINE
5
385
100
AcDbEntity
8
0
100
AcDbPolyline
90
2
43
0.0
10
-8.587848018553405
20
-7.307808584985979
10
-9.441860496925237
20
-8.93595380228674
0
LINE
5
386
100
AcDbEntity
8
0
100
AcDbLine
10
-8.5582019604796216
20
-7.2825050987500708
30
0
11
-8.5878480185534052
21
-7.3078085849859793
31
0
0
ARC
5
387
100
AcDbEntity
8
0
100
AcDbCircle
10
-8.8828025443593432
20
-6.9021967226328149
30
0
40
0.5
210
0
220
0
230
1
100
AcDbArc
50
-49.518599609929737
51
37.848249035414668
0
ARC
5
388
100
AcDbEntity
8
0
100
AcDbCircle
10
0
20
0
30
0
40
10.749200000000002
210
0
220
0
230
1
100
AcDbArc
50
217.15175096458486
51
217.84824903541502
0
ARC
5
389
100
AcDbEntity
8
0
100
AcDbCircle
10
-8.9660485448841349
20
-6.7937084225613544
30
0
40
0.49999999999999828
210
0
220
-0
230
1
100
AcDbArc
50
37.151750964584821
51
124.51859960992965
0
LINE
5
390
100
AcDbEntity
8
0
100
AcDbLine
10
-9.2814996694625016
20
-6.4038241536080545
30
0
11
-9.2493854141703782
21
-6.3817372846122611
31
0
0
LWPOLYLINE
5
391
100
AcDbEntity
8
0
100
AcDbPolyline
90
2
43
0.0
10
-11.075201877960167
20
-6.807341872010518
10
-9.2814996694625
20
-6.403824153608054
0
ARC
5
392
100
AcDbEntity
8
0
100
AcDbCircle
10
0
20
0
30
0
40
13.000000000000004
210
0
220
0
230
1
100
AcDbArc
50
208.42315308195077
51
211.57684691804917
0
LWPOLYLINE
5
393
100
AcDbEntity
8
0
100
AcDbPolyline
90
2
43
0.0
10
-10.186624233124208
20
-4.836102422167363
10
-11.432931932386712
20
-6.187735242349361
0
LINE
5
394
100
AcDbEntity
8
0
100
AcDbLine
10
-10.151439315837731
20
-4.8193340957586619
30
0
11
-10.186624233124208
21
-4.8361024221673627
31
0
0
ARC
5
395
100
AcDbEntity
8
0
100
AcDbCircle
10
-10.366548352284507
20
-4.3679716001534779
30
0
40
0.50000000000000022
210
0
220
0
230
1
100
AcDbArc
50
-64.518599609929666
51
22.848249035415169
0
ARC
5
396
100
AcDbEntity
8
0
100
AcDbCircle
10
0
20
0
30
0
40
10.749199999999997
210
0
220
0
230
1
100
AcDbArc
50
202.15175096458489
51
202.84824903541508
0
ARC
5
397
100
AcDbEntity
8
0
100
AcDbCircle
10
-10.418878975897387
20
-4.2416342988998208
30
0
40
0.50000000000000089
210
0
220
-0
230
1
100
AcDbArc
50
22.151750964584895
51
109.51859960992981
0
LINE
5
398
100
AcDbEntity
8
0
100
AcDbLine
10
-10.622671889868577
20
-3.7833902554141048
30
0
11
-10.585935398947077
21
-3.7703677591180931
31
0
0
LWPOLYLINE
5
399
100
AcDbEntity
8
0
100
AcDbPolyline
90
2
43
0.0
10
-12.459693248287087
20
-3.708914148182636
10
-10.622671889868577
20
-3.7833902554141043
0
ARC
5
400
100
AcDbEntity
8
0
100
AcDbCircle
10
0
20
0
30
0
40
13.000000000000005
210
0
220
0
230
1
100
AcDbArc
50
193.42315308195077
51
196.57684691804914
0
LWPOLYLINE
5
401
100
AcDbEntity
8
0
100
AcDbPolyline
90
2
43
0.0
10
-11.091198840400093
20
-2.0348238713151683
10
-12.644867950469388
20
-3.0178327513618473
0
LINE
5
402
100
AcDbEntity
8
0
100
AcDbLine
10
-11.052872857868172
20
-2.0277334384674548
30
0
11
-11.091198840400093
21
-2.0348238713151683
31
0
0
ARC
5
403
100
AcDbEntity
8
0
100
AcDbCircle
10
-11.143831021532646
20
-1.5360764315380437
30
0
40
0.50000000000000022
210
0
220
0
230
1
100
AcDbArc
50
-79.518599609929552
51
7.8482490354147121
0
ARC
5
404
100
AcDbEntity
8
0
100
AcDbCircle
10
0
20
0
30
0
40
10.749200000000002
210
0
220
0
230
1
100
AcDbArc
50
187.15175096458486
51
187.84824903541511
0
ARC
5
405
100
AcDbEntity
8
0
100
AcDbCircle
10
-11.161680022714837
20
-1.4004998074003738
30
0
40
0.499999999999998
210
0
220
-0
230
1
100
AcDbArc
50
7.1517509645848811
51
94.518599609929737
0
LINE
5
406
100
AcDbEntity
8
0
100
AcDbLine
10
-11.239926575775423
20
-0.90512456366170679
30
0
11
-11.201071380370928
21
-0.90205390166735433
31
0
0
LWPOLYLINE
5
407
100
AcDbEntity
8
0
100
AcDbPolyline
90
2
43
0.0
10
-12.995077114359889
20
-0.3577300544265438
10
-11.239926575775423
20
-0.9051245636617068
0
ARC
5
408
100
AcDbEntity
8
0
100
AcDbCircle
10
0
20
0
30
0
40
13.000000000000007
210
0
220
0
230
1
100
AcDbArc
50
178.42315308195072
51
181.57684691804931
0
LWPOLYLINE
5
409
100
AcDbEntity
8
0
100
AcDbPolyline
90
2
43
0.0
10
-11.239926575775423
20
0.9051245636617095
10
-12.995077114359887
20
0.3577300544265465
0
LINE
5
410
100
AcDbEntity
8
0
100
AcDbLine
10
-11.201071380370928
20
0.90205390166735455
30
0
11
-11.239926575775423
21
0.90512456366170946
31
0
0
ARC
5
411
100
AcDbEntity
8
0
100
AcDbCircle
10
-11.161680022714837
20
1.4004998074003738
30
0
40
0.5
210
0
220
0
230
1
100
AcDbArc
50
265.48140039007023
51
352.84824903541499
0
ARC
5
412
100
AcDbEntity
8
0
100
AcDbCircle
10
0
20
0
30
0
40
10.749199999999998
210
0
220
0
230
1
100
AcDbArc
50
172.15175096458492
51
172.84824903541511
0
ARC
5
413
100
AcDbEntity
8
0
100
AcDbCircle
10
-11.143831021532646
20
1.5360764315380488
30
0
40
0.50000000000000133
210
0
220
0
230
1
100
AcDbArc
50
-7.848249035415189
51
79.518599609929552
0
LINE
5
414
100
AcDbEntity
8
0
100
AcDbLine
10
-11.091198840400091
20
2.0348238713151754
30
0
11
-11.052872857868172
21
2.027733438467461
31
0
0
LWPOLYLINE
5
415
100
AcDbEntity
8
0
100
AcDbPolyline
90
2
43
0.0
10
-12.644867950469386
20
3.0178327513618575
10
-11.091198840400091
20
2.0348238713151754
0
ARC
5
416
100
AcDbEntity
8
0
100
AcDbCircle
10
0
20
0
30
0
40
13.000000000000009
210
0
220
0
230
1
100
AcDbArc
50
163.42315308195083
51
166.57684691804917
0
LWPOLYLINE
5
417
100
AcDbEntity
8
0
100
AcDbPolyline
90
2
43
0.0
10
-10.622671889868576
20
3.783390255414112
10
-12.459693248287087
20
3.708914148182645
0
LINE
5
418
100
AcDbEntity
8
0
100
AcDbLine
10
-10.585935398947075
20
3.7703677591180966
30
0
11
-10.622671889868576
21
3.7833902554141119
31
0
0
ARC
5
419
100
AcDbEntity
8
0
100
AcDbCircle
10
-10.418878975897385
20
4.2416342988998252
30
0
40
0.50000000000000022
210
0
220
0
230
1
100
AcDbArc
50
250.48140039007023
51
337.84824903541562
0
ARC
5
420
100
AcDbEntity
8
0
100
AcDbCircle
10
0
20
0
30
0
40
10.749199999999998
210
0
220
0
230
1
100
AcDbArc
50
157.15175096458489
51
157.84824903541508
0
ARC
5
421
100
AcDbEntity
8
0
100
AcDbCircle
10
-10.366548352284504
20
4.3679716001534867
30
0
40
0.49999999999999956
210
0
220
0
230
1
100
AcDbArc
50
-22.848249035415069
51
64.518599609929637
0
LINE
5
422
100
AcDbEntity
8
0
100
AcDbLine
10
-10.186624233124208
20
4.8361024221673707
30
0
11
-10.151439315837727
21
4.8193340957586699
31
0
0
LWPOLYLINE
5
423
100
AcDbEntity
8
0
100
AcDbPolyline
90
2
43
0.0
10
-11.432931932386708
20
6.18773524234937
10
-10.186624233124208
20
4.836102422167371
0
ARC
5
424
100
AcDbEntity
8
0
100
AcDbCircle
10
0
20
0
30
0
40
13.000000000000005
210
0
220
0
230
1
100
AcDbArc
50
148.4231530819508
51
151.5768469180492
0
LWPOLYLINE
5
425
100
AcDbEntity
8
0
100
AcDbPolyline
90
2
43
0.0
10
-9.281499669462496
20
6.40382415360806
10
-11.075201877960165
20
6.807341872010526
0
LINE
5
426
100
AcDbEntity
8
0
100
AcDbLine
10
-9.2493854141703746
20
6.3817372846122664
30
0
11
-9.2814996694624963
21
6.4038241536080598
31
0
0
ARC
5
427
100
AcDbEntity
8
0
100
AcDbCircle
10
-8.9660485448841314
20
6.7937084225613589
30
0
40
0.49999999999999978
210
0
220
0
230
1
100
AcDbArc
50
235.48140039007029
51
322.84824903541505
0
ARC
5
428
100
AcDbEntity
8
0
100
AcDbCircle
10
0
20
0
30
0
40
10.749199999999998
210
0
220
0
230
1
100
AcDbArc
50
142.15175096458489
51
142.84824903541508
0
ARC
5
429
100
AcDbEntity
8
0
100
AcDbCircle
10
-8.8828025443593361
20
6.9021967226328229
30
0
40
0.50000000000000022
210
0
220
0
230
1
100
AcDbArc
50
-37.848249035415201
51
49.518599609929467
0
LINE
5
430
100
AcDbEntity
8
0
100
AcDbLine
10
-8.5878480185534016
20
7.3078085849859828
30
0
11
-8.5582019604796127
21
7.282505098750077
31
0
0
LWPOLYLINE
5
431
100
AcDbEntity
8
0
100
AcDbPolyline
90
2
43
0.0
10
-9.441860496925232
20
8.935953802286747
10
-8.5878480185534
20
7.307808584985983
0
ARC
5
432
100
AcDbEntity
8
0
100
AcDbCircle
10
0
20
0
30
0
40
13.000000000000007
210
0
220
0
230
1
100
AcDbArc
50
133.42315308195083
51
136.5768469180492
0
LWPOLYLINE
5
433
100
AcDbEntity
8
0
100
AcDbPolyline
90
2
43
0.0
10
-7.307808584985984
20
8.587848018553402
10
-8.935953802286745
20
9.441860496925234
0
LINE
5
434
100
AcDbEntity
8
0
100
AcDbLine
10
-7.282505098750077
20
8.5582019604796145
30
0
11
-7.3078085849859846
21
8.5878480185534016
31
0
0
ARC
5
435
100
AcDbEntity
8
0
100
AcDbCircle
10
-6.902196722632822
20
8.8828025443593379
30
0
40
0.50000000000000067
210
0
220
0
230
1
100
AcDbArc
50
220.48140039007049
51
307.84824903541511
0
ARC
5
436
100
AcDbEntity
8
0
100
AcDbCircle
10
0
20
0
30
0
40
10.749200000000002
210
0
220
0
230
1
100
AcDbArc
50
127.15175096458488
51
127.84824903541511
0
ARC
5
437
100
AcDbEntity
8
0
100
AcDbCircle
10
-6.7937084225613535
20
8.9660485448841349
30
0
40
0.49999999999999828
210
0
220
0
230
1
100
AcDbArc
50
-52.848249035415186
51
34.518599609929474
0
LINE
5
438
100
AcDbEntity
8
0
100
AcDbLine
10
-6.4038241536080562
20
9.2814996694625034
30
0
11
-6.3817372846122602
21
9.2493854141703764
31
0
0
LWPOLYLINE
5
439
100
AcDbEntity
8
0
100
AcDbPolyline
90
2
43
0.0
10
-6.807341872010519
20
11.07520187796017
10
-6.403824153608056
20
9.281499669462502
0
ARC
5
440
100
AcDbEntity
8
0
100
AcDbCircle
10
0
20
0
30
0
40
13.000000000000005
210
0
220
0
230
1
100
AcDbArc
50
118.42315308195082
51
121.57684691804916
0
LWPOLYLINE
5
441
100
AcDbEntity
8
0
100
AcDbPolyline
90
2
43
0.0
10
-4.836102422167364
20
10.18662423312421
10
-6.187735242349364
20
11.432931932386714
0
LINE
5
442
100
AcDbEntity
8
0
100
AcDbLine
10
-4.8193340957586637
20
10.151439315837731
30
0
11
-4.8361024221673645
21
10.18662423312421
31
0
0
ARC
5
443
100
AcDbEntity
8
0
100
AcDbCircle
10
-4.3679716001534805
20
10.366548352284507
30
0
40
0.50000000000000022
210
0
220
0
230
1
100
AcDbArc
50
205.48140039007035
51
292.84824903541443
0
ARC
5
444
100
AcDbEntity
8
0
100
AcDbCircle
10
0
20
0
30
0
40
10.749200000000002
210
0
220
0
230
1
100
AcDbArc
50
112.15175096458491
51
112.84824903541514
0
ARC
5
445
100
AcDbEntity
8
0
100
AcDbCircle
10
-4.2416342988998235
20
10.418878975897387
30
0
40
0.49999999999999961
210
0
220
0
230
1
100
AcDbArc
50
-67.848249035415179
51
19.518599609929748
0
LINE
5
446
100
AcDbEntity
8
0
100
AcDbLine
10
-3.7833902554141079
20
10.622671889868576
30
0
11
-3.7703677591180949
21
10.585935398947077
31
0
0
LWPOLYLINE
5
447
100
AcDbEntity
8
0
100
AcDbPolyline
90
2
43
0.0
10
-3.7089141481826395
20
12.459693248287085
10
-3.783390255414108
20
10.622671889868576
0
ARC
5
448
100
AcDbEntity
8
0
100
AcDbCircle
10
0
20
0
30
0
40
13.000000000000005
210
0
220
0
230
1
100
AcDbArc
50
103.42315308195082
51
106.57684691804918
0
LWPOLYLINE
5
449
100
AcDbEntity
8
0
100
AcDbPolyline
90
2
43
0.0
10
-2.0348238713151714
20
11.091198840400091
10
-3.0178327513618513
20
12.644867950469386
0
LINE
5
450
100
AcDbEntity
8
0
100
AcDbLine
10
-2.0277334384674601
20
11.052872857868172
30
0
11
-2.0348238713151718
21
11.091198840400091
31
0
0
ARC
5
451
100
AcDbEntity
8
0
100
AcDbCircle
10
-1.5360764315380491
20
11.143831021532646
30
0
40
0.50000000000000022
210
0
220
0
230
1
100
AcDbArc
50
190.48140039007043
51
277.84824903541528
0
ARC
5
452
100
AcDbEntity
8
0
100
AcDbCircle
10
0
20
0
30
0
40
10.749200000000002
210
0
220
0
230
1
100
AcDbArc
50
97.151750964584892
51
97.84824903541508
0
ARC
5
453
100
AcDbEntity
8
0
100
AcDbCircle
10
-1.4004998074003718
20
11.161680022714837
30
0
40
0.499999999999998
210
0
220
0
230
1
100
AcDbArc
50
-82.848249035415094
51
4.5185996099296437
0
LINE
5
454
100
AcDbEntity
8
0
100
AcDbLine
10
-0.90512456366170735
20
11.239926575775423
30
0
11
-0.90205390166735233
21
11.201071380370928
31
0
0
LWPOLYLINE
5
455
100
AcDbEntity
8
0
100
AcDbPolyline
90
2
43
0.0
10
-0.35773005442654493
20
12.995077114359887
10
-0.9051245636617073
20
11.239926575775423
0
ARC
5
456
100
AcDbEntity
8
0
100
AcDbCircle
10
0
20
0
30
0
40
13.000000000000007
210
0
220
-0
230
1
100
AcDbArc
50
88.423153081950815
51
91.576846918049171
0
LWPOLYLINE
5
457
100
AcDbEntity
8
0
100
AcDbPolyline
90
2
43
0.0
10
0.9051245636617095
20
11.239926575775423
10
0.3577300544265454
20
12.995077114359887
0
LINE
5
458
100
AcDbEntity
8
0
100
AcDbLine
10
0.902053901667354
20
11.201071380370928
30
0
11
0.90512456366170946
21
11.239926575775423
31
0
0
ARC
5
459
100
AcDbEntity
8
0
100
AcDbCircle
10
1.4004998074003732
20
11.161680022714837
30
0
40
0.5
210
0
220
0
230
1
100
AcDbArc
50
175.48140039007038
51
262.84824903541494
0
ARC
5
460
100
AcDbEntity
8
0
100
AcDbCircle
10
0
20
0
30
0
40
10.749199999999998
210
0
220
-0
230
1
100
AcDbArc
50
82.151750964584906
51
82.848249035415094
0
ARC
5
461
100
AcDbEntity
8
0
100
AcDbCircle
10
1.5360764315380504
20
11.143831021532646
30
0
40
0.50000000000000122
210
0
220
0
230
1
100
AcDbArc
50
262.15175096458495
51
349.51859960992959
0
LINE
5
462
100
AcDbEntity
8
0
100
AcDbLine
10
2.0348238713151754
20
11.091198840400091
30
0
11
2.0277334384674623
21
11.052872857868172
31
0
0
LWPOLYLINE
5
463
100
AcDbEntity
8
0
100
AcDbPolyline
90
2
43
0.0
10
3.0178327513618575
20
12.644867950469386
10
2.0348238713151754
20
11.091198840400091
0
ARC
5
464
100
AcDbEntity
8
0
100
AcDbCircle
10
0
20
0
30
0
40
13.000000000000009
210
0
220
-0
230
1
100
AcDbArc
50
73.423153081950815
51
76.576846918049156
0
LWPOLYLINE
5
465
100
AcDbEntity
8
0
100
AcDbPolyline
90
2
43
0.0
10
3.783390255414112
20
10.622671889868576
10
3.708914148182645
20
12.459693248287087
0
LINE
5
466
100
AcDbEntity
8
0
100
AcDbLine
10
3.7703677591180966
20
10.585935398947077
30
0
11
3.7833902554141119
21
10.622671889868576
31
0
0
ARC
5
467
100
AcDbEntity
8
0
100
AcDbCircle
10
4.2416342988998244
20
10.418878975897387
30
0
40
0.49999999999999978
210
0
220
0
230
1
100
AcDbArc
50
160.48140039007021
51
247.84824903541548
0
ARC
5
468
100
AcDbEntity
8
0
100
AcDbCircle
10
0
20
0
30
0
40
10.749199999999998
210
0
220
-0
230
1
100
AcDbArc
50
67.151750964584892
51
67.84824903541508
0
ARC
5
469
100
AcDbEntity
8
0
100
AcDbCircle
10
4.3679716001534858
20
10.366548352284505
30
0
40
0.50000000000000056
210
0
220
0
230
1
100
AcDbArc
50
247.15175096458461
51
334.51859960992942
0
LINE
5
470
100
AcDbEntity
8
0
100
AcDbLine
10
4.8361024221673699
20
10.186624233124208
30
0
11
4.819334095758669
21
10.151439315837727
31
0
0
LWPOLYLINE
5
471
100
AcDbEntity
8
0
100
AcDbPolyline
90
2
43
0.0
10
6.187735242349369
20
11.432931932386712
10
4.83610242216737
20
10.186624233124208
0
ARC
5
472
100
AcDbEntity
8
0
100
AcDbCircle
10
0
20
0
30
0
40
13.000000000000005
210
0
220
-0
230
1
100
AcDbArc
50
58.423153081950815
51
61.576846918049178
0
LWPOLYLINE
5
473
100
AcDbEntity
8
0
100
AcDbPolyline
90
2
43
0.0
10
6.403824153608057
20
9.2814996694625
10
6.807341872010523
20
11.075201877960165
0
LINE
5
474
100
AcDbEntity
8
0
100
AcDbLine
10
6.3817372846122655
20
9.2493854141703764
30
0
11
6.403824153608058
21
9.2814996694624998
31
0
0
ARC
5
475
100
AcDbEntity
8
0
100
AcDbCircle
10
6.7937084225613589
20
8.9660485448841314
30
0
40
0.50000000000000067
210
0
220
0
230
1
100
AcDbArc
50
145.48140039007018
51
232.84824903541499
0
ARC
5
476
100
AcDbEntity
8
0
100
AcDbCircle
10
0
20
0
30
0
40
10.749199999999998
210
0
220
-0
230
1
100
AcDbArc
50
52.151750964584899
51
52.848249035415087
0
ARC
5
477
100
AcDbEntity
8
0
100
AcDbCircle
10
6.9021967226328211
20
8.8828025443593379
30
0
40
0.50000000000000056
210
0
220
0
230
1
100
AcDbArc
50
232.15175096458495
51
319.51859960992971
0
LINE
5
478
100
AcDbEntity
8
0
100
AcDbLine
10
7.3078085849859828
20
8.5878480185534034
30
0
11
7.2825050987500761
21
8.5582019604796162
31
0
0
LWPOLYLINE
5
479
100
AcDbEntity
8
0
100
AcDbPolyline
90
2
43
0.0
10
8.935953802286747
20
9.441860496925232
10
7.307808584985983
20
8.587848018553403
0
ARC
5
480
100
AcDbEntity
8
0
100
AcDbCircle
10
0
20
0
30
0
40
13.000000000000007
210
0
220
-0
230
1
100
AcDbArc
50
43.423153081950822
51
46.576846918049185
0
LWPOLYLINE
5
481
100
AcDbEntity
8
0
100
AcDbPolyline
90
2
43
0.0
10
8.5878480185534
20
7.307808584985984
10
9.441860496925234
20
8.935953802286745
0
LINE
5
482
100
AcDbEntity
8
0
100
AcDbLine
10
8.5582019604796145
20
7.2825050987500788
30
0
11
8.5878480185534016
21
7.3078085849859846
31
0
0
ARC
5
483
100
AcDbEntity
8
0
100
AcDbCircle
10
8.8828025443593361
20
6.902196722632822
30
0
40
0.50000000000000089
210
0
220
0
230
1
100
AcDbArc
50
130.48140039007018
51
217.84824903541502
0
ARC
5
484
100
AcDbEntity
8
0
100
AcDbCircle
10
0
20
0
30
0
40
10.749199999999998
210
0
220
-0
230
1
100
AcDbArc
50
37.151750964584899
51
37.848249035415108
0
ENDSEC
0
SECTION
2
OBJECTS
0
DICTIONARY
5
C
100
AcDbDictionary
3
ACAD_GROUP
350
D
3
ACAD_MLINESTYLE
350
17
0
DICTIONARY
5
D
100
AcDbDictionary
0
DICTIONARY
5
1A
330
C
100
AcDbDictionary
0
DICTIONARY
5
17
100
AcDbDictionary
0
ENDSEC
0
EOF
